<?xml version="1.0" encoding="UTF-8" standalone="no"?>
<!-- Created with Inkscape (http://www.inkscape.org/) -->

<svg
   xmlns:dc="http://purl.org/dc/elements/1.1/"
   xmlns:cc="http://creativecommons.org/ns#"
   xmlns:rdf="http://www.w3.org/1999/02/22-rdf-syntax-ns#"
   xmlns:svg="http://www.w3.org/2000/svg"
   xmlns="http://www.w3.org/2000/svg"
   xmlns:sodipodi="http://sodipodi.sourceforge.net/DTD/sodipodi-0.dtd"
   xmlns:inkscape="http://www.inkscape.org/namespaces/inkscape"
   width="800"
   height="800"
   viewBox="0 0 211.66666 211.66667"
   version="1.1"
   id="svg8"
   inkscape:version="0.92.3 (2405546, 2018-03-11)"
   sodipodi:docname="deadbu9-deadline-humango-card.svg"
   inkscape:export-filename="C:\Users\Zulf\Pictures\NGIKSCAPE\random 2020\deadbu9-deadline-humango-card.jpg.png"
   inkscape:export-xdpi="96"
   inkscape:export-ydpi="96">
  <defs
     id="defs2" />
  <sodipodi:namedview
     id="base"
     pagecolor="#ffffff"
     bordercolor="#666666"
     borderopacity="1.0"
     inkscape:pageopacity="0.0"
     inkscape:pageshadow="2"
     inkscape:zoom="0.35"
     inkscape:cx="386.78756"
     inkscape:cy="248.77359"
     inkscape:document-units="mm"
     inkscape:current-layer="layer1"
     showgrid="false"
     units="px"
     inkscape:snap-global="true"
     inkscape:window-width="1366"
     inkscape:window-height="745"
     inkscape:window-x="-8"
     inkscape:window-y="-8"
     inkscape:window-maximized="1"
     inkscape:snap-page="true" />
  <metadata
     id="metadata5">
    <rdf:RDF>
      <cc:Work
         rdf:about="">
        <dc:format>image/svg+xml</dc:format>
        <dc:type
           rdf:resource="http://purl.org/dc/dcmitype/StillImage" />
        <dc:title></dc:title>
      </cc:Work>
    </rdf:RDF>
  </metadata>
  <g
     inkscape:label="Layer 1"
     inkscape:groupmode="layer"
     id="layer1"
     transform="translate(0,-85.333317)">
    <rect
       style="opacity:1;fill:#b2ebf2;fill-opacity:1;stroke:none;stroke-width:1.56959379;stroke-linecap:round;stroke-linejoin:round;stroke-miterlimit:4;stroke-dasharray:none;stroke-dashoffset:0;stroke-opacity:1;paint-order:markers fill stroke"
       id="rect893"
       width="211.66667"
       height="211.66666"
       x="-1.7319479e-014"
       y="85.333321"
       ry="0" />
    <path
       style="opacity:1;fill:#fafafa;fill-opacity:1;stroke:#000000;stroke-width:1.58749998;stroke-linecap:round;stroke-linejoin:round;stroke-miterlimit:4;stroke-dasharray:none;stroke-dashoffset:0;stroke-opacity:1;paint-order:markers fill stroke"
       d="m 26.549649,258.6803 c 0,2.83483 -2.645833,6.99256 -2.645833,6.99256 0,0 -9.260416,-0.75595 -11.150298,-0.75595 -1.889879,0 -4.157737,6.23661 -4.157737,6.23661 l 0.188987,4.15774 3.779763,12.85119 c 0,0 -5.858631,1.70089 -5.291666,2.64583 0.566962,0.94494 5.387311,3.14795 5.387311,3.14795 0,0 5.951974,-3.9039 7.463879,-3.14795 1.511904,0.75595 0.377976,-10.77232 0.377976,-10.77232 l 17.008927,0.75595 8.882441,-5.10268 z"
       id="path835"
       inkscape:connector-curvature="0"
       sodipodi:nodetypes="ccscccccscccc" />
    <path
       style="opacity:0.51700003;fill:#616161;fill-opacity:1;stroke:none;stroke-width:1.58749998;stroke-linecap:round;stroke-linejoin:round;stroke-miterlimit:4;stroke-dasharray:none;stroke-dashoffset:0;stroke-opacity:1;paint-order:markers fill stroke"
       d="m 23.431347,266.09809 c 0.236233,0.28348 0.850445,1.65364 1.606397,3.77976 0.755954,2.12611 1.039436,4.91369 1.181176,6.52009 0.14174,1.6064 0.18899,3.59077 0.18899,3.59077 l 3.590771,-0.33073 -1.181174,-10.72507 c 0,0 -2.787576,-5.48065 -2.976563,-5.57515 -0.188989,-0.0945 -1.417409,1.70089 -1.417409,1.70089 0,0 -0.661459,0.70871 -0.755955,0.8977 -0.09449,0.18899 -0.236233,0.14174 -0.236233,0.14174 z"
       id="path847"
       inkscape:connector-curvature="0" />
    <path
       style="opacity:1;fill:#fafafa;fill-opacity:1;stroke:#000000;stroke-width:1.58749998;stroke-linecap:round;stroke-linejoin:round;stroke-miterlimit:4;stroke-dasharray:none;stroke-dashoffset:0;stroke-opacity:1;paint-order:markers fill stroke"
       d="m 19.63088,227.64748 5.626089,0.26333 c 0,0 29.533284,-5.74629 30.201457,-6.01356 0.668174,-0.26727 7.930311,-0.93151 7.930311,-0.93151 l 13.60944,4.02248 c 2.96176,3.25603 6.41659,3.79067 0.56304,9.66361 -0.79688,0.0203 -1.23249,1.53275 -4.11021,1.23091 -3.50146,-0.36727 -9.43796,-2.60326 -9.09441,-3.13421 0,0 1.92625,19.21654 2.19351,20.01835 0.26727,0.80181 -1.06908,7.08264 -1.06908,7.08264 l -8.15171,11.09169 -8.953532,0.66817 0.267268,5.87993 -19.510676,-14.43255 c 0,0 -5.078121,-16.30344 -5.612659,-17.77343 -0.53454,-1.46998 -1.069079,-6.68173 -1.069079,-6.68173 0,0 -7.082641,4.54358 -8.285355,4.54358 -1.202711,0 -6.691235,-6.44574 -6.691235,-6.44574 2.580405,-5.21017 2.037759,-5.12318 12.156831,-9.05196 z"
       id="path817"
       inkscape:connector-curvature="0"
       sodipodi:nodetypes="ccscccscccccccccscc" />
    <path
       style="opacity:1;fill:#fafafa;fill-opacity:1;stroke:#000000;stroke-width:1.58749998;stroke-linecap:round;stroke-linejoin:round;stroke-miterlimit:4;stroke-dasharray:none;stroke-dashoffset:0;stroke-opacity:1;paint-order:markers fill stroke"
       d="m 55.228353,260.5014 c 0,0 -2.267857,8.12649 -1.889879,10.96131 0.377976,2.83482 0.566963,4.53572 2.078869,5.10268 1.511904,0.56696 5.102674,0.37797 5.102674,0.37797 h 1.51191 l 4.7247,14.3631 c 0,0 5.66965,4.7247 7.18155,3.96875 1.51191,-0.75595 3.40179,-2.45684 3.40179,-2.45684 l -4.91369,-5.85863 2.83482,-16.63095 -0.61219,-5.26007 -11.29406,-1.92148 h -6.4256 z"
       id="path837"
       inkscape:connector-curvature="0"
       sodipodi:nodetypes="cssccccccccccc" />
    <path
       style="opacity:0.51700003;fill:#616161;fill-opacity:1;stroke:none;stroke-width:1.58749998;stroke-linecap:round;stroke-linejoin:round;stroke-miterlimit:4;stroke-dasharray:none;stroke-dashoffset:0;stroke-opacity:1;paint-order:markers fill stroke"
       d="m 62.941977,263.45766 c 0.93544,0 2.80633,0.66817 2.80633,0.66817 0,0 -2.2718,5.27858 -2.33861,5.7463 -0.0668,0.46772 -1.26953,5.74629 -1.26953,6.08038 l -0.0668,0.26727 -1.40317,-0.0334 -1.40316,0.70158 -0.73499,-7.68399 3.34087,-6.28084 z"
       id="path849"
       inkscape:connector-curvature="0"
       sodipodi:nodetypes="cccscccccc" />
    <path
       style="opacity:1;fill:#fdd835;fill-opacity:1;stroke:#000000;stroke-width:1.58749998;stroke-linecap:round;stroke-linejoin:round;stroke-miterlimit:4;stroke-dasharray:none;stroke-dashoffset:0;stroke-opacity:1;paint-order:markers fill stroke"
       d="m 23.786987,245.68424 c 0.267269,1.20271 2.271792,12.6953 2.271792,12.6953 l -2.004523,6.1472 c 7.499071,4.77598 4.181949,13.15735 6.147199,19.77794 l 0.801809,4.94449 1.469983,-2.6727 4.276312,1.06908 6.414468,2.40543 2.004523,-3.0736 7.082642,2.40543 5.345395,-2.53907 1.06907,4.54359 c 0,0 2.16885,-8.52191 1.60362,-10.02261 -0.63037,-1.67366 -0.66819,-16.77364 3.35824,-18.92471 2.2886,-1.22266 3.99167,-17.95849 3.85804,-19.02756 -0.13364,-1.06908 -2.6727,-17.10525 -2.6727,-17.10525 l -0.26727,-5.47903 -5.21175,1.20272 c 0,0 -1.73725,4.14267 -2.40543,4.67721 -0.668172,0.53454 -7.082642,5.21176 -7.082642,5.21176 l -20.980657,7.08264 -5.746295,4.27631 z"
       id="path839"
       inkscape:connector-curvature="0"
       sodipodi:nodetypes="ccccccccccccssccccccccc" />
    <path
       style="opacity:0.51700003;fill:#616161;fill-opacity:1;stroke:none;stroke-width:1.58749998;stroke-linecap:round;stroke-linejoin:round;stroke-miterlimit:4;stroke-dasharray:none;stroke-dashoffset:0;stroke-opacity:1;paint-order:markers fill stroke"
       d="m 20.257688,226.84252 c 1.342204,7.32288 3.744082,11.1228 9.781524,12.88756 3.96875,1.13393 19.522635,-3.38771 21.267878,-4.5788 14.567617,-9.94204 11.977797,-12.66725 10.772317,-11.81175 z"
       id="path841"
       inkscape:connector-curvature="0"
       sodipodi:nodetypes="ccscc" />
    <path
       style="opacity:1;fill:#fafafa;fill-opacity:1;stroke:#000000;stroke-width:1.58749998;stroke-linecap:round;stroke-linejoin:round;stroke-miterlimit:4;stroke-dasharray:none;stroke-dashoffset:0;stroke-opacity:1;paint-order:markers fill stroke"
       d="m 36.566018,174.39161 c -4.913691,0.75596 -19.276785,9.07143 -21.544643,18.89881 -2.267857,9.82738 0.755952,27.97024 0.755952,27.97024 0,0 9.449406,12.09524 11.339287,12.47322 1.88988,0.37797 12.473213,2.26785 25.702379,-2.26786 13.229164,-4.53572 18.898814,-29.86012 18.898814,-29.86012 0,0 -9.82738,-18.52083 -15.497026,-21.54464 -5.669643,-3.02381 -19.654763,-5.66965 -19.654763,-5.66965 z"
       id="path815"
       inkscape:connector-curvature="0" />
    <path
       style="opacity:0.51700003;fill:#616161;fill-opacity:1;stroke:none;stroke-width:1.58749998;stroke-linecap:round;stroke-linejoin:round;stroke-miterlimit:4;stroke-dasharray:none;stroke-dashoffset:0;stroke-opacity:1;paint-order:markers fill stroke"
       d="m 18.990127,224.37897 -0.566967,-16.81994 -5.669641,-2.17337 3.874255,15.49702 z"
       id="path845"
       inkscape:connector-curvature="0"
       sodipodi:nodetypes="ccccc" />
    <path
       style="opacity:0.51700003;fill:#616161;fill-opacity:1;stroke:none;stroke-width:1.58749998;stroke-linecap:round;stroke-linejoin:round;stroke-miterlimit:4;stroke-dasharray:none;stroke-dashoffset:0;stroke-opacity:1;paint-order:markers fill stroke"
       d="m 62.653087,204.02361 c 0,0 0.90105,8.07113 0.99555,9.29955 0.0945,1.22843 -0.007,6.65848 -0.007,6.65848 0.3802,-0.005 3.03032,-5.75232 4.76858,-8.92634 l -3.02381,-11.33928 z"
       id="path843"
       inkscape:connector-curvature="0"
       sodipodi:nodetypes="cscccc" />
    <path
       style="opacity:1;fill:#fafafa;fill-opacity:1;stroke:#000000;stroke-width:1.58749998;stroke-linecap:round;stroke-linejoin:round;stroke-miterlimit:4;stroke-dasharray:none;stroke-dashoffset:0;stroke-opacity:1;paint-order:markers fill stroke"
       d="m 32.030305,205.19667 1.322917,1.7009 -1.322917,1.5119 -7.660735,1.60918 -7.836289,-3.68805 c 0,0 0,-0.75595 0.944941,-1.13393 0.944938,-0.37797 6.771144,0.0688 6.771144,0.0688 z"
       id="path829"
       inkscape:connector-curvature="0"
       sodipodi:nodetypes="cccccccc" />
    <path
       style="opacity:1;fill:#fafafa;fill-opacity:1;stroke:#000000;stroke-width:1.58749998;stroke-linecap:round;stroke-linejoin:round;stroke-miterlimit:4;stroke-dasharray:none;stroke-dashoffset:0;stroke-opacity:1;paint-order:markers fill stroke"
       d="m 3.965572,237.98611 c -3.170538,-1.78343 6.255493,-34.55648 6.709078,-35.05729 0.507475,-0.56031 -0.377976,-5.85863 0.755951,-6.4256 1.13393,-0.56696 2.645834,-2.07887 3.401788,-2.07887 0.755951,0 3.96875,0.18899 3.96875,0.18899 l -1.13393,2.64583 2.267857,2.26786 -1.700892,1.70089 3.401785,3.96875 -5.858632,1.7009 c 2.853374,12.92183 -0.07676,26.20199 -2.173363,36.94717 -6.704265,0.0471 -7.001743,0.84493 -9.638392,-5.85863 z"
       id="path819"
       inkscape:connector-curvature="0"
       sodipodi:nodetypes="cscscccccccc" />
    <path
       style="opacity:1;fill:#fafafa;fill-opacity:1;stroke:#000000;stroke-width:1.58749998;stroke-linecap:round;stroke-linejoin:round;stroke-miterlimit:4;stroke-dasharray:none;stroke-dashoffset:0;stroke-opacity:1;paint-order:markers fill stroke"
       d="m 22.202922,206.3306 c 0,0 1.511906,1.88988 2.456847,1.88988 0.944941,0 2.078868,-1.88988 2.078868,-1.88988"
       id="path831"
       inkscape:connector-curvature="0" />
    <path
       style="opacity:1;fill:#fafafa;fill-opacity:1;stroke:#000000;stroke-width:1.58749998;stroke-linecap:round;stroke-linejoin:round;stroke-miterlimit:4;stroke-dasharray:none;stroke-dashoffset:0;stroke-opacity:1;paint-order:markers fill stroke"
       d="m 81.179067,231.23632 -10.9502,-30.34412 -1.50111,-4.1597 -5.06588,-4.35689 -0.88968,3.28883 -1.42256,1.24417 0.93817,2.3932 -1.95958,1.66363 c 0,0 0.61797,3.17538 1.56024,3.10448 0.94228,-0.0709 2.46411,0.004 2.46411,0.004 l 2.83915,18.9623 4.40663,11.72317 5.16409,0.95156 z"
       id="path821"
       inkscape:connector-curvature="0"
       sodipodi:nodetypes="cccccccccccccc" />
    <path
       style="opacity:1;fill:#fafafa;fill-opacity:1;stroke:#000000;stroke-width:1.58749998;stroke-linecap:round;stroke-linejoin:round;stroke-miterlimit:4;stroke-dasharray:none;stroke-dashoffset:0;stroke-opacity:1;paint-order:markers fill stroke"
       d="m 40.156792,206.51959 c 0.755951,-0.37798 0,-1.32292 2.834822,-1.70089 2.83482,-0.37798 17.008923,0.18899 17.008923,0.18899 l -2.26785,2.64583 -9.449406,2.83482 -7.559524,-3.77976 z"
       id="path823"
       inkscape:connector-curvature="0" />
    <path
       style="opacity:1;fill:#fafafa;fill-opacity:1;stroke:#000000;stroke-width:1.58749998;stroke-linecap:round;stroke-linejoin:round;stroke-miterlimit:4;stroke-dasharray:none;stroke-dashoffset:0;stroke-opacity:1;paint-order:markers fill stroke"
       d="m 47.33834,205.38566 c 0,0 -0.188989,2.26786 0.944941,2.26786 1.133927,0 2.456844,-0.56697 2.456844,-0.56697 l 0.188989,-2.07886"
       id="path825"
       inkscape:connector-curvature="0" />
    <path
       style="opacity:1;fill:#fafafa;fill-opacity:1;stroke:#000000;stroke-width:1.58749998;stroke-linecap:round;stroke-linejoin:round;stroke-miterlimit:4;stroke-dasharray:none;stroke-dashoffset:0;stroke-opacity:1;paint-order:markers fill stroke"
       d="m 25.132831,219.97772 c 1.603619,-0.13363 8.018087,-0.26727 13.898015,-0.13363 5.879931,0.13363 11.358957,1.06907 12.561668,1.73725 1.202714,0.66817 3.497431,4.92434 3.497431,4.92434 l -32.134412,0.18898 z"
       id="path833"
       inkscape:connector-curvature="0"
       sodipodi:nodetypes="cccccc" />
    <path
       style="opacity:0.51700003;fill:#009688;fill-opacity:1;stroke:none;stroke-width:1.58749998;stroke-linecap:round;stroke-linejoin:round;stroke-miterlimit:4;stroke-dasharray:none;stroke-dashoffset:0;stroke-opacity:1;paint-order:markers fill stroke"
       d="m 51.983921,185.68223 c -0.133633,1.06908 -1.469982,7.48355 -1.469982,7.48355 0,0 0.400904,1.73725 1.069078,1.73725 0.668173,0 2.672696,-0.53454 2.672696,-1.06908 0,-0.53454 -2.271792,-8.15172 -2.271792,-8.15172 z"
       id="path851"
       inkscape:connector-curvature="0" />
    <path
       inkscape:connector-curvature="0"
       id="path853"
       d="m 54.522982,183.2768 c -0.133633,1.06908 -1.469982,7.48355 -1.469982,7.48355 0,0 0.400904,1.73725 1.069078,1.73725 0.668173,0 2.672699,-0.53454 2.672699,-1.06908 0,-0.53454 -2.271795,-8.15172 -2.271795,-8.15172 z"
       style="opacity:0.51700003;fill:#009688;fill-opacity:1;stroke:none;stroke-width:1.58749998;stroke-linecap:round;stroke-linejoin:round;stroke-miterlimit:4;stroke-dasharray:none;stroke-dashoffset:0;stroke-opacity:1;paint-order:markers fill stroke" />
    <path
       style="opacity:0.51700003;fill:#009688;fill-opacity:1;stroke:none;stroke-width:1.58749998;stroke-linecap:round;stroke-linejoin:round;stroke-miterlimit:4;stroke-dasharray:none;stroke-dashoffset:0;stroke-opacity:1;paint-order:markers fill stroke"
       d="m 57.730217,183.94497 c -0.13363,1.06908 -1.469983,7.48355 -1.469983,7.48355 0,0 0.400903,1.73725 1.069083,1.73725 0.66817,0 2.67269,-0.53454 2.67269,-1.06908 0,-0.53454 -2.27179,-8.15172 -2.27179,-8.15172 z"
       id="path855"
       inkscape:connector-curvature="0" />
    <text
       xml:space="preserve"
       style="font-style:normal;font-variant:normal;font-weight:bold;font-stretch:normal;font-size:20.24888039px;line-height:1.25;font-family:'Comic Sans MS';-inkscape-font-specification:'Comic Sans MS Bold';letter-spacing:0px;word-spacing:0px;fill:#000000;fill-opacity:1;stroke:none;stroke-width:0.50622201"
       x="5.0462523"
       y="106.13729"
       id="text859"><tspan
         sodipodi:role="line"
         x="5.0462523"
         y="106.13729"
         style="stroke-width:0.50622201"
         id="tspan861">Selamat Lembur</tspan></text>
    <text
       id="text867"
       y="128.33435"
       x="31.713259"
       style="font-style:normal;font-variant:normal;font-weight:bold;font-stretch:normal;font-size:11.86013031px;line-height:1.25;font-family:'Comic Sans MS';-inkscape-font-specification:'Comic Sans MS Bold';letter-spacing:0px;word-spacing:0px;fill:#000000;fill-opacity:1;stroke:none;stroke-width:0.29650325"
       xml:space="preserve"><tspan
         id="tspan865"
         style="stroke-width:0.29650325;font-size:14.11111111px"
         y="128.33435"
         x="31.713259"
         sodipodi:role="line">dari :</tspan></text>
    <text
       xml:space="preserve"
       style="font-style:normal;font-variant:normal;font-weight:bold;font-stretch:normal;font-size:13.80958557px;line-height:1.25;font-family:'Comic Sans MS';-inkscape-font-specification:'Comic Sans MS Bold';letter-spacing:0px;word-spacing:0px;fill:#000000;fill-opacity:1;stroke:none;stroke-width:0.34523964"
       x="22.580933"
       y="149.10014"
       id="text871"><tspan
         sodipodi:role="line"
         x="22.580933"
         y="149.10014"
         style="font-size:14.11111069px;stroke-width:0.34523964"
         id="tspan869">untuk :</tspan></text>
    <path
       style="opacity:1;fill:#009688;fill-opacity:1;stroke:#000000;stroke-width:1.58749998;stroke-linecap:round;stroke-linejoin:round;stroke-miterlimit:4;stroke-dasharray:none;stroke-dashoffset:0;stroke-opacity:1;paint-order:markers fill stroke"
       d="M 71.815475,127.66665 H 165.93155"
       id="path873"
       inkscape:connector-curvature="0" />
    <path
       inkscape:connector-curvature="0"
       id="path875"
       d="M 71.815475,150.7232 H 165.93155"
       style="opacity:1;fill:#009688;fill-opacity:1;stroke:#000000;stroke-width:1.58749998;stroke-linecap:round;stroke-linejoin:round;stroke-miterlimit:4;stroke-dasharray:none;stroke-dashoffset:0;stroke-opacity:1;paint-order:markers fill stroke" />
    <path
       style="opacity:0.56081081;fill:#f57f17;fill-opacity:1;stroke:none;stroke-width:1.58749998;stroke-linecap:round;stroke-linejoin:round;stroke-miterlimit:4;stroke-dasharray:none;stroke-dashoffset:0;stroke-opacity:1;paint-order:markers fill stroke"
       d="m 26.726953,265.06127 c 0,0 3.474502,-0.66817 4.543583,-2.40542 1.069078,-1.73725 2.672694,-5.87993 2.672694,-5.87993 l 4.009043,-5.21176 -3.207234,0.13364 c 0,0 -2.271792,0.66817 -2.539061,1.20271 -0.267269,0.53454 -4.543582,3.74177 -4.543582,3.74177 0,0 -0.668174,3.34087 -0.935443,4.00904 -0.26727,0.66818 0,4.40995 0,4.40995 z"
       id="path877"
       inkscape:connector-curvature="0" />
    <path
       inkscape:connector-curvature="0"
       id="path879"
       d="m 27.929666,253.43505 c 0,0 3.474502,-0.66817 4.543583,-2.40542 1.069078,-1.73725 2.672694,-5.87993 2.672694,-5.87993 l 4.009043,-5.21176 -3.207234,0.13364 c 0,0 -2.271792,0.66817 -2.539061,1.20271 -0.267269,0.53454 -4.543582,3.74177 -4.543582,3.74177 0,0 -0.668174,3.34087 -0.935443,4.00904 -0.26727,0.66818 0,4.40995 0,4.40995 z"
       style="opacity:0.56081082;fill:#f57f17;fill-opacity:1;stroke:none;stroke-width:1.58749998;stroke-linecap:round;stroke-linejoin:round;stroke-miterlimit:4;stroke-dasharray:none;stroke-dashoffset:0;stroke-opacity:1;paint-order:markers fill stroke" />
    <path
       style="opacity:0.56081082;fill:#f57f17;fill-opacity:1;stroke:none;stroke-width:1.58749998;stroke-linecap:round;stroke-linejoin:round;stroke-miterlimit:4;stroke-dasharray:none;stroke-dashoffset:0;stroke-opacity:1;paint-order:markers fill stroke"
       d="m 31.805074,275.88569 c 0,0 3.474502,-0.66817 4.543583,-2.40542 1.069078,-1.73725 2.672694,-5.87993 2.672694,-5.87993 l 4.009043,-5.21176 -3.207234,0.13364 c 0,0 -2.271792,0.66817 -2.539061,1.20271 -0.267269,0.53454 -4.543582,3.74177 -4.543582,3.74177 0,0 -0.668174,3.34087 -0.935443,4.00904 -0.26727,0.66818 0,4.40995 0,4.40995 z"
       id="path881"
       inkscape:connector-curvature="0" />
    <path
       inkscape:connector-curvature="0"
       id="path883"
       d="m 41.025873,257.17682 c 0,0 3.474502,-0.66817 4.543583,-2.40542 1.069078,-1.73725 2.672694,-5.87993 2.672694,-5.87993 l 4.009043,-5.21176 -3.207234,0.13364 c 0,0 -2.271792,0.66817 -2.539061,1.20271 -0.267269,0.53454 -4.543582,3.74177 -4.543582,3.74177 0,0 -0.668174,3.34087 -0.935443,4.00904 -0.26727,0.66818 0,4.40995 0,4.40995 z"
       style="opacity:0.56081082;fill:#f57f17;fill-opacity:1;stroke:none;stroke-width:1.58749998;stroke-linecap:round;stroke-linejoin:round;stroke-miterlimit:4;stroke-dasharray:none;stroke-dashoffset:0;stroke-opacity:1;paint-order:markers fill stroke" />
    <path
       style="opacity:0.56081082;fill:#f57f17;fill-opacity:1;stroke:none;stroke-width:1.58749998;stroke-linecap:round;stroke-linejoin:round;stroke-miterlimit:4;stroke-dasharray:none;stroke-dashoffset:0;stroke-opacity:1;paint-order:markers fill stroke"
       d="m 53.453906,244.88242 c 0,0 3.474502,-0.66817 4.543583,-2.40542 1.069078,-1.73725 2.672694,-5.87993 2.672694,-5.87993 l 4.009043,-5.21176 -3.207234,0.13364 c 0,0 -2.271792,0.66817 -2.539061,1.20271 -0.267269,0.53454 -4.543582,3.74177 -4.543582,3.74177 0,0 -0.668174,3.34087 -0.935443,4.00904 -0.26727,0.66818 0,4.40995 0,4.40995 z"
       id="path885"
       inkscape:connector-curvature="0" />
    <path
       inkscape:connector-curvature="0"
       id="path887"
       d="m 53.988445,255.97411 c 0,0 3.474502,-0.66817 4.543583,-2.40542 1.069078,-1.73725 2.672694,-5.87993 2.672694,-5.87993 l 4.009043,-5.21176 -3.207234,0.13364 c 0,0 -2.271792,0.66817 -2.539061,1.20271 -0.267269,0.53454 -4.543582,3.74177 -4.543582,3.74177 0,0 -0.668174,3.34087 -0.935443,4.00904 -0.26727,0.66818 0,4.40995 0,4.40995 z"
       style="opacity:0.56081082;fill:#f57f17;fill-opacity:1;stroke:none;stroke-width:1.58749998;stroke-linecap:round;stroke-linejoin:round;stroke-miterlimit:4;stroke-dasharray:none;stroke-dashoffset:0;stroke-opacity:1;paint-order:markers fill stroke" />
    <path
       style="opacity:0.56081082;fill:#f57f17;fill-opacity:1;stroke:none;stroke-width:1.58749998;stroke-linecap:round;stroke-linejoin:round;stroke-miterlimit:4;stroke-dasharray:none;stroke-dashoffset:0;stroke-opacity:1;paint-order:markers fill stroke"
       d="m 44.901281,271.07484 c 0,0 3.474502,-0.66817 4.543583,-2.40542 1.069078,-1.73725 2.672694,-5.87993 2.672694,-5.87993 l 4.009043,-5.21176 -3.207234,0.13364 c 0,0 -2.271792,0.66817 -2.539061,1.20271 -0.267269,0.53454 -4.543582,3.74177 -4.543582,3.74177 0,0 -0.668174,3.34087 -0.935443,4.00904 -0.26727,0.66818 0,4.40995 0,4.40995 z"
       id="path889"
       inkscape:connector-curvature="0" />
    <path
       inkscape:connector-curvature="0"
       id="path891"
       d="m 46.371263,284.70559 c 0,0 3.474502,-0.66817 4.543583,-2.40542 1.069078,-1.73725 2.672694,-5.87993 2.672694,-5.87993 l 4.009043,-5.21176 -3.207234,0.13364 c 0,0 -2.271792,0.66817 -2.539061,1.20271 -0.267269,0.53454 -4.543582,3.74177 -4.543582,3.74177 0,0 -0.668174,3.34087 -0.935443,4.00904 -0.26727,0.66818 0,4.40995 0,4.40995 z"
       style="opacity:0.56081082;fill:#f57f17;fill-opacity:1;stroke:none;stroke-width:1.58749998;stroke-linecap:round;stroke-linejoin:round;stroke-miterlimit:4;stroke-dasharray:none;stroke-dashoffset:0;stroke-opacity:1;paint-order:markers fill stroke" />
    <text
       xml:space="preserve"
       style="font-style:normal;font-variant:normal;font-weight:bold;font-stretch:normal;font-size:10.58333302px;line-height:1.25;font-family:'Comic Sans MS';-inkscape-font-specification:'Comic Sans MS Bold';letter-spacing:0px;word-spacing:0px;fill:#000000;fill-opacity:1;stroke:none;stroke-width:0.26458332"
       x="92.226196"
       y="206.28569"
       id="text897"><tspan
         sodipodi:role="line"
         id="tspan895"
         x="92.226196"
         y="206.28569"
         style="stroke-width:0.26458332">when you post three</tspan><tspan
         sodipodi:role="line"
         x="92.226196"
         y="219.51486"
         style="stroke-width:0.26458332"
         id="tspan899">design in one Pull Req</tspan><tspan
         sodipodi:role="line"
         x="92.226196"
         y="232.74402"
         style="stroke-width:0.26458332"
         id="tspan901" /><tspan
         sodipodi:role="line"
         x="92.226196"
         y="245.97319"
         style="stroke-width:0.26458332"
         id="tspan903">and it only count as </tspan><tspan
         sodipodi:role="line"
         x="92.226196"
         y="259.20236"
         style="stroke-width:0.26458332"
         id="tspan905">one PR</tspan></text>
  </g>
</svg>
