<?xml version="1.0" encoding="UTF-8" standalone="no"?>
<!-- Created with Inkscape (http://www.inkscape.org/) -->

<svg
   xmlns:dc="http://purl.org/dc/elements/1.1/"
   xmlns:cc="http://creativecommons.org/ns#"
   xmlns:rdf="http://www.w3.org/1999/02/22-rdf-syntax-ns#"
   xmlns:svg="http://www.w3.org/2000/svg"
   xmlns="http://www.w3.org/2000/svg"
   xmlns:sodipodi="http://sodipodi.sourceforge.net/DTD/sodipodi-0.dtd"
   xmlns:inkscape="http://www.inkscape.org/namespaces/inkscape"
   width="800"
   height="800"
   viewBox="0 0 211.66666 211.66667"
   version="1.1"
   id="svg8"
   inkscape:version="0.92.3 (2405546, 2018-03-11)"
   sodipodi:docname="deadbu9-low-effort-merdeka.svg"
   inkscape:export-filename="C:\Users\Zulf\Pictures\NGIKSCAPE\random 2020\deadbu9-low-effort-merdeka.png"
   inkscape:export-xdpi="96"
   inkscape:export-ydpi="96">
  <defs
     id="defs2" />
  <sodipodi:namedview
     id="base"
     pagecolor="#ffffff"
     bordercolor="#666666"
     borderopacity="1.0"
     inkscape:pageopacity="0.0"
     inkscape:pageshadow="2"
     inkscape:zoom="0.7"
     inkscape:cx="423.80547"
     inkscape:cy="310.80605"
     inkscape:document-units="px"
     inkscape:current-layer="layer5"
     showgrid="false"
     units="px"
     inkscape:snap-page="false"
     inkscape:snap-global="false"
     showguides="false"
     inkscape:window-width="1366"
     inkscape:window-height="745"
     inkscape:window-x="-8"
     inkscape:window-y="-8"
     inkscape:window-maximized="1" />
  <metadata
     id="metadata5">
    <rdf:RDF>
      <cc:Work
         rdf:about="">
        <dc:format>image/svg+xml</dc:format>
        <dc:type
           rdf:resource="http://purl.org/dc/dcmitype/StillImage" />
        <dc:title></dc:title>
      </cc:Work>
    </rdf:RDF>
  </metadata>
  <g
     inkscape:label="Layer 1"
     inkscape:groupmode="layer"
     id="layer1"
     transform="translate(0,-85.333316)"
     sodipodi:insensitive="true">
    <rect
       style="opacity:1;fill:#bbdefb;fill-opacity:1;stroke:none;stroke-width:1.58749998;stroke-linecap:round;stroke-linejoin:round;stroke-miterlimit:4;stroke-dasharray:none;stroke-dashoffset:0;stroke-opacity:1;paint-order:markers fill stroke"
       id="rect816"
       width="211.66666"
       height="211.66666"
       x="0"
       y="85.333313"
       ry="3.0117187e-006" />
  </g>
  <g
     inkscape:groupmode="layer"
     id="layer3"
     inkscape:label="Layer 3">
    <text
       xml:space="preserve"
       style="font-style:normal;font-variant:normal;font-weight:bold;font-stretch:normal;font-size:10.58333302px;line-height:1.25;font-family:'Cormorant Garamond';-inkscape-font-specification:'Cormorant Garamond Bold';letter-spacing:0px;word-spacing:0px;fill:#000000;fill-opacity:1;stroke:none;stroke-width:0.26458332"
       x="114.14881"
       y="175.75894"
       id="text857"><tspan
         sodipodi:role="line"
         id="tspan855"
         x="114.14881"
         y="175.75894"
         style="font-style:normal;font-variant:normal;font-weight:bold;font-stretch:normal;font-family:'Cormorant Garamond';-inkscape-font-specification:'Cormorant Garamond Bold';stroke-width:0.26458332">selamat 17-an</tspan></text>
    <text
       id="text861"
       y="185.68796"
       x="114.14881"
       style="font-style:normal;font-variant:normal;font-weight:bold;font-stretch:normal;font-size:10.58333302px;line-height:1.25;font-family:'Cormorant Garamond';-inkscape-font-specification:'Cormorant Garamond Bold';letter-spacing:0px;word-spacing:0px;fill:#000000;fill-opacity:1;stroke:none;stroke-width:0.26458332"
       xml:space="preserve"><tspan
         style="font-style:normal;font-variant:normal;font-weight:bold;font-stretch:normal;font-family:'Cormorant Garamond';-inkscape-font-specification:'Cormorant Garamond Bold';stroke-width:0.26458332"
         y="185.68796"
         x="114.14881"
         id="tspan859"
         sodipodi:role="line">saya suka karena libur</tspan></text>
    <text
       xml:space="preserve"
       style="font-style:normal;font-variant:normal;font-weight:bold;font-stretch:normal;font-size:10.58333302px;line-height:1.25;font-family:'Cormorant Garamond';-inkscape-font-specification:'Cormorant Garamond Bold';letter-spacing:0px;word-spacing:0px;fill:#000000;fill-opacity:1;stroke:none;stroke-width:0.26458332"
       x="113.93177"
       y="196.78743"
       id="text865"><tspan
         sodipodi:role="line"
         id="tspan863"
         x="113.93177"
         y="196.78743"
         style="font-style:normal;font-variant:normal;font-weight:bold;font-stretch:normal;font-family:'Cormorant Garamond';-inkscape-font-specification:'Cormorant Garamond Bold';stroke-width:0.26458332">karena saya nganggur</tspan></text>
    <text
       id="text881"
       y="207.88692"
       x="114.12814"
       style="font-style:normal;font-variant:normal;font-weight:bold;font-stretch:normal;font-size:10.58333302px;line-height:1.25;font-family:'Cormorant Garamond';-inkscape-font-specification:'Cormorant Garamond Bold';letter-spacing:0px;word-spacing:0px;fill:#000000;fill-opacity:1;stroke:none;stroke-width:0.26458332"
       xml:space="preserve"><tspan
         style="font-style:normal;font-variant:normal;font-weight:bold;font-stretch:normal;font-family:'Cormorant Garamond';-inkscape-font-specification:'Cormorant Garamond Bold';stroke-width:0.26458332"
         y="207.88692"
         x="114.12814"
         id="tspan879"
         sodipodi:role="line">anak sd mah upacara</tspan></text>
    <text
       xml:space="preserve"
       style="font-style:normal;font-variant:normal;font-weight:bold;font-stretch:normal;font-size:5.96761274px;line-height:1.25;font-family:'Cormorant Garamond';-inkscape-font-specification:'Cormorant Garamond Bold';letter-spacing:0px;word-spacing:0px;fill:#000000;fill-opacity:1;stroke:none;stroke-width:0.14919032"
       x="79.450523"
       y="142.34616"
       id="text885"><tspan
         sodipodi:role="line"
         id="tspan883"
         x="79.450523"
         y="142.34616"
         style="font-style:normal;font-variant:normal;font-weight:bold;font-stretch:normal;font-family:'Cormorant Garamond';-inkscape-font-specification:'Cormorant Garamond Bold';stroke-width:0.14919032">upacara panas asu</tspan></text>
    <path
       style="opacity:1;fill:#ffeb3b;fill-opacity:1;stroke:#000000;stroke-width:1.58749998;stroke-linecap:round;stroke-linejoin:round;stroke-miterlimit:4;stroke-dasharray:none;stroke-dashoffset:0;stroke-opacity:1;paint-order:markers fill stroke"
       d="m 152.87817,-16.04697 c 5.34397,62.352547 17.84582,61.675335 76.43908,69.490075 l -1.60362,-66.81738 z"
       id="path889"
       inkscape:connector-curvature="0"
       sodipodi:nodetypes="cccc" />
    <path
       style="opacity:1;fill:#ffeb3b;fill-opacity:1;stroke:#fbc02d;stroke-width:1.58749998;stroke-linecap:round;stroke-linejoin:round;stroke-miterlimit:4;stroke-dasharray:none;stroke-dashoffset:0;stroke-opacity:1;paint-order:markers fill stroke"
       d="m 130.16027,9.8781729 c 8.01808,0 20.84702,-1.069078 20.84702,-1.069078"
       id="path901"
       inkscape:connector-curvature="0" />
    <path
       style="opacity:1;fill:#ffeb3b;fill-opacity:1;stroke:#fbc02d;stroke-width:1.58749998;stroke-linecap:round;stroke-linejoin:round;stroke-miterlimit:4;stroke-dasharray:none;stroke-dashoffset:0;stroke-opacity:1;paint-order:markers fill stroke"
       d="m 133.90203,24.577997 19.77795,-2.138156"
       id="path903"
       inkscape:connector-curvature="0" />
    <path
       style="opacity:1;fill:#ffeb3b;fill-opacity:1;stroke:#fbc02d;stroke-width:1.58749998;stroke-linecap:round;stroke-linejoin:round;stroke-miterlimit:4;stroke-dasharray:none;stroke-dashoffset:0;stroke-opacity:1;paint-order:markers fill stroke"
       d="m 145.39462,39.010552 c 4.27631,-0.53454 10.69079,-6.414468 10.69079,-6.414468"
       id="path905"
       inkscape:connector-curvature="0" />
    <path
       style="opacity:1;fill:#ffeb3b;fill-opacity:1;stroke:#fbc02d;stroke-width:1.58749998;stroke-linecap:round;stroke-linejoin:round;stroke-miterlimit:4;stroke-dasharray:none;stroke-dashoffset:0;stroke-opacity:1;paint-order:markers fill stroke"
       d="m 161.69806,47.830445 1.60362,-5.34539"
       id="path907"
       inkscape:connector-curvature="0" />
    <path
       style="opacity:1;fill:#ffeb3b;fill-opacity:1;stroke:#fbc02d;stroke-width:1.58749998;stroke-linecap:round;stroke-linejoin:round;stroke-miterlimit:4;stroke-dasharray:none;stroke-dashoffset:0;stroke-opacity:1;paint-order:markers fill stroke"
       d="m 172.92339,55.848532 3.74177,-8.018087"
       id="path909"
       inkscape:connector-curvature="0" />
    <path
       style="opacity:1;fill:#ffeb3b;fill-opacity:1;stroke:#fbc02d;stroke-width:1.58749998;stroke-linecap:round;stroke-linejoin:round;stroke-miterlimit:4;stroke-dasharray:none;stroke-dashoffset:0;stroke-opacity:1;paint-order:markers fill stroke"
       d="m 184.68324,58.521228 1.06908,-6.949009"
       id="path911"
       inkscape:connector-curvature="0" />
    <path
       inkscape:connector-curvature="0"
       id="path1000"
       d="m 198.04672,61.461193 1.06908,-6.949009"
       style="opacity:1;fill:#ffeb3b;fill-opacity:1;stroke:#fbc02d;stroke-width:1.58749998;stroke-linecap:round;stroke-linejoin:round;stroke-miterlimit:4;stroke-dasharray:none;stroke-dashoffset:0;stroke-opacity:1;paint-order:markers fill stroke" />
  </g>
  <g
     inkscape:groupmode="layer"
     id="layer2"
     inkscape:label="Layer 2"
     style="display:inline">
    <path
       style="opacity:1;fill:#fafafa;fill-opacity:1;stroke:#000000;stroke-width:1.58749998;stroke-linecap:round;stroke-linejoin:round;stroke-miterlimit:4;stroke-dasharray:none;stroke-dashoffset:0;stroke-opacity:1;paint-order:markers fill stroke"
       d="m 10.259633,182.36566 c 0,0 -5.8924252,7.90958 -6.3240343,10.42413 -0.4316107,2.51457 -0.6005156,8.52577 -0.6005156,8.52577 0,0 -1.4345132,1.09604 -1.4984545,1.46856 -0.063943,0.37253 -0.3996393,2.3283 0.3266478,3.1241 0.7262911,0.79579 5.5371887,1.81331 6.3781585,1.3824 3.3900031,-0.17855 1.4207195,-5.46782 0.6637532,-5.54275 0,0 -0.6512226,-3.46744 -0.2383781,-5.31409 0.4128395,-1.84666 7.835572,-8.44506 7.835572,-8.44506 4.44852,-3.5355 5.017294,-5.93722 -2.079418,-6.09884 0.190907,-2.6899 -0.705065,-3.53552 -4.463331,0.47578 z"
       id="path842"
       inkscape:connector-curvature="0"
       sodipodi:nodetypes="cscsccccccc" />
    <path
       style="opacity:1;fill:#fafafa;fill-opacity:1;stroke:#000000;stroke-width:1.58749998;stroke-linecap:round;stroke-linejoin:round;stroke-miterlimit:4;stroke-dasharray:none;stroke-dashoffset:0;stroke-opacity:1;paint-order:markers fill stroke"
       d="m 74.842176,178.35232 c 7.036791,5.19847 7.816783,6.476 9.234402,6.2592 4.719943,1.28631 4.661967,-0.0967 9.647909,0.53158 0,0 5.497086,0.58612 6.264732,0.85347 0.767641,0.26735 1.990691,1.04373 2.863181,3.06764 1.40788,10.18724 -7.082792,9.29549 -10.665709,5.72539 0,0 -2.605411,-0.6594 -5.043993,-0.67119 -2.438581,-0.0118 -5.237421,-2.26451 -6.332378,-2.99481 -1.094949,-0.73029 -10.633365,-6.70518 -10.633365,-6.70518 0.04739,-2.12824 -2.452708,-4.43589 4.665221,-6.0661 z"
       id="path844"
       inkscape:connector-curvature="0"
       sodipodi:nodetypes="ccccccsscc" />
    <path
       style="opacity:1;fill:#fafafa;fill-opacity:1;stroke:#000000;stroke-width:1.58749998;stroke-linecap:round;stroke-linejoin:round;stroke-miterlimit:4;stroke-dasharray:none;stroke-dashoffset:0;stroke-opacity:1;paint-order:markers fill stroke"
       d="m 22.481631,167.54047 c -5.140573,-0.0688 -12.221997,14.82519 -12.221997,14.82519 0,0 2.632107,-2.53682 4.814141,0.5495 2.182032,3.08631 1.728607,5.07356 1.728607,5.07356 l 5.302976,-4.86959 c -4.706232,8.95376 -0.284122,32.03076 6.40192,29.26849 2.995885,-1.65521 40.471359,-1.34189 40.471359,-1.34189 l -2.992078,-28.46418 4.190397,1.83686 c -0.286845,-3.19072 0.425507,-3.14424 4.66522,-6.06609 -1.399719,-5.37967 -5.554143,-6.62917 -9.634617,-7.98953 z"
       id="path838"
       inkscape:connector-curvature="0"
       sodipodi:nodetypes="ccsccccccccc" />
    <path
       style="opacity:1;fill:#fafafa;fill-opacity:1;stroke:#000000;stroke-width:1.58749998;stroke-linecap:round;stroke-linejoin:round;stroke-miterlimit:4;stroke-dasharray:none;stroke-dashoffset:0;stroke-opacity:1;paint-order:markers fill stroke"
       d="m 45.52688,130.89803 c -7.269868,-0.0973 -20.917874,2.66477 -24.519531,7.94717 -6.363709,9.33338 -2.813784,25.79986 3.25664,28.89572 9.919255,4.77061 24.101239,5.82971 27.209349,5.59619 3.108113,-0.23353 17.599191,0.13707 23.759321,-13.21242 3.093688,-6.70427 3.088819,-10.90746 -1.613782,-19.64393 -3.533381,-6.5643 -28.091997,-9.58273 -28.091997,-9.58273 z"
       id="path818"
       inkscape:connector-curvature="0"
       sodipodi:nodetypes="cscsssc" />
    <path
       style="opacity:1;fill:#fafafa;fill-opacity:1;stroke:#000000;stroke-width:1.58749998;stroke-linecap:round;stroke-linejoin:round;stroke-miterlimit:4;stroke-dasharray:none;stroke-dashoffset:0;stroke-opacity:1;paint-order:markers fill stroke"
       d="m 34.249952,146.3747 0.96912,8.57287"
       id="path820"
       inkscape:connector-curvature="0" />
    <path
       style="opacity:1;fill:#fafafa;fill-opacity:1;stroke:#000000;stroke-width:1.58749998;stroke-linecap:round;stroke-linejoin:round;stroke-miterlimit:4;stroke-dasharray:none;stroke-dashoffset:0;stroke-opacity:1;paint-order:markers fill stroke"
       d="m 59.948874,147.53164 c -0.226071,1.31709 0.0059,7.86517 0.0059,7.86517"
       id="path822"
       inkscape:connector-curvature="0" />
    <path
       style="opacity:1;fill:#fafafa;fill-opacity:1;stroke:#000000;stroke-width:1.58749998;stroke-linecap:round;stroke-linejoin:round;stroke-miterlimit:4;stroke-dasharray:none;stroke-dashoffset:0;stroke-opacity:1;paint-order:markers fill stroke"
       d="m 40.196956,160.93553 c 0,0 5.46186,6.60734 6.984027,6.67635 1.522087,0.0695 10.220414,-6.60824 10.220414,-6.60824"
       id="path824"
       inkscape:connector-curvature="0"
       sodipodi:nodetypes="csc" />
    <path
       style="opacity:1;fill:#fafafa;fill-opacity:1;stroke:#000000;stroke-width:1.48942828;stroke-linecap:round;stroke-linejoin:round;stroke-miterlimit:4;stroke-dasharray:none;stroke-dashoffset:0;stroke-opacity:1;paint-order:markers fill stroke"
       d="m 26.018179,135.87731 c 23.132685,4.79917 24.483403,2.94317 37.206794,-1.20666 0.160636,-6.3804 -0.584353,-17.91133 -3.146217,-19.70606 -6.487504,-4.54487 -19.153569,-3.88533 -29.667327,4.04022 -1.423115,4.93403 -2.888389,11.96708 -4.39325,16.8725 z"
       id="path826"
       inkscape:connector-curvature="0"
       sodipodi:nodetypes="ccscc" />
    <path
       style="opacity:1;fill:#f44336;fill-opacity:1;stroke:#000000;stroke-width:1.58749998;stroke-linecap:round;stroke-linejoin:round;stroke-miterlimit:4;stroke-dasharray:none;stroke-dashoffset:0;stroke-opacity:1;paint-order:markers fill stroke"
       d="m 30.41143,119.0048 6.989361,-3.88295 c 0,0 -0.995966,3.56821 -1.37962,5.80338 -0.383653,2.23517 0.127854,12.10231 0.127854,12.10231 0,0 -10.625989,4.86067 -10.130846,2.84977 0.495145,-2.01091 4.393251,-16.87251 4.393251,-16.87251 z"
       id="path832"
       inkscape:connector-curvature="0" />
    <path
       style="opacity:0.446;fill:#9e9e9e;fill-opacity:1;stroke:none;stroke-width:1.58749998;stroke-linecap:round;stroke-linejoin:round;stroke-miterlimit:4;stroke-dasharray:none;stroke-dashoffset:0;stroke-opacity:1;paint-order:markers fill stroke"
       d="m 26.018179,135.87731 c 0,0 9.133607,7.37567 11.968429,7.94263 2.83482,0.56697 34.279105,1.82234 36.285713,-0.18899 2.834823,-2.8415 -11.047348,-9.55658 -11.047348,-8.9603 z"
       id="path918"
       inkscape:connector-curvature="0"
       sodipodi:nodetypes="ccscc" />
    <path
       style="opacity:1;fill:#f44336;fill-opacity:1;stroke:#000000;stroke-width:1.58749998;stroke-linecap:round;stroke-linejoin:round;stroke-miterlimit:4;stroke-dasharray:none;stroke-dashoffset:0;stroke-opacity:1;paint-order:markers fill stroke"
       d="m 26.018179,135.87731 v 0 c 10.130846,-2.84977 18.85861,-4.09638 42.486158,-2.6295 2.605477,-0.42352 13.160786,2.64385 13.149034,4.79626 -10.903583,2.05181 -14.315404,-0.75602 -31.046817,1.34541 z"
       id="path828"
       inkscape:connector-curvature="0"
       sodipodi:nodetypes="cccccc" />
    <path
       style="opacity:1;fill:#fbc02d;fill-opacity:1;stroke:#000000;stroke-width:1.58749998;stroke-linecap:round;stroke-linejoin:round;stroke-miterlimit:4;stroke-dasharray:none;stroke-dashoffset:0;stroke-opacity:1;paint-order:markers fill stroke"
       d="m 46.646573,121.02325 -2.774492,-4.50302 0.895865,4.27644 c 0,0 -3.051809,-1.77022 -2.447843,-1.37891 0.603969,0.39129 3.320081,4.11728 3.320081,4.11728 0,0 -5.002725,0.10007 -4.350799,0.21197 0.651924,0.1119 4.265309,1.40324 4.265309,1.40324 l 0.765902,2.24074 c 0,0 -0.793716,3.50704 -0.793716,3.50704 l 10.111784,0.2975 -2.282423,-3.4598 0.218938,-3.50983 c 0,0 4.092951,-1.50261 3.720423,-1.56655 -0.372529,-0.0639 -4.443932,0.19598 -4.379989,-0.17655 0.06394,-0.37253 2.079501,-5.97088 2.079501,-5.97088 l -3.199165,2.99829 c 0,0 -1.574201,-5.35162 -1.654129,-4.88596 -0.07993,0.46566 -0.770083,5.04512 -1.078672,4.60864 -0.308588,-0.43647 -3.224168,-4.67607 -2.979525,-3.86707 0.244644,0.809 0.56295,5.65743 0.56295,5.65743 z"
       id="path834"
       inkscape:connector-curvature="0" />
    <path
       style="opacity:1;fill:#fbc02d;fill-opacity:1;stroke:#d50000;stroke-width:1.58749998;stroke-linecap:round;stroke-linejoin:round;stroke-miterlimit:4;stroke-dasharray:none;stroke-dashoffset:0;stroke-opacity:1;paint-order:markers fill stroke"
       d="m 49.580922,124.59494 -0.06186,3.15329"
       id="path836"
       inkscape:connector-curvature="0" />
    <path
       sodipodi:nodetypes="cccscsc"
       inkscape:connector-curvature="0"
       id="path920"
       d="m 22.292643,167.63496 c 0,0 -6.217981,2.52514 -5.005678,5.3884 11.426266,8.3737 46.297209,16.78231 48.913094,4.16063 1.798554,-1.47851 3.378214,-2.81416 2.881414,-4.01693 -0.534651,-1.29442 -3.637679,-2.28653 -3.637679,-1.97745 -2.345765,0.78593 -2.588763,0.9684 -4.798054,1.45775 -14.131008,3.12993 -28.04614,0.16809 -38.353097,-5.0124 z"
       style="opacity:0.44600004;fill:#9e9e9e;fill-opacity:1;stroke:none;stroke-width:1.58749998;stroke-linecap:round;stroke-linejoin:round;stroke-miterlimit:4;stroke-dasharray:none;stroke-dashoffset:0;stroke-opacity:1;paint-order:markers fill stroke" />
    <path
       style="opacity:1;fill:#f44336;fill-opacity:1;stroke:#000000;stroke-width:1.58749998;stroke-linecap:round;stroke-linejoin:round;stroke-miterlimit:4;stroke-dasharray:none;stroke-dashoffset:0;stroke-opacity:1;paint-order:markers fill stroke"
       d="m 42.752962,173.46053 -0.219195,4.43681 3.198354,1.90487 -2.043492,18.22494 6.378035,3.1286 3.075509,-4.48891 -4.971476,-16.85283 3.320255,-5.12484 -0.763714,-1.08021 z"
       id="path840"
       inkscape:connector-curvature="0" />
    <path
       style="opacity:1;fill:#fafafa;fill-opacity:1;stroke:#000000;stroke-width:1.58749998;stroke-linecap:round;stroke-linejoin:round;stroke-miterlimit:4;stroke-dasharray:none;stroke-dashoffset:0;stroke-opacity:1;paint-order:markers fill stroke"
       d="m 96.463074,186.04488 c -0.606745,0.18348 -3.315924,1.44423 -3.443808,2.18929 -0.127886,0.74506 0.02085,2.11285 0.02085,2.11285 0,0 -0.856954,0.52404 -0.920897,0.89657 -0.06394,0.37252 0.225877,1.47691 0.225877,1.47691 l -0.158404,2.0691"
       id="path846"
       inkscape:connector-curvature="0" />
    <path
       style="opacity:1;fill:#fafafa;fill-opacity:1;stroke:#000000;stroke-width:1.58749998;stroke-linecap:round;stroke-linejoin:round;stroke-miterlimit:4;stroke-dasharray:none;stroke-dashoffset:0;stroke-opacity:1;paint-order:markers fill stroke"
       d="m 93.945732,186.18805 -1.477529,-34.96069 1.447723,-0.6144 2.547148,35.43192 z"
       id="path848"
       inkscape:connector-curvature="0" />
    <path
       style="opacity:1;fill:#fafafa;fill-opacity:1;stroke:#000000;stroke-width:1.58749998;stroke-linecap:round;stroke-linejoin:round;stroke-miterlimit:4;stroke-dasharray:none;stroke-dashoffset:0;stroke-opacity:1;paint-order:markers fill stroke"
       d="m 93.915926,150.61296 c 0,0 17.106444,-6.939 21.390524,-6.20366 4.28407,0.73533 15.39598,3.02614 15.39598,3.02614 0,0 -1.23435,-1.74588 -3.58212,1.87793 -2.34777,3.6238 -6.06749,1.83482 -2.76339,6.04523 3.3041,4.21041 6.87508,4.6316 5.46419,7.26571 -1.41088,2.63411 -3.34303,3.83648 -3.34303,3.83648 0,0 -3.77254,-3.71557 -7.96627,-3.86013 -4.19372,-0.14458 -23.44428,3.64599 -23.44428,3.64599 z"
       id="path850"
       inkscape:connector-curvature="0" />
    <path
       style="opacity:1;fill:#f44336;fill-opacity:1;stroke:#000000;stroke-width:1.58749998;stroke-linecap:round;stroke-linejoin:round;stroke-miterlimit:4;stroke-dasharray:none;stroke-dashoffset:0;stroke-opacity:1;paint-order:markers fill stroke"
       d="m 95.023665,158.83999 c 0,0 1.810504,-1.85866 4.557718,-2.06507 2.747207,-0.2064 10.988837,-0.8256 13.630867,-1.99918 2.64205,-1.17357 9.95778,-1.13818 9.95778,-1.13818 0,0 0.82073,-1.62178 1.5923,-2.16729 0.77158,-0.54551 5.9401,-4.03483 5.9401,-4.03483 l -16.44925,-3.46374 c 0,0 -15.972161,4.58027 -16.589415,5.01668 -0.617273,0.43641 -3.747839,1.62458 -3.747839,1.62458 z"
       id="path852"
       inkscape:connector-curvature="0" />
    <path
       style="opacity:1;fill:#4dd0e1;fill-opacity:1;stroke:#000000;stroke-width:0.87346655;stroke-linecap:round;stroke-linejoin:round;stroke-miterlimit:4;stroke-dasharray:none;stroke-dashoffset:0;stroke-opacity:1;paint-order:markers fill stroke"
       d="m 27.092991,137.0718 -2.492326,9.49859 c 2.691487,4.32073 4.676265,2.61866 5.889098,0.62971 -1.351493,-5.35545 -2.41282,-7.41409 -3.396772,-10.1283 z"
       id="path922"
       inkscape:connector-curvature="0"
       sodipodi:nodetypes="cccc" />
    <path
       style="opacity:1;fill:#4dd0e1;fill-opacity:1;stroke:#fafafa;stroke-width:0.87346655;stroke-linecap:round;stroke-linejoin:round;stroke-miterlimit:4;stroke-dasharray:none;stroke-dashoffset:0;stroke-opacity:1;paint-order:markers fill stroke"
       d="m 26.647111,143.32145 c -0.05131,0.68482 -0.461825,2.37056 -0.461825,2.68663 0,0.31608 0.05131,0.57947 0.05131,0.57947"
       id="path924"
       inkscape:connector-curvature="0" />
    <path
       sodipodi:nodetypes="cccc"
       inkscape:connector-curvature="0"
       id="path926"
       d="m 23.28119,137.01475 -1.627332,6.20198 c 1.757371,2.82116 3.053306,1.70982 3.84521,0.41116 -0.88244,-3.49677 -1.575419,-4.84093 -2.217878,-6.61314 z"
       style="opacity:1;fill:#4dd0e1;fill-opacity:1;stroke:#000000;stroke-width:0.57031864;stroke-linecap:round;stroke-linejoin:round;stroke-miterlimit:4;stroke-dasharray:none;stroke-dashoffset:0;stroke-opacity:1;paint-order:markers fill stroke" />
    <path
       inkscape:connector-curvature="0"
       id="path928"
       d="m 22.990058,141.09538 c -0.0335,0.44714 -0.301542,1.54782 -0.301542,1.7542 0,0.20638 0.0335,0.37835 0.0335,0.37835"
       style="opacity:1;fill:#4dd0e1;fill-opacity:1;stroke:#fafafa;stroke-width:0.57031864;stroke-linecap:round;stroke-linejoin:round;stroke-miterlimit:4;stroke-dasharray:none;stroke-dashoffset:0;stroke-opacity:1;paint-order:markers fill stroke" />
    <path
       style="opacity:1;fill:#4dd0e1;fill-opacity:1;stroke:#000000;stroke-width:0.57031864;stroke-linecap:round;stroke-linejoin:round;stroke-miterlimit:4;stroke-dasharray:none;stroke-dashoffset:0;stroke-opacity:1;paint-order:markers fill stroke"
       d="m 20.729852,143.15686 -1.627332,6.20198 c 1.757371,2.82116 3.053306,1.70982 3.84521,0.41116 -0.88244,-3.49677 -1.575419,-4.84093 -2.217878,-6.61314 z"
       id="path930"
       inkscape:connector-curvature="0"
       sodipodi:nodetypes="cccc" />
    <path
       style="opacity:1;fill:#4dd0e1;fill-opacity:1;stroke:#fafafa;stroke-width:0.57031864;stroke-linecap:round;stroke-linejoin:round;stroke-miterlimit:4;stroke-dasharray:none;stroke-dashoffset:0;stroke-opacity:1;paint-order:markers fill stroke"
       d="m 20.43872,147.23749 c -0.0335,0.44714 -0.301542,1.54782 -0.301542,1.7542 0,0.20638 0.0335,0.37835 0.0335,0.37835"
       id="path932"
       inkscape:connector-curvature="0" />
  </g>
  <g
     inkscape:groupmode="layer"
     id="layer4"
     inkscape:label="Layer 4"
     style="display:none" />
  <g
     inkscape:groupmode="layer"
     id="layer5"
     inkscape:label="Layer 5">
    <text
       xml:space="preserve"
       style="font-style:normal;font-variant:normal;font-weight:bold;font-stretch:normal;font-size:13.75985146px;line-height:1.25;font-family:'Comic Sans MS';-inkscape-font-specification:'Comic Sans MS Bold';letter-spacing:0px;word-spacing:0px;fill:#000000;fill-opacity:1;stroke:none;stroke-width:0.34399629"
       x="3.7726173"
       y="16.858238"
       id="text937"><tspan
         sodipodi:role="line"
         id="tspan935"
         x="3.7726173"
         y="16.858238"
         style="font-style:normal;font-variant:normal;font-weight:bold;font-stretch:normal;font-family:'Copperplate Gothic Light';-inkscape-font-specification:'Copperplate Gothic Light,  Bold';stroke-width:0.34399629">Dirgrahayu</tspan></text>
    <text
       id="text941"
       y="30.707108"
       x="3.7726173"
       style="font-style:normal;font-variant:normal;font-weight:bold;font-stretch:normal;font-size:13.75985146px;line-height:1.25;font-family:'Comic Sans MS';-inkscape-font-specification:'Comic Sans MS Bold';letter-spacing:0px;word-spacing:0px;fill:#000000;fill-opacity:1;stroke:none;stroke-width:0.34399629"
       xml:space="preserve"><tspan
         style="font-style:normal;font-variant:normal;font-weight:bold;font-stretch:normal;font-family:'Copperplate Gothic Light';-inkscape-font-specification:'Copperplate Gothic Light,  Bold';stroke-width:0.34399629"
         y="30.707108"
         x="3.7726173"
         id="tspan939"
         sodipodi:role="line">Indonesiaku</tspan></text>
    <text
       xml:space="preserve"
       style="font-style:normal;font-variant:normal;font-weight:bold;font-stretch:normal;font-size:17.52371788px;line-height:1.25;font-family:'Comic Sans MS';-inkscape-font-specification:'Comic Sans MS Bold';letter-spacing:0px;word-spacing:0px;fill:#000000;fill-opacity:1;stroke:none;stroke-width:0.43809295"
       x="3.271426"
       y="47.965267"
       id="text945"><tspan
         sodipodi:role="line"
         id="tspan943"
         x="3.271426"
         y="63.191086"
         style="font-style:normal;font-variant:normal;font-weight:bold;font-stretch:normal;font-family:'Copperplate Gothic Light';-inkscape-font-specification:'Copperplate Gothic Light,  Bold';stroke-width:0.43809295" /></text>
    <g
       id="g1016"
       transform="matrix(0.78551007,0,0,0.78551007,18.298416,1.0904517)">
      <path
         inkscape:connector-curvature="0"
         style="font-style:normal;font-variant:normal;font-weight:bold;font-stretch:normal;font-size:66.06983948px;line-height:1.25;font-family:'Comic Sans MS';-inkscape-font-specification:'Comic Sans MS Bold';letter-spacing:0px;word-spacing:0px;fill:#000000;fill-opacity:1;stroke:none;stroke-width:1.58366919"
         d="m 96.803919,3.5985921 c -0.253388,-0.04224 -0.40121,-0.02105 -0.443441,0.06342 L 93.510062,15.064163 c -0.04224,0.08446 -0.02105,0.169217 0.06342,0.253679 0.126694,0.04224 0.25333,0.06342 0.380022,0.06342 0.126694,0 0.232141,-0.04238 0.316603,-0.126839 0.380082,-1.435859 0.950189,-2.428249 1.710349,-2.977254 0.802392,-0.549004 2.364888,-0.908218 4.687604,-1.077141 2.32271,-0.168925 6.48247,-0.253186 12.47929,-0.253186 0.33786,0 0.42261,0.147825 0.25368,0.443444 l -1.16781,2.511022 c 0.71026,-0.0039 1.87109,-0.0029 2.40598,-0.0089 l 2.81573,-7.6965639 c 0.0845,-0.168925 0.0421,-0.337939 -0.12683,-0.506863 -0.1267,-0.211157 -0.27452,-0.316603 -0.44344,-0.316603 h -16.78688 c -1.224708,0 -2.048084,-0.06356 -2.470396,-0.19026 -0.380082,-0.126692 -0.569787,-0.401151 -0.569787,-0.823463 0,-0.253386 0.02069,-0.46428 0.06292,-0.633204 0.04224,-0.08446 -0.06321,-0.126839 -0.316603,-0.126839 z"
         id="path986" />
      <path
         inkscape:connector-curvature="0"
         style="font-style:normal;font-variant:normal;font-weight:bold;font-stretch:normal;font-size:66.06983948px;line-height:1.25;font-family:'Comic Sans MS';-inkscape-font-specification:'Comic Sans MS Bold';letter-spacing:0px;word-spacing:0px;fill:#000000;fill-opacity:1;stroke:none;stroke-width:1.58366919"
         d="m 109.30257,27.318514 c -0.11535,-0.0956 -0.20278,-0.215243 -0.32353,-0.306197 -0.58004,-0.436875 -1.22224,-0.820363 -1.92687,-1.149978 -0.25809,-0.120728 -0.56798,-0.196884 -0.84279,-0.303225 l -9.056124,19.470323 c -0.04224,0.08446 -0.02105,0.168721 0.06342,0.253182 0.08446,0.126695 0.189909,0.19026 0.316604,0.19026 h 0.06342 l 5.19446,-2.470888 c 0.59124,-0.25339 1.03471,-0.759933 1.33033,-1.520091 z"
         id="path992" />
      <text
         transform="rotate(6.8802892)"
         xml:space="preserve"
         style="font-style:normal;font-variant:normal;font-weight:bold;font-stretch:normal;font-size:63.34676743px;line-height:1.25;font-family:'Comic Sans MS';-inkscape-font-specification:'Comic Sans MS Bold';letter-spacing:0px;word-spacing:0px;fill:#000000;fill-opacity:1;stroke:none;stroke-width:1.58366919"
         x="99.848427"
         y="23.531712"
         id="text990"><tspan
           sodipodi:role="line"
           id="tspan988"
           x="99.848427"
           y="23.531712"
           style="font-style:normal;font-variant:normal;font-weight:bold;font-stretch:normal;font-family:'Cormorant Garamond';-inkscape-font-specification:'Cormorant Garamond Bold';fill:#000000;stroke-width:1.58366919">5</tspan></text>
      <path
         inkscape:connector-curvature="0"
         style="font-style:normal;font-variant:normal;font-weight:bold;font-stretch:normal;font-size:66.06983948px;line-height:1.25;font-family:'Comic Sans MS';-inkscape-font-specification:'Comic Sans MS Bold';letter-spacing:0px;word-spacing:0px;fill:#000000;fill-opacity:1;stroke:none;stroke-width:1.58366919"
         d="m 112.72872,17.952723 -2.84992,-0.283406 -2.71812,5.844019 c 0.16778,0.03756 0.36995,0.0583 0.53411,0.09761 0.9705,0.232403 1.82207,0.521926 2.6656,0.815539 z"
         id="path994" />
      <path
         inkscape:connector-curvature="0"
         id="path980"
         d="m 111.38636,27.680912 c -0.11536,-0.0956 -0.20278,-0.215244 -0.32354,-0.306198 -0.58003,-0.436875 -1.22223,-0.820363 -1.92686,-1.149977 -0.25809,-0.120728 -0.56798,-0.196885 -0.84279,-0.303225 l -9.056127,19.470322 c -0.04222,0.08446 -0.02104,0.168721 0.06342,0.253182 0.08446,0.126699 0.189909,0.190264 0.316603,0.190264 h 0.06342 l 5.194464,-2.470895 c 0.59124,-0.253383 1.03471,-0.759926 1.33032,-1.520087 z"
         style="font-style:normal;font-variant:normal;font-weight:bold;font-stretch:normal;font-size:66.06983948px;line-height:1.25;font-family:'Comic Sans MS';-inkscape-font-specification:'Comic Sans MS Bold';letter-spacing:0px;word-spacing:0px;fill:#d50000;fill-opacity:1;stroke:none;stroke-width:1.58366919" />
      <text
         transform="rotate(6.8802892)"
         xml:space="preserve"
         style="font-style:normal;font-variant:normal;font-weight:bold;font-stretch:normal;font-size:63.34676743px;line-height:1.25;font-family:'Comic Sans MS';-inkscape-font-specification:'Comic Sans MS Bold';letter-spacing:0px;word-spacing:0px;fill:#fafafa;fill-opacity:1;stroke:none;stroke-width:1.58366919"
         x="102.08465"
         y="22.812374"
         id="text957"><tspan
           sodipodi:role="line"
           id="tspan955"
           x="102.08465"
           y="22.812374"
           style="font-style:normal;font-variant:normal;font-weight:bold;font-stretch:normal;font-family:'Cormorant Garamond';-inkscape-font-specification:'Cormorant Garamond Bold';fill:#fafafa;stroke-width:1.58366919">5</tspan></text>
      <path
         inkscape:connector-curvature="0"
         id="path978"
         d="m 112.44418,24.788878 c -0.84354,-0.293613 -1.6951,-0.583136 -2.6656,-0.815539 -0.16416,-0.0393 -0.36633,-0.06005 -0.53412,-0.0976 l -0.95129,2.045777 c 0.27481,0.10634 0.5847,0.182497 0.84279,0.303225 0.70463,0.329614 1.34683,0.713102 1.92686,1.149977 0.12076,0.09095 0.20818,0.210594 0.32354,0.306198 z"
         style="font-style:normal;font-variant:normal;font-weight:bold;font-stretch:normal;font-size:66.06983948px;line-height:1.25;font-family:'Comic Sans MS';-inkscape-font-specification:'Comic Sans MS Bold';letter-spacing:0px;word-spacing:0px;fill:#000000;fill-opacity:1;stroke:none;stroke-width:1.58366919" />
      <path
         inkscape:connector-curvature="0"
         id="path976"
         d="m 114.81251,18.315122 -2.84992,-0.283407 -2.71813,5.84402 c 0.16779,0.03755 0.36996,0.0583 0.53412,0.0976 0.9705,0.232403 1.82206,0.521926 2.6656,0.815539 z"
         style="font-style:normal;font-variant:normal;font-weight:bold;font-stretch:normal;font-size:66.06983948px;line-height:1.25;font-family:'Comic Sans MS';-inkscape-font-specification:'Comic Sans MS Bold';letter-spacing:0px;word-spacing:0px;fill:#d50000;fill-opacity:1;stroke:none;stroke-width:1.58366919" />
      <path
         inkscape:connector-curvature="0"
         id="path974"
         d="m 116.94549,12.482992 c -0.5349,0.0061 -1.69573,0.005 -2.40598,0.0089 l -2.57692,5.539803 2.84992,0.283407 z"
         style="font-style:normal;font-variant:normal;font-weight:bold;font-stretch:normal;font-size:66.06983948px;line-height:1.25;font-family:'Comic Sans MS';-inkscape-font-specification:'Comic Sans MS Bold';letter-spacing:0px;word-spacing:0px;fill:#000000;fill-opacity:1;stroke:none;stroke-width:1.58366919" />
      <path
         inkscape:connector-curvature="0"
         id="text953"
         d="m 99.110204,2.1891951 c -0.253386,-0.04224 -0.40121,-0.02104 -0.44344,0.06342 L 95.816349,13.654768 c -0.04224,0.08446 -0.02104,0.169215 0.06342,0.253678 0.126693,0.04224 0.253329,0.06342 0.38002,0.06342 0.126695,0 0.232142,-0.04238 0.316605,-0.126839 0.380081,-1.435859 0.950188,-2.428249 1.710348,-2.977255 0.802392,-0.549003 2.364888,-0.9082169 4.687598,-1.0771419 2.32272,-0.168924 6.48248,-0.253183 12.4793,-0.253183 0.33785,0 0.4226,0.147823 0.25368,0.443442 l -1.16781,2.5110219 c 0.71025,-0.0039 1.87109,-0.0028 2.40598,-0.0089 l 2.81573,-7.6965629 c 0.0845,-0.168925 0.0421,-0.337938 -0.12684,-0.506863 -0.12669,-0.211156 -0.27451,-0.316604 -0.44344,-0.316604 h -16.78688 c -1.2247,0 -2.04808,-0.06356 -2.47039,-0.190258 -0.380081,-0.126693 -0.569787,-0.401152 -0.569787,-0.823464 0,-0.253386 0.02069,-0.46428 0.06292,-0.633204 0.04222,-0.08446 -0.06322,-0.126839 -0.316604,-0.126839 z"
         style="font-style:normal;font-variant:normal;font-weight:bold;font-stretch:normal;font-size:66.06983948px;line-height:1.25;font-family:'Comic Sans MS';-inkscape-font-specification:'Comic Sans MS Bold';letter-spacing:0px;word-spacing:0px;fill:#d50000;fill-opacity:1;stroke:none;stroke-width:1.58366919" />
      <text
         id="text984"
         y="22.812374"
         x="102.08465"
         style="font-style:normal;font-variant:normal;font-weight:bold;font-stretch:normal;font-size:63.34676743px;line-height:1.25;font-family:'Comic Sans MS';-inkscape-font-specification:'Comic Sans MS Bold';letter-spacing:0px;word-spacing:0px;fill:#fafafa;fill-opacity:1;stroke:none;stroke-width:1.58366919"
         xml:space="preserve"
         transform="rotate(6.8802892)"><tspan
           style="font-style:normal;font-variant:normal;font-weight:bold;font-stretch:normal;font-family:'Cormorant Garamond';-inkscape-font-specification:'Cormorant Garamond Bold';fill:#fafafa;stroke-width:1.58366919"
           y="22.812374"
           x="102.08465"
           id="tspan982"
           sodipodi:role="line">5</tspan></text>
    </g>
    <text
       xml:space="preserve"
       style="font-style:normal;font-variant:normal;font-weight:bold;font-stretch:normal;font-size:10.58333302px;line-height:1.25;font-family:'Comic Sans MS';-inkscape-font-specification:'Comic Sans MS Bold';letter-spacing:0px;word-spacing:0px;fill:#000000;fill-opacity:1;stroke:none;stroke-width:0.26458332"
       x="64.633926"
       y="53.294643"
       id="text998"><tspan
         sodipodi:role="line"
         id="tspan996"
         x="64.633926"
         y="62.490177"
         style="stroke-width:0.26458332" /></text>
  </g>
</svg>
