<svg id="Layer_1" data-name="Layer 1" xmlns="http://www.w3.org/2000/svg" xmlns:xlink="http://www.w3.org/1999/xlink" viewBox="0 0 1000 1000"><defs><style>.cls-1{fill:#0a1624;}.cls-2{fill:url(#linear-gradient);}.cls-3{font-size:72px;fill:#e4c46c;font-family:RobagaRoundedBlack, Robaga Rounded Black;}.cls-4{letter-spacing:-0.03em;}.cls-5{letter-spacing:-0.02em;}.cls-6{letter-spacing:0.03em;}.cls-7{letter-spacing:-0.03em;}.cls-8{fill:url(#linear-gradient-2);}</style><linearGradient id="linear-gradient" x1="494.33" y1="-83.8" x2="494.33" y2="932.15" gradientUnits="userSpaceOnUse"><stop offset="0.18" stop-color="#e4c46c"/><stop offset="0.67" stop-color="#ad793f"/><stop offset="1" stop-color="#0a1624"/></linearGradient><linearGradient id="linear-gradient-2" x1="376.6" y1="308.87" x2="376.6" y2="397.35" gradientTransform="translate(-148.05 373.31) rotate(-45)" gradientUnits="userSpaceOnUse"><stop offset="0" stop-color="#e4c46c"/><stop offset="0.49" stop-color="#ad793f"/><stop offset="1" stop-color="#0a1624"/></linearGradient></defs><title>Artboard 1</title><rect class="cls-1" width="1000" height="1000"/><path class="cls-2" d="M905.57,597.74C861.58,780.89,696.75,917,500.1,917c-230.3,0-417-186.7-417-417S269.8,83,500.1,83a420.53,420.53,0,0,1,55.53,3.67c-169,24.11-298.7,164.25-298.7,333.54,0,80.57,29.38,154.54,78.38,212.53V591.3c3.77-2.64,6.25-6,5.77-11.28-.11-1.22-1.14-3.42,1.65-3.38,2.64,0,1.93,2.15,1.75,3.43-.77,5.65,2.23,9.28,6.46,12,3,2,4.17,4.42,3.72,7.78-.39,2.83.89,5.66-1.32,8.6-1.4,1.86-.22,5.08,1.49,7.3a29.78,29.78,0,0,0-2.06,13.77c.12,1.39,0,2.8.67,4.15.08-3.27,0-6.56.11-9.84.07-3,.64-5.82,2.8-8.1a43.31,43.31,0,0,1,14.22-12.6,3.22,3.22,0,0,0,2.07-2.94c0-.55-.08-1.38.23-1.63,4.16-3.41,3.85-8.56,5.2-13,.91-3,.17-6.17.43-9.24.12-1.39-.74-3.53,1.83-3.44s1.54,2.25,1.61,3.58c.27,5.35.39,10.7.59,16a1.1,1.1,0,0,0,.33.74c5,3.95,6,10.94,12.53,14.26,4.59,2.33,6.5.08,9.42-1.46a1.45,1.45,0,0,0,.73-1.8c-1.2-4.59-.34-9.26-.52-13.89-.6-15.58,6.24-27.67,17.72-37.6a140.3,140.3,0,0,1,22.68-16.44c1.24-.7,3.14-1.29,2.76-3.27-1.62-8.6,4-13.07,9.9-17.24,1.48-1,1.48-2.62,1-3.21-2.42-2.84-.34-5.1.58-7.53.13-.36.85-.65.81-.9-1.49-9.89,1.75-19.65.79-29.51-.17-1.64.13-3.07-2-4.1-7-3.38-10.63-10.63-9-16.9,2.07-7.78,8.37-12,18-11.62-3.66,1.94-7.67,2.57-9.39,6.35-1.64,3.62-2.26,7.36-.33,11,3.87,7.37,10.17,8.56,19.76,3.94a10.86,10.86,0,0,1-9.25,8.12c-2.93.37-3.38,1.7-3.28,4.16.24,6.43-.75,13.16.85,19.22,1.2,4.54-1.36,9.69,2.45,13.61a1.66,1.66,0,0,1,.11,1.58c-3.87,4.58.47,6.62,3.05,8.47,4.45,3.2,7.28,6.83,6.48,12.55-.38,2.74,1,4.32,3.26,5.66,11.27,6.56,21.95,14,30.19,24.23,6,7.48,10,16,9.8,25.89-.09,5.77.55,11.54-.41,17.31-.52,3,2.8,3.06,4.24,4.55a2.34,2.34,0,0,0,3.35.45c2.84-2.2,5.86-4.16,8.74-6.29.8-.6,1.73-.94,1.68-2.53-.09-2.35,1.19-4.14,3.16-5.87,2.27-2,2.1-5.5,2.27-8.47.22-3.53,0-7.08,0-10.61,0-1.35,0-2.65,1.92-2.52,1.64.11,1.73,1.36,1.54,2.46-1,5.79,1.75,11.28,1.25,17a2.4,2.4,0,0,0,1.36,2.41,6,6,0,0,1,3.27,5.5,3.27,3.27,0,0,0,2.07,2.94,43.16,43.16,0,0,1,14.21,12.6c2.65,2.77,2.83,6.26,2.83,9.79,0,2.66,0,5.31-.23,8.49a23.55,23.55,0,0,0-.75-15.84,2.79,2.79,0,0,1-.32-2.41c1.59-3.18,3.47-6.2,0-9.59-1.6-1.53.9-11.92,2.94-13.3,4.88-3.31,8.43-7.21,7.41-13.7-.21-1.28-.13-2.57,1.81-2.59s1.84,1.38,1.69,2.61c-.78,5.81,1.93,9.76,6.59,12.75,2.61-3.21,2.12-7,2.49-10.62.29-3-3-4-2.86-6.06s3.28-3.16,2.78-6.08c-1.2-7,2.83-10.84,8.1-14.73a16,16,0,0,0,6.28-12.28,7.85,7.85,0,0,1,0-2.11c.5-1.53-1.43-4.37,1.3-4.45,2.17-.07,2.44,2.55,2.15,4.56-1.28,8.82,4.63,13.69,10.32,18.58a11.52,11.52,0,0,1,4.13,9.56c0,2.1-.32,4.24,1.49,5.94a1.93,1.93,0,0,1,.27,2.39c-3,4.57-2.29,9.1-.27,13.81,1.18,2.74-1.21,4.4-3,5.48a2.6,2.6,0,0,0-1.45,2.55c-1.24,11.58,2.26,22.94,1.5,34.52-.1,1.46,1.13,2.39,2.21,3.37,2.3,2.11,1.73,4.83-.48,6.08-1.75,1-1.78,1.82-1.87,3.39-.29,4.63-.75,9.24-1.29,13.86a12.48,12.48,0,0,0,.57,6.3c1.81-.07,2.53-1.63,3.55-2.64,11.74-11.67,23.39-23.42,35.17-35a9.12,9.12,0,0,0,2.81-6.62q1-18.94,3-37.84c1.93,3.12,1.58,6.79,1.71,10,.42,9.69,2,19.28,1.89,29a7.92,7.92,0,0,0,2.66,6.26q24.25,24,48.33,48.26c9.64,9.66,13.29,21.08,11.24,34.73a186.56,186.56,0,0,1-4,18.72,21.43,21.43,0,0,0-.53,5.23q5.21-1.86,10.32-3.91V632.44c0-7.22-.69-8.2-7.37-11-3.54-1.49-1.56-4.63-1.9-7-.37-2.59,1.79-1.83,3.2-2s3-.63,4.5-.82c2.61-.31,3.34-1.71,3.32-4.28-.12-13-.06-26-.06-39,0-24.89-.11-49.78.08-74.67,0-5.9-1.36-7.4-6.92-8.43-4.94-.91-1.72-4.45-2.41-6.67s.82-3,2.9-2.74c.83.08,1.7,0,2.54,0,3.25.18,4.87-1,4.73-4.59-.24-6.21-.2-12.45,0-18.67.09-2.6-.59-4.12-3.13-5.06a65.25,65.25,0,0,1-7-3.57c.19-.47.26-.9.39-.92,5.44-.82,9.64-1.75,9.23-9.44-.34-6.26,4-12,9.45-15,5.87-3.23,6.82-7.91,7.16-13.51.18-2.93.67-5.84.81-8.76.08-1.63,1.48-1.75,2.33-3,1,6.5,2,12.57,1.94,18.74,0,1.26,0,2.26,1.48,3.07,9.21,5.06,14.7,12.68,15.51,23.34.23,3,3.08,2.34,4.74,3.26,1.38.75,4.07.7,4.18,1.92.19,2.1-2.5,2.33-4,3-6.57,2.91-6.6,2.82-6.6,10,0,4.38,0,8.76,0,13.15,0,5.21,1.64,6.81,6.69,7,1.41.07,3.61-1,4.09,1a15.07,15.07,0,0,1,0,6.71c-.31,1.39-2.22.7-3.42.77-4.48.22-5.92,2.07-5,6.38a21.16,21.16,0,0,1,.23,4.2q0,54.73,0,109.46c0,5.69.55,6.29,6.2,6.42,1.71,0,3.91-.12,4.48,1.53a15.25,15.25,0,0,1,.09,7.93c-.24,1.18-1.71.55-2.61.75-4.75,1-5.58,2.31-4.84,7a25.7,25.7,0,0,1,.07,3.82q0,38.94,0,77.89A346,346,0,0,0,905.57,597.74Z"/><text class="cls-3" transform="translate(554.34 177)"><tspan class="cls-4">H</tspan><tspan class="cls-5" x="54.88" y="0">A</tspan><tspan x="101.67" y="0">PPY</tspan><tspan x="0" y="86.4">E</tspan><tspan class="cls-6" x="45.6" y="86.4">I</tspan><tspan x="76.96" y="86.4">D</tspan><tspan x="0" y="172.8">MUB</tspan><tspan class="cls-5" x="170.12" y="172.8">A</tspan><tspan x="216.91" y="172.8">R</tspan><tspan class="cls-7" x="266.41" y="172.8">A</tspan><tspan x="313.1" y="172.8">K</tspan></text><rect class="cls-8" x="350.6" y="339.37" width="52" height="52" rx="8.4" ry="8.4" transform="translate(368.66 -159.28) rotate(45)"/></svg>