<?xml version="1.0" encoding="UTF-8" standalone="no"?>
<!-- Created with Inkscape (http://www.inkscape.org/) -->

<svg
   xmlns:dc="http://purl.org/dc/elements/1.1/"
   xmlns:cc="http://creativecommons.org/ns#"
   xmlns:rdf="http://www.w3.org/1999/02/22-rdf-syntax-ns#"
   xmlns:svg="http://www.w3.org/2000/svg"
   xmlns="http://www.w3.org/2000/svg"
   xmlns:xlink="http://www.w3.org/1999/xlink"
   xmlns:sodipodi="http://sodipodi.sourceforge.net/DTD/sodipodi-0.dtd"
   xmlns:inkscape="http://www.inkscape.org/namespaces/inkscape"
   width="800"
   height="800"
   viewBox="0 0 211.66666 211.66667"
   version="1.1"
   id="svg8"
   inkscape:version="0.92.3 (2405546, 2018-03-11)"
   sodipodi:docname="deadbu9-do-it-yourself.svg"
   inkscape:export-filename="C:\Users\Zulf\Pictures\NGIKSCAPE\random 2020\deadbu9-do-it-yourself.png"
   inkscape:export-xdpi="96"
   inkscape:export-ydpi="96">
  <defs
     id="defs2">
    <filter
       style="color-interpolation-filters:sRGB;"
       inkscape:label="Drop Shadow"
       id="filter1360">
      <feFlood
         flood-opacity="0.498039"
         flood-color="rgb(165,97,97)"
         result="flood"
         id="feFlood1350" />
      <feComposite
         in="flood"
         in2="SourceGraphic"
         operator="out"
         result="composite1"
         id="feComposite1352" />
      <feGaussianBlur
         in="composite1"
         stdDeviation="1"
         result="blur"
         id="feGaussianBlur1354" />
      <feOffset
         dx="-1.6"
         dy="2.6"
         result="offset"
         id="feOffset1356" />
      <feComposite
         in="offset"
         in2="SourceGraphic"
         operator="atop"
         result="fbSourceGraphic"
         id="feComposite1358" />
      <feColorMatrix
         result="fbSourceGraphicAlpha"
         in="fbSourceGraphic"
         values="0 0 0 -1 0 0 0 0 -1 0 0 0 0 -1 0 0 0 0 1 0"
         id="feColorMatrix1362" />
      <feFlood
         id="feFlood1364"
         flood-opacity="0.498039"
         flood-color="rgb(165,97,97)"
         result="flood"
         in="fbSourceGraphic" />
      <feComposite
         in2="fbSourceGraphic"
         id="feComposite1366"
         in="flood"
         operator="out"
         result="composite1" />
      <feGaussianBlur
         id="feGaussianBlur1368"
         in="composite1"
         stdDeviation="1"
         result="blur" />
      <feOffset
         id="feOffset1370"
         dx="-1.6"
         dy="2.6"
         result="offset" />
      <feComposite
         in2="fbSourceGraphic"
         id="feComposite1372"
         in="offset"
         operator="atop"
         result="composite2" />
    </filter>
    <filter
       inkscape:collect="always"
       style="color-interpolation-filters:sRGB"
       id="filter1474"
       x="-0.014734888"
       width="1.0294698"
       y="-0.064652983"
       height="1.129306">
      <feGaussianBlur
         inkscape:collect="always"
         stdDeviation="0.4863046"
         id="feGaussianBlur1476" />
    </filter>
    <filter
       inkscape:collect="always"
       style="color-interpolation-filters:sRGB"
       id="filter1486"
       x="-0.0072446752"
       width="1.0144894"
       y="-0.034923207"
       height="1.0698464">
      <feGaussianBlur
         inkscape:collect="always"
         stdDeviation="0.33234205"
         id="feGaussianBlur1488" />
    </filter>
    <filter
       inkscape:collect="always"
       style="color-interpolation-filters:sRGB"
       id="filter1576"
       x="-0.023738614"
       width="1.0474772"
       y="-0.02685312"
       height="1.0537062">
      <feGaussianBlur
         inkscape:collect="always"
         stdDeviation="0.21612326"
         id="feGaussianBlur1578" />
    </filter>
    <filter
       inkscape:collect="always"
       style="color-interpolation-filters:sRGB"
       id="filter1604"
       x="-0.012637333"
       width="1.0252747"
       y="-4.2650926"
       height="9.5301851">
      <feGaussianBlur
         inkscape:collect="always"
         stdDeviation="0.42219678"
         id="feGaussianBlur1606" />
    </filter>
    <filter
       inkscape:collect="always"
       style="color-interpolation-filters:sRGB"
       id="filter1632"
       x="-0.0065816083"
       width="1.0131632"
       y="-0.067897326"
       height="1.1357947">
      <feGaussianBlur
         inkscape:collect="always"
         stdDeviation="0.14931398"
         id="feGaussianBlur1634" />
    </filter>
    <filter
       inkscape:collect="always"
       style="color-interpolation-filters:sRGB"
       id="filter1652"
       x="-0.015198976"
       width="1.030398"
       y="-0.057014405"
       height="1.1140288">
      <feGaussianBlur
         inkscape:collect="always"
         stdDeviation="0.42682062"
         id="feGaussianBlur1654" />
    </filter>
  </defs>
  <sodipodi:namedview
     id="base"
     pagecolor="#ffffff"
     bordercolor="#666666"
     borderopacity="1.0"
     inkscape:pageopacity="0.0"
     inkscape:pageshadow="2"
     inkscape:zoom="0.5"
     inkscape:cx="560.64175"
     inkscape:cy="486.09027"
     inkscape:document-units="px"
     inkscape:current-layer="layer1"
     showgrid="false"
     units="px"
     inkscape:snap-page="true"
     inkscape:window-width="1366"
     inkscape:window-height="745"
     inkscape:window-x="-8"
     inkscape:window-y="-8"
     inkscape:window-maximized="1"
     inkscape:snap-global="false" />
  <metadata
     id="metadata5">
    <rdf:RDF>
      <cc:Work
         rdf:about="">
        <dc:format>image/svg+xml</dc:format>
        <dc:type
           rdf:resource="http://purl.org/dc/dcmitype/StillImage" />
        <dc:title></dc:title>
      </cc:Work>
    </rdf:RDF>
  </metadata>
  <g
     inkscape:label="Layer 1"
     inkscape:groupmode="layer"
     id="layer1"
     transform="translate(0,-85.333316)">
    <rect
       style="opacity:0.92;fill:#5a9d2d;fill-opacity:1;stroke:none;stroke-width:0.52916664;stroke-linecap:round;stroke-linejoin:round;stroke-miterlimit:4;stroke-dasharray:none;stroke-dashoffset:0;stroke-opacity:1;paint-order:markers fill stroke"
       id="rect815"
       width="211.66666"
       height="211.66666"
       x="0"
       y="85.333313" />
    <path
       sodipodi:type="star"
       style="opacity:0.68300003;fill:none;fill-opacity:1;stroke:#ffee58;stroke-width:0.70615101;stroke-linecap:round;stroke-linejoin:round;stroke-miterlimit:4;stroke-dasharray:none;stroke-dashoffset:0;stroke-opacity:1;paint-order:markers fill stroke"
       id="path1745"
       sodipodi:sides="5"
       sodipodi:cx="0.14522912"
       sodipodi:cy="107.78799"
       sodipodi:r1="53.024368"
       sodipodi:r2="42.897621"
       sodipodi:arg1="0.52359878"
       sodipodi:arg2="1.1519173"
       inkscape:flatsided="true"
       inkscape:rounded="0"
       inkscape:randomized="0"
       d="m 46.065679,134.30017 -56.944836,25.35348 -41.709509,-46.32311 31.166942,-53.982724 60.971738,12.959943 z"
       inkscape:transform-center-x="3.4067179"
       inkscape:transform-center-y="1.7127416" />
    <path
       style="opacity:0.60399996;fill:none;fill-opacity:1;stroke:#ffd740;stroke-width:1.32291666;stroke-linecap:round;stroke-linejoin:round;stroke-miterlimit:4;stroke-dasharray:none;stroke-dashoffset:0;stroke-opacity:1;paint-order:markers fill stroke"
       id="path1662"
       sodipodi:type="arc"
       sodipodi:cx="207.87402"
       sodipodi:cy="284.02072"
       sodipodi:rx="70.106453"
       sodipodi:ry="70.106453"
       sodipodi:start="1.5440928"
       sodipodi:end="1.5391413"
       sodipodi:open="true"
       d="m 209.74589,354.10218 a 70.106453,70.106453 0 0 1 -71.95095,-68.12284 70.106453,70.106453 0 0 1 68.03372,-72.03523 70.106453,70.106453 0 0 1 72.11939,67.9445 70.106453,70.106453 0 0 1 -67.85518,72.20344" />
    <path
       style="opacity:1;fill:#4dd0e1;fill-opacity:1;stroke:none;stroke-width:1.35874891;stroke-linecap:round;stroke-linejoin:round;stroke-miterlimit:4;stroke-dasharray:none;stroke-dashoffset:0;stroke-opacity:1;paint-order:markers fill stroke"
       d="M 80.392578 1441.4727 C 80.005101 1441.4727 79.653619 1441.6311 79.398438 1441.8867 C 79.143256 1442.1424 78.984375 1442.4954 78.984375 1442.8828 C 78.984375 1443.2703 79.143256 1443.6218 79.398438 1443.877 C 79.653619 1444.1321 80.005101 1444.291 80.392578 1444.291 C 80.780055 1444.291 81.133002 1444.1321 81.388672 1443.877 C 81.644342 1443.6218 81.802734 1443.2703 81.802734 1442.8828 C 81.802734 1442.4954 81.644342 1442.1424 81.388672 1441.8867 C 81.133002 1441.6311 80.780055 1441.4727 80.392578 1441.4727 z "
       id="path1014"
       transform="matrix(0.26458333,0,0,0.26458333,0,85.333316)" />
    <path
       style="opacity:1;fill:#4dd0e1;fill-opacity:1;stroke:none;stroke-width:1.35874891;stroke-linecap:round;stroke-linejoin:round;stroke-miterlimit:4;stroke-dasharray:none;stroke-dashoffset:0;stroke-opacity:1;paint-order:markers fill stroke"
       d="M 95.394531 1416.6934 C 94.983983 1416.6699 94.575667 1416.7576 94.199219 1416.9902 C 93.89011 1417.1813 93.60827 1417.6635 93.404297 1418.2852 C 93.200324 1418.9068 93.074219 1419.6678 93.074219 1420.4199 C 93.074219 1421.2441 93.322563 1421.8857 93.712891 1422.334 C 94.103219 1422.7823 94.635687 1423.0368 95.207031 1423.0898 C 95.778376 1423.1428 96.388591 1422.9946 96.931641 1422.6328 C 97.47469 1422.2711 97.950417 1421.6963 98.255859 1420.9004 C 98.436549 1420.4295 98.458664 1419.9376 98.363281 1419.4629 C 98.267899 1418.9881 98.05532 1418.5307 97.763672 1418.1289 C 97.472024 1417.7271 97.101467 1417.3809 96.693359 1417.1289 C 96.285252 1416.8769 95.839292 1416.7188 95.394531 1416.6934 z "
       id="path1008"
       transform="matrix(0.26458333,0,0,0.26458333,0,85.333316)" />
    <path
       style="opacity:1;fill:#4dd0e1;fill-opacity:1;stroke:none;stroke-width:1.35874891;stroke-linecap:round;stroke-linejoin:round;stroke-miterlimit:4;stroke-dasharray:none;stroke-dashoffset:0;stroke-opacity:1;paint-order:markers fill stroke"
       d="M 95.394531 1416.6934 C 95.839292 1416.7188 96.285252 1416.8769 96.693359 1417.1289 C 97.101467 1417.3809 97.472024 1417.7271 97.763672 1418.1289 C 98.05532 1418.5307 98.267899 1418.9881 98.363281 1419.4629 C 98.458664 1419.9376 98.436549 1420.4295 98.255859 1420.9004 C 97.950417 1421.6963 97.47469 1422.2711 96.931641 1422.6328 C 96.388591 1422.9946 95.778376 1423.1428 95.207031 1423.0898 C 94.635687 1423.0368 94.103219 1422.7823 93.712891 1422.334 C 93.322563 1421.8857 93.074219 1421.2441 93.074219 1420.4199 C 93.074219 1419.6678 93.200324 1418.9068 93.404297 1418.2852 C 93.60827 1417.6635 93.89011 1417.1813 94.199219 1416.9902 C 94.575667 1416.7576 94.983983 1416.6699 95.394531 1416.6934 z "
       id="path1006"
       transform="matrix(0.26458333,0,0,0.26458333,0,85.333316)" />
    <path
       d="m 206.00288,330.62837 a 48.83252,48.83252 0 0 1 -50.1173,-47.45084 48.83252,48.83252 0 0 1 47.38876,-50.176 48.83252,48.83252 0 0 1 50.23463,47.32662 48.83252,48.83252 0 0 1 -47.2644,50.29317"
       sodipodi:open="true"
       sodipodi:end="1.5391413"
       sodipodi:start="1.5440928"
       sodipodi:ry="48.83252"
       sodipodi:rx="48.83252"
       sodipodi:cy="281.81326"
       sodipodi:cx="204.69904"
       sodipodi:type="arc"
       id="path1732"
       style="opacity:0.60399996;fill:none;fill-opacity:1;stroke:#ffd740;stroke-width:1.18858707;stroke-linecap:round;stroke-linejoin:round;stroke-miterlimit:4;stroke-dasharray:none;stroke-dashoffset:0;stroke-opacity:1;paint-order:markers fill stroke" />
    <text
       xml:space="preserve"
       style="font-style:normal;font-variant:normal;font-weight:bold;font-stretch:normal;font-size:20.77894211px;line-height:1.25;font-family:'Comic Sans MS';-inkscape-font-specification:'Comic Sans MS Bold';letter-spacing:0px;word-spacing:0px;opacity:0.68300003;fill:#ffee58;fill-opacity:1;stroke:none;stroke-width:0.51947355"
       id="text1736"
       inkscape:transform-center-x="-6.1997261"
       inkscape:transform-center-y="-11.707491"
       transform="rotate(61.858289,209.18625,281.86128)"><textPath
         xlink:href="#path1738"
         id="textPath1740"
         style="font-style:normal;font-variant:normal;font-weight:normal;font-stretch:normal;font-size:14.11111069px;font-family:DS_Aqua-1;-inkscape-font-specification:DS_Aqua-1">deadbugs does stuff</textPath></text>
    <path
       style="opacity:1;fill:#f0f4c3;fill-opacity:1;stroke:none;stroke-width:0.65819377;stroke-linecap:round;stroke-linejoin:round;stroke-miterlimit:4;stroke-dasharray:none;stroke-dashoffset:0;stroke-opacity:1;paint-order:markers fill stroke;filter:url(#filter1360)"
       d="m 38.458664,108.53725 c -1.024012,-0.0146 -1.54302,0.046 -1.766402,0.23746 -0.111681,0.0958 -0.149214,0.22463 -0.139144,0.39169 0.0092,0.16716 0.06774,0.373 0.147566,0.62447 0.07909,0.24941 0.112414,0.49753 0.09649,0.75121 -0.01648,0.2537 -0.08147,0.51286 -0.198684,0.78529 -0.23444,0.54482 -0.677303,1.14161 -1.353893,1.84775 -0.432647,0.45161 -0.793617,0.8013 -1.157095,1.07194 -0.363497,0.27069 -0.729941,0.46188 -1.173189,0.597 -0.44323,0.13512 -0.96297,0.21439 -1.634891,0.25925 -0.671903,0.0448 -1.495546,0.0558 -2.545043,0.0558 -0.331529,0 -0.677248,0.10765 -1.028423,0.29709 -0.351193,0.18946 -0.707915,0.46048 -1.062496,0.78717 -0.709178,0.65341 -1.408836,1.52977 -2.034144,2.41925 -1.250652,1.77885 -2.203589,3.612 -2.338816,3.83083 l -11.362859,15.84266 c 0.08385,0.009 0.104175,0.15801 0.07946,0.35863 -0.02472,0.2005 -0.09484,0.45262 -0.192989,0.67172 -0.09813,0.2191 -0.224004,0.40498 -0.360476,0.47022 -0.136398,0.0652 -0.28325,0.011 -0.422925,-0.25072 -0.4398611,0.85469 -0.7853421,1.57021 -1.0558681,2.24326 -0.270508,0.67304 -0.465694,1.30364 -0.60645,1.9868 -0.140792,0.68322 -0.22664,1.41962 -0.277208,2.30475 -0.05053,0.88516 -0.06628,1.91894 -0.06628,3.19788 0,1.43817 0.0018,2.52567 0.05291,3.42024 0.05072,0.89452 0.150679,1.59648 0.343431,2.26216 0.192824,0.66568 0.479352,1.29492 0.905427,2.04645 0.426093,0.75145 0.9912201,1.62486 1.7418131,2.77683 0.884427,1.35746 1.70364,2.48667 2.498685,3.41641 0.795045,0.92978 1.566271,1.66042 2.35489,2.22152 0.78862,0.5611 1.594723,0.95196 2.459908,1.20347 0.865167,0.25145 1.789049,0.36335 2.813738,0.36423 0.708684,4.7e-4 1.372952,-0.0875 1.995367,-0.2687 0.622415,-0.18125 1.203379,-0.45555 1.743699,-0.8269 0.540319,-0.37139 1.039994,-0.83987 1.502429,-1.40974 0.462417,-0.56985 0.887577,-1.24129 1.276302,-2.01805 0.388726,-0.77675 0.741402,-1.65902 1.06061,-2.65099 0.31919,-0.99203 0.604234,-2.09387 0.858118,-3.30955 0.253884,-1.21568 0.476167,-2.54583 0.6689,-3.99353 0.192733,-1.44773 0.35621,-3.01314 0.491985,-4.70127 0.345866,-4.30008 0.632375,-7.01259 0.963154,-8.65033 0.165325,-0.81885 0.341764,-1.369 0.542114,-1.71439 0.100147,-0.17265 0.206977,-0.29442 0.320746,-0.37274 0.113695,-0.0784 0.234623,-0.11351 0.365199,-0.11351 0.177775,0 0.373786,0.2392 0.57712,0.67647 0.203352,0.43728 0.413936,1.07244 0.621609,1.86577 0.415327,1.58663 0.818095,3.80431 1.123041,6.32762 0.136582,1.12945 0.458261,2.43126 0.903542,3.72673 0.445262,1.29551 1.014051,2.58466 1.645291,3.68797 0.472633,0.82606 0.841237,1.51145 1.132507,2.17321 0.291251,0.6618 0.505149,1.30036 0.667014,2.03321 0.161847,0.73287 0.272302,1.55957 0.356667,2.59898 0.0844,1.03945 0.142623,2.29112 0.20154,3.87248 l 0.261115,7.01356 -2.503427,1.47687 c -0.913428,0.53894 -1.488625,0.95898 -1.766383,1.31323 -0.138961,0.17704 -0.203206,0.33744 -0.198702,0.48819 0.0037,0.15068 0.07818,0.29197 0.215729,0.42954 0.275121,0.27508 0.534516,0.40487 0.821226,0.38601 0.286711,-0.0189 0.600756,-0.18643 0.984905,-0.50524 0.342936,-0.28464 0.726663,-0.40612 1.098435,-0.40302 0.37179,0.004 0.731149,0.1309 1.026537,0.34533 0.295408,0.21441 0.526717,0.51533 0.640522,0.86473 0.113879,0.3494 0.110583,0.7472 -0.06243,1.15523 -0.126511,0.29839 -0.226951,1.23073 -0.286674,2.49303 -0.05968,1.26222 -0.07873,2.85438 -0.04266,4.47131 0.05273,2.35308 0.02911,3.88037 -0.122118,4.93305 -0.07561,0.52635 -0.183689,0.93361 -0.329241,1.26687 -0.145553,0.33324 -0.329077,0.5921 -0.557273,0.82026 -0.240079,0.24008 -0.423475,0.45046 -0.552532,0.65755 -0.129074,0.20712 -0.203718,0.41135 -0.227061,0.63675 -0.04669,0.45079 0.112597,0.98908 0.456961,1.82032 0.354598,0.85605 0.700097,1.5432 1.066285,2.0777 0.36617,0.5345 0.753375,0.91659 1.190215,1.16277 0.436841,0.24614 0.923571,0.35619 1.490127,0.34724 0.566556,-0.009 1.212588,-0.13713 1.967923,-0.36806 l 2.633051,-0.80515 -0.539295,-5.11848 c -0.296231,-2.81555 -0.572066,-8.34458 -0.614029,-12.28628 -0.02106,-1.97087 -0.0996,-3.9357 -0.209083,-5.51303 -0.109485,-1.57729 -0.250258,-2.76702 -0.395481,-3.18937 -0.150679,-0.43816 -0.338377,-0.78683 -0.535505,-1.03786 -0.197127,-0.25102 -0.403811,-0.40405 -0.591327,-0.45322 -0.187497,-0.0491 -0.35599,0.005 -0.477778,0.1732 -0.121751,0.16752 -0.196797,0.44711 -0.196797,0.84583 0,0.29262 -0.0769,0.51086 -0.20057,0.6273 -0.123582,0.11644 -0.293869,0.13109 -0.481586,0.0146 -0.18768,-0.11608 -0.358663,-0.40052 -0.482519,-0.76542 -0.123949,-0.36487 -0.20057,-0.81008 -0.20057,-1.24791 0,-0.28647 0.03076,-0.53721 0.0974,-0.75689 0.06664,-0.21972 0.169171,-0.40841 0.311281,-0.57146 0.284367,-0.32615 0.728805,-0.54916 1.368082,-0.7096 0.401542,-0.1007 0.710717,-0.19319 0.942319,-0.30843 0.23162,-0.11534 0.385485,-0.25355 0.476844,-0.44561 0.09136,-0.19207 0.12047,-0.43786 0.101246,-0.76921 -0.01922,-0.33133 -0.08642,-0.74803 -0.18638,-1.28102 -0.101429,-0.54056 -0.171001,-0.95854 -0.194894,-1.28107 -0.02398,-0.32248 -0.0018,-0.54985 0.07946,-0.70958 0.08202,-0.15965 0.22459,-0.2515 0.440886,-0.30372 0.216296,-0.0522 0.506522,-0.0643 0.885562,-0.0643 0.436328,0 0.820055,-0.0544 1.150487,-0.15324 0.330412,-0.0989 0.607694,-0.24255 0.831625,-0.42197 0.223931,-0.17943 0.394053,-0.39397 0.510916,-0.63578 0.116808,-0.24179 0.179973,-0.51072 0.189218,-0.79662 0.0092,-0.28591 -0.03533,-0.58891 -0.134384,-0.90073 -0.09905,-0.31175 -0.25284,-0.63233 -0.460769,-0.95176 -0.207929,-0.31947 -0.469795,-0.63822 -0.787154,-0.94708 -0.317378,-0.30886 -0.689973,-0.60746 -1.117366,-0.88743 -0.513571,-0.33653 -0.929357,-0.77566 -1.233735,-1.23187 -0.304378,-0.45621 -0.497752,-0.92915 -0.564835,-1.335 -0.06701,-0.40579 -0.0092,-0.74462 0.19017,-0.93001 0.09923,-0.0926 0.233195,-0.14665 0.403995,-0.15233 0.170818,-0.005 0.378491,0.0374 0.624429,0.14006 1.174488,0.48994 2.055144,0.85766 2.754143,1.10979 0.699018,0.25214 1.215994,0.38883 1.662336,0.41727 0.446324,0.0284 0.821996,-0.0516 1.238458,-0.23276 0.416463,-0.18107 0.87412,-0.46353 1.483517,-0.84016 0.481001,-0.29724 0.914033,-0.51522 1.297119,-0.66132 0.383086,-0.1461 0.716465,-0.22071 0.997207,-0.23087 0.280761,-0.011 0.509122,0.0447 0.68309,0.15508 0.17393,0.11058 0.292972,0.27695 0.355751,0.49293 0.0628,0.21606 0.06884,0.48093 0.01648,0.78718 -0.05291,0.30624 -0.163861,0.65381 -0.336821,1.03505 -0.345792,0.76251 -0.936496,1.66006 -1.789104,2.63116 -0.590558,0.67262 -1.037522,1.19558 -1.352941,1.62735 -0.315418,0.4317 -0.49929,0.77214 -0.563882,1.07853 -0.06463,0.3064 -0.0092,0.57956 0.152326,0.87612 0.161847,0.2966 0.430652,0.6167 0.794734,1.01896 0.416701,0.46047 0.644879,0.83618 0.697278,1.22996 0.05236,0.39378 -0.07085,0.80563 -0.355733,1.3378 -0.234312,0.43781 -0.399528,0.81061 -0.500499,1.11929 -0.10088,0.30861 -0.137313,0.55354 -0.116442,0.73605 0.02087,0.18254 0.0996,0.30204 0.230852,0.36143 0.131271,0.0593 0.314814,0.0579 0.54497,-0.004 0.460311,-0.12138 1.107241,-0.47981 1.894121,-1.06343 0.78688,-0.58358 1.713691,-1.39201 2.735212,-2.41353 1.877021,-1.877 3.554626,-3.41265 3.727715,-3.41265 0.114794,0 0.152509,0.4542 0.131455,1.20062 -0.02106,0.74644 -0.101246,1.78529 -0.224243,2.95565 -0.245937,2.34072 -0.661613,5.20645 -1.111672,7.30782 -0.205274,0.95836 -0.426642,1.7731 -0.643378,2.41542 -0.216735,0.64233 -0.428839,1.11196 -0.615915,1.37947 -0.09356,0.13383 -0.180888,0.21696 -0.25923,0.24597 -0.07836,0.0289 -0.148115,0.004 -0.206263,-0.0795 -0.116259,-0.16625 -0.186746,-0.56356 -0.191104,-1.22235 -0.0018,-0.43342 -0.07635,-0.93972 -0.193007,-1.40688 -0.116625,-0.46718 -0.276312,-0.89516 -0.450352,-1.17035 -0.145003,-0.22931 -0.288523,-0.36026 -0.428602,-0.39737 -0.140059,-0.0372 -0.276842,0.0194 -0.40967,0.1646 -0.265619,0.29041 -0.514138,0.93627 -0.737026,1.89696 -0.222869,0.96073 -0.420051,2.23605 -0.581861,3.78824 -0.161847,1.55224 -0.288432,3.38089 -0.370875,5.44585 -0.120104,3.00743 -0.268164,5.06971 -0.501432,6.54334 -0.116625,0.73682 -0.254854,1.32647 -0.421022,1.81373 -0.166241,0.48722 -0.360549,0.87185 -0.590375,1.19873 -0.498631,0.70918 -0.884647,1.31726 -1.163723,1.861 -0.279094,0.54371 -0.451194,1.02333 -0.522267,1.47498 -0.07104,0.45167 -0.04119,0.87539 0.08422,1.30851 0.125413,0.43305 0.346286,0.87537 0.656615,1.36332 0.644037,1.01272 1.483187,2.05885 1.863839,2.32459 0.274828,0.19188 0.842317,0.29124 1.575279,0.31319 0.732979,0.022 1.631138,-0.0333 2.566829,-0.14958 0.935691,-0.11608 1.908988,-0.29301 2.791987,-0.51561 0.882981,-0.22257 1.675957,-0.49085 2.250807,-0.78812 1.154093,-0.5968 2.09967,-1.15426 2.101318,-1.23846 0.0011,-0.0842 0.763646,-2.3024 1.6926,-4.9302 0.928953,-2.62783 1.69509,-5.10667 1.703017,-5.50828 0.0037,-0.20085 -0.22686,-0.64543 -0.600774,-1.1997 -0.373932,-0.55425 -0.891275,-1.21816 -1.4627,-1.85815 -0.453043,-0.50747 -0.807752,-0.93336 -1.082361,-1.33311 -0.274608,-0.39973 -0.46941,-0.77322 -0.601726,-1.17507 -0.13237,-0.40184 -0.201832,-0.83262 -0.228013,-1.34634 -0.02618,-0.51371 -0.0092,-1.11046 0.03497,-1.84584 0.05419,-0.9091 0.150862,-1.64575 0.292331,-2.213 0.141341,-0.56719 0.327758,-0.96498 0.561063,-1.19494 0.116625,-0.11497 0.244583,-0.18801 0.385064,-0.21948 0.140426,-0.0315 0.293027,-0.0211 0.457913,0.0302 0.329809,0.10289 0.70916,0.37044 1.140087,0.80136 0.422468,0.42247 0.770603,0.65349 1.14763,0.70676 0.377026,0.0533 0.782962,-0.0712 1.319839,-0.35855 0.379828,-0.20331 0.725052,-0.4647 0.975439,-0.72192 0.250368,-0.25723 0.40588,-0.51029 0.40588,-0.69726 0,-0.17832 -0.03204,-0.32646 -0.127793,-0.45888 -0.09575,-0.13237 -0.255604,-0.24891 -0.510898,-0.36429 -0.510586,-0.23072 -1.403728,-0.45641 -2.9358,-0.79187 -0.358406,-0.0785 -0.689277,-0.18587 -0.996255,-0.32833 -0.306978,-0.14244 -0.589991,-0.31976 -0.851509,-0.53924 -0.261536,-0.21954 -0.501725,-0.48131 -0.723789,-0.791 -0.222045,-0.30963 -0.426404,-0.66753 -0.614963,-1.08044 -0.377154,-0.82587 -0.692591,-1.87088 -0.971667,-3.1884 -0.279076,-1.31755 -0.521425,-2.90744 -0.750263,-4.82144 -0.199324,-1.6671 -0.346945,-2.95054 -0.431439,-4.01815 -0.0844,-1.06758 -0.105823,-1.91889 -0.05401,-2.72104 0.052,-0.80207 0.177775,-1.55516 0.38792,-2.42583 0.210035,-0.87068 0.504307,-1.85936 0.894076,-3.13258 0.416261,-1.35981 0.80354,-2.45123 1.172236,-3.28302 0.368696,-0.83177 0.718974,-1.40441 1.05964,-1.72667 0.170269,-0.16112 0.338249,-0.25892 0.50524,-0.29613 0.166974,-0.0373 0.332519,-0.0128 0.498595,0.071 0.332171,0.16881 0.665385,0.57829 1.008559,1.21951 0.19277,0.3602 0.438176,1.49741 0.678365,3.03987 0.240207,1.54252 0.475197,3.49029 0.64715,5.47046 0.236527,2.72413 0.490282,4.70214 0.837319,6.27561 0.173565,0.78673 0.370436,1.47237 0.599822,2.09943 0.229387,0.62707 0.491601,1.19567 0.795687,1.74839 0.367176,0.66742 0.667252,1.18468 0.953688,1.58853 0.286436,0.40391 0.559379,0.69441 0.871373,0.90735 0.311995,0.21295 0.663115,0.34816 1.106967,0.44276 0.443852,0.0947 0.980327,0.14884 1.662318,0.19773 1.023235,0.0736 1.934315,0.0588 2.782535,-0.0681 0.84823,-0.12669 1.63388,-0.3652 2.40503,-0.73985 0.77116,-0.37462 1.52784,-0.88534 2.31989,-1.55543 0.79202,-0.67003 1.61907,-1.49979 2.5299,-2.51289 0.684745,-0.76154 1.314315,-1.5196 1.888445,-2.27349 0.57416,-0.75389 1.09323,-1.50404 1.55636,-2.24892 0.46313,-0.74488 0.87071,-1.48411 1.22238,-2.21866 0.35167,-0.73452 0.64673,-1.46356 0.88652,-2.18643 0.23978,-0.7229 0.42413,-1.43969 0.55158,-2.14958 0.12742,-0.70997 0.19819,-1.41333 0.21287,-2.10894 0.0146,-0.69557 -0.0273,-1.38348 -0.12578,-2.06345 -0.0985,-0.68002 -0.25333,-1.35219 -0.46547,-2.01525 -0.23274,-0.72729 -0.96175,-2.07986 -1.94901,-3.67281 -0.98726,-1.59299 -2.23275,-3.42634 -3.497795,-5.11568 -1.02548,-1.36938 -1.99035,-2.609 -3.00107,-3.83272 -1.01074,-1.22366 -2.06763,-2.43174 -3.27546,-3.73902 -2.41567,-2.61456 -5.437111,-5.62543 -9.91247,-9.95029 -1.426358,-1.37839 -3.407024,-3.53471 -4.401339,-4.7921 -0.360676,-0.45612 -0.705809,-0.83812 -1.071942,-1.16656 -0.366151,-0.32847 -0.753247,-0.60372 -1.197795,-0.84395 -0.44453,-0.2402 -0.946292,-0.44628 -1.542159,-0.63766 -0.595886,-0.1914 -1.285914,-0.36778 -2.106061,-0.54971 -1.130517,-0.25023 -2.232321,-0.4328 -3.096645,-0.52455 -0.864325,-0.0917 -1.491189,-0.0926 -1.671784,0.0189 -0.180521,0.11168 -0.910223,0.13182 -1.940496,0.0747 -1.030254,-0.0571 -2.361134,-0.19169 -3.743771,-0.3898 -2.765293,-0.39635 -7.270697,-0.84027 -10.012757,-0.98679 -1.193126,-0.0637 -2.100787,-0.10894 -2.783473,-0.11919 z m -4.921702,15.62417 c 0.214978,-0.0201 0.421553,0.061 0.662291,0.25548 0.240738,0.19444 0.515658,0.50228 0.866631,0.93569 0.360054,0.44464 0.662108,0.92551 0.858136,1.34254 0.196029,0.41698 0.286052,0.77011 0.223291,0.95842 -0.0952,0.28532 -0.329864,0.54094 -0.641474,0.75024 -0.311611,0.20938 -0.700482,0.37232 -1.103177,0.47401 -0.402677,0.10179 -0.819011,0.1417 -1.187378,0.10417 -0.368348,-0.0377 -0.688307,-0.15287 -0.896914,-0.36143 -0.274462,-0.27446 -0.470362,-0.5931 -0.590375,-0.93378 -0.120103,-0.34074 -0.164043,-0.70308 -0.133468,-1.0644 0.03057,-0.36134 0.134933,-0.72242 0.312214,-1.05874 0.177226,-0.33628 0.427283,-0.64823 0.747425,-0.91394 0.354507,-0.29419 0.624758,-0.46396 0.882725,-0.48818 z m 35.259882,0.71999 c 0.254524,-0.0147 0.516335,0.0275 0.802295,0.11827 0.512436,0.16258 0.932451,0.42662 1.251714,0.75592 0.319263,0.32929 0.537994,0.7241 0.646197,1.14955 0.108203,0.42547 0.106556,0.88106 -0.01465,1.33214 -0.120836,0.45109 -0.36086,0.89752 -0.728513,1.30375 -0.293576,0.32441 -0.558024,0.57514 -0.836367,0.75969 -0.278344,0.18462 -0.570145,0.30277 -0.920569,0.3624 -0.350424,0.0597 -0.758904,0.061 -1.26874,0.011 -0.509836,-0.0505 -1.121467,-0.15232 -1.878046,-0.29806 -0.494677,-0.0952 -0.863062,-0.19251 -1.101273,-0.32829 -0.238212,-0.13566 -0.346525,-0.30972 -0.320728,-0.55819 0.02581,-0.24844 0.186106,-0.5714 0.483453,-1.0048 0.297367,-0.43336 0.73201,-0.97745 1.308489,-1.66798 0.555625,-0.66558 1.008522,-1.13856 1.418229,-1.45043 0.409707,-0.31181 0.776242,-0.46247 1.158047,-0.48441 z m 65.737096,45.34925 c 0.72851,0.0275 1.28577,0.15123 1.86197,0.404 0.57619,0.25282 1.17134,0.63472 1.97548,1.17983 1.94358,1.31746 3.66606,2.3401 5.09578,3.03324 0.71488,0.34654 1.35609,0.6105 1.91589,0.78809 0.5598,0.17759 1.03784,0.26871 1.42486,0.26871 0.36804,0 0.90605,0.24138 1.47594,0.63013 0.56989,0.38872 1.17167,0.92487 1.66801,1.51475 0.48398,0.57514 1.04701,1.37698 1.61975,2.27634 0.57273,0.89932 1.15486,1.89623 1.67651,2.86103 0.52164,0.96486 0.98342,1.8974 1.31416,2.66901 0.33074,0.77163 0.53076,1.38227 0.53076,1.70208 0,0.21381 0.23884,0.70951 0.6235,1.33592 0.38466,0.62639 0.91518,1.38352 1.49864,2.12021 0.68931,0.87035 1.18796,1.65988 1.48542,2.34354 0.14866,0.34184 0.24762,0.65779 0.29423,0.94329 0.0467,0.28547 0.0412,0.5408 -0.0165,0.76354 -0.0548,0.20935 -0.0401,0.55386 0.0322,1.00568 0.0723,0.45185 0.20264,1.01121 0.38034,1.64908 0.35539,1.27579 0.89913,2.86714 1.54595,4.54892 0.64682,1.68182 1.39617,3.45419 2.16093,5.09106 0.76476,1.63689 1.54534,3.13836 2.2546,4.27929 l 2.07105,3.33224 -0.41346,9.98719 c -0.1137,2.74648 -0.2883,5.31585 -0.4778,7.24346 -0.18947,1.92762 -0.39383,3.21354 -0.56765,3.39186 -0.17393,0.17833 -0.33202,0.76184 -0.44658,1.55825 -0.11461,0.79642 -0.18543,1.80573 -0.18543,2.83551 0,1.02976 -0.1624,2.54475 -0.42386,4.15533 -0.26153,1.61058 -0.62225,3.3167 -1.01897,4.73056 -0.32972,1.17509 -0.58079,2.1149 -0.75973,2.94717 -0.17888,0.83226 -0.28558,1.55699 -0.32831,2.30095 -0.0427,0.74397 -0.0212,1.50719 0.0577,2.41736 0.0789,0.91015 0.21509,1.9673 0.40116,3.29811 0.17118,1.2243 0.29658,2.26118 0.37466,3.20735 0.078,0.9462 0.1093,1.80162 0.0899,2.66427 -0.0194,0.86267 -0.0888,1.73214 -0.21004,2.70591 -0.1212,0.97372 -0.29478,2.05182 -0.52226,3.33125 -0.7084,3.98434 -1.35631,7.01079 -1.86859,8.81498 -0.25613,0.90213 -0.47858,1.49917 -0.65754,1.75692 -0.0895,0.12889 -0.16789,0.17228 -0.23465,0.12779 -0.0666,-0.0447 -0.1212,-0.17759 -0.16276,-0.404 -0.16935,-0.92348 -0.31479,-1.65137 -0.46359,-2.23566 -0.14884,-0.5843 -0.30113,-1.0252 -0.48347,-1.37374 -0.18235,-0.34858 -0.39515,-0.60493 -0.66511,-0.82123 -0.26998,-0.21633 -0.59687,-0.3924 -1.00856,-0.57997 l -1.77303,-0.80801 1.48162,-2.39744 c 0.33863,-0.54788 0.59782,-1.13198 0.77582,-1.6879 0.17796,-0.5559 0.2743,-1.08406 0.28761,-1.51755 0.0128,-0.43351 -0.0566,-0.77307 -0.21192,-0.95367 -0.0776,-0.0903 -0.1765,-0.14024 -0.29708,-0.14299 -0.12065,-0.002 -0.26267,0.0425 -0.42671,0.14391 -0.22137,0.13676 -0.47194,0.16825 -0.74743,0.0974 -0.27549,-0.0709 -0.57598,-0.24376 -0.89786,-0.51566 -0.32187,-0.27184 -0.66508,-0.64243 -1.02559,-1.10882 -0.36051,-0.46639 -0.73825,-1.02878 -1.12967,-1.68313 -1.67729,-2.80413 -3.36956,-5.32795 -4.70597,-7.0836 -0.66822,-0.8778 -1.2478,-1.56329 -1.69167,-1.99632 -0.22193,-0.21648 -0.40974,-0.36974 -0.55821,-0.45224 -0.14848,-0.0824 -0.25734,-0.0943 -0.32072,-0.0275 -0.29858,0.31463 -1.37286,2.56864 -2.38706,5.00872 -0.50711,1.2201 -1.19338,2.66456 -1.89128,4.00967 -0.69791,1.34506 -1.40747,2.59079 -1.95941,3.41167 -0.55197,0.82093 -1.02861,1.69199 -1.35201,2.43437 -0.32338,0.74241 -0.49352,1.35611 -0.43237,1.66138 0.0388,0.19352 0.0165,0.38616 -0.054,0.57335 -0.0707,0.18717 -0.18999,0.36873 -0.34818,0.54026 -0.31637,0.34301 -0.78607,0.64567 -1.31982,0.87039 -0.53376,0.22477 -1.13221,0.37188 -1.7068,0.40399 -0.57458,0.0322 -1.12506,-0.0509 -1.56393,-0.2857 -0.36595,-0.1959 -0.65883,-0.45859 -0.87233,-0.74556 -0.21346,-0.28697 -0.34749,-0.59801 -0.39453,-0.88933 -0.0471,-0.29136 -0.007,-0.56302 0.12578,-0.77205 0.13347,-0.20903 0.3609,-0.35552 0.68878,-0.39548 0.46925,-0.0571 1.16016,-0.17595 1.53555,-0.26302 0.37542,-0.0872 1.05585,-0.19329 1.5119,-0.23649 0.23268,-0.0222 0.46639,-0.15709 0.69351,-0.37659 0.22709,-0.21954 0.44799,-0.5239 0.65471,-0.88366 0.41342,-0.71956 0.77038,-1.66261 1.01328,-2.59995 0.2429,-0.93732 0.3717,-1.86836 0.32547,-2.56588 -0.0231,-0.34872 -0.0904,-0.63902 -0.20815,-0.842 -0.11772,-0.20297 -0.28583,-0.31888 -0.5128,-0.31888 -0.28073,0 -0.60623,0.12541 -0.90448,0.32735 -0.29824,0.20202 -0.56924,0.4806 -0.74081,0.78718 -0.1613,0.28814 -0.29466,0.5033 -0.50997,0.64145 -0.21529,0.13823 -0.51247,0.19929 -1.00193,0.17796 -0.97891,-0.0428 -2.72626,-0.41426 -6.12231,-1.15329 -1.20576,-0.26241 -2.03144,-0.37744 -2.66143,-0.33211 -0.315,0.0227 -0.58102,0.0855 -0.82123,0.19019 -0.24021,0.10454 -0.45456,0.25097 -0.66606,0.4409 -0.59267,0.53217 -1.31294,0.96786 -1.60084,0.96786 -0.28788,0 -1.38156,0.61046 -2.42963,1.35673 -0.84218,0.59971 -1.34345,0.90905 -1.72855,0.95464 -0.19255,0.0229 -0.35579,-0.0199 -0.51846,-0.12578 -0.16276,-0.10582 -0.32467,-0.27457 -0.51376,-0.50238 -0.19073,-0.22961 -0.35007,-0.40193 -0.50427,-0.51658 -0.15415,-0.11461 -0.30295,-0.17173 -0.47212,-0.17118 -0.3383,10e-4 -0.75837,0.23299 -1.46552,0.69634 -0.43616,0.28574 -0.97785,0.54569 -1.49865,0.73417 -0.52081,0.18853 -1.02072,0.30561 -1.37471,0.30561 -0.70799,0 -2.23494,0.33023 -3.39372,0.73419 -0.48488,0.16898 -0.86152,0.31917 -1.159,0.50427 -0.29746,0.18513 -0.51593,0.40535 -0.68592,0.71619 -0.16991,0.31089 -0.29111,0.71209 -0.39358,1.25836 -0.10253,0.54627 -0.18613,1.23749 -0.281,2.12874 -0.11333,1.06504 -0.38045,2.35293 -0.72,3.56973 -0.33955,1.2168 -0.7516,2.36247 -1.15332,3.14393 -0.42978,0.83604 -0.79941,1.88378 -1.06532,2.96416 -0.26591,1.08044 -0.4281,2.19356 -0.44184,3.15909 -0.0196,1.3785 0.0234,2.2098 0.21476,2.72482 0.0956,0.25752 0.22827,0.43574 0.40874,0.5639 0.18052,0.12816 0.40868,0.20646 0.69539,0.26304 0.44484,0.0877 0.8148,0.21474 1.12021,0.39736 0.30538,0.18254 0.54603,0.42042 0.73135,0.7304 0.1853,0.30998 0.31562,0.69202 0.4002,1.16182 0.0846,0.46978 0.12358,1.02773 0.12669,1.68976 0.004,0.75147 -0.03,1.36158 0.0146,1.87521 H 87.934636 l -0.11552,-0.79662 c -0.12761,-0.88124 -0.27344,-1.63116 -0.44279,-2.26031 -0.16936,-0.6291 -0.36172,-1.1373 -0.5847,-1.53553 -0.22296,-0.39819 -0.47604,-0.68666 -0.76446,-0.87515 -0.28841,-0.18852 -0.61262,-0.27722 -0.97827,-0.27722 -0.28715,0 -0.50671,-0.0513 -0.65757,-0.14482 -0.15086,-0.0936 -0.23283,-0.22922 -0.24599,-0.39832 -0.0128,-0.16899 0.0425,-0.37121 0.16844,-0.59792 0.12596,-0.22675 0.32202,-0.47816 0.58849,-0.74464 0.15086,-0.15086 0.24833,-0.28609 0.28856,-0.41247 0.0403,-0.12651 0.0234,-0.24356 -0.0559,-0.35861 -0.15873,-0.23005 -0.56575,-0.45074 -1.25643,-0.71335 -0.49133,-0.18679 -0.87163,-0.35517 -1.14954,-0.52699 -0.2779,-0.17174 -0.45355,-0.34737 -0.53643,-0.54875 -0.0829,-0.20135 -0.0729,-0.4284 0.0209,-0.70388 0.0937,-0.27555 0.27127,-0.59922 0.5232,-0.99344 0.11992,-0.18761 0.19606,-0.36461 0.22517,-0.53741 0.0291,-0.17283 0.011,-0.3413 -0.0558,-0.5128 -0.13383,-0.3429 -0.46529,-0.69682 -1.01518,-1.11544 -0.36698,-0.27941 -0.64223,-0.4927 -0.82976,-0.67648 -0.18752,-0.1838 -0.28708,-0.33789 -0.3018,-0.5005 -0.0147,-0.16258 0.0547,-0.3338 0.20625,-0.54971 0.15141,-0.21586 0.38447,-0.47672 0.69539,-0.82026 0.51178,-0.56555 0.78915,-0.96557 0.85435,-1.32553 0.0326,-0.17998 0.0128,-0.35039 -0.0586,-0.52602 -0.0707,-0.17558 -0.19131,-0.35649 -0.35953,-0.55916 -0.23826,-0.28708 -0.38766,-0.63381 -0.43804,-0.97169 -0.0503,-0.33783 -0.002,-0.66685 0.15617,-0.91864 0.15232,-0.24288 0.27082,-0.5858 0.3387,-0.94329 0.0679,-0.35755 0.0851,-0.72967 0.0359,-1.02938 -0.0493,-0.29975 0.0238,-0.67003 0.18162,-1.0256 0.15782,-0.3555 0.4003,-0.69629 0.68878,-0.93568 0.28847,-0.23945 0.55061,-0.54671 0.7408,-0.84869 0.19021,-0.30194 0.30844,-0.59854 0.30844,-0.81745 0,-0.43776 0.59408,-1.96172 1.32078,-3.3871 0.38854,-0.76208 0.65888,-1.42552 0.80987,-1.99253 0.15105,-0.56696 0.1829,-1.03762 0.0956,-1.41254 -0.0873,-0.3749 -0.29438,-0.65425 -0.62064,-0.84012 -0.32627,-0.18592 -0.77183,-0.2782 -1.33782,-0.2782 -0.32179,0 -0.58508,-0.0227 -0.79852,-0.0776 -0.21342,-0.0549 -0.37681,-0.14244 -0.50048,-0.27157 -0.12358,-0.12908 -0.20766,-0.30024 -0.26018,-0.52317 -0.0525,-0.22296 -0.0738,-0.49733 -0.0738,-0.83356 0,-0.38221 -0.0405,-0.70129 -0.12577,-0.9603 -0.0853,-0.25901 -0.21533,-0.45835 -0.39549,-0.60175 -0.18015,-0.14335 -0.41003,-0.23061 -0.69445,-0.26584 -0.28441,-0.0352 -0.6237,-0.0183 -1.0218,0.0472 -0.14592,0.024 -0.32316,-0.0703 -0.49103,-0.24129 -0.16789,-0.171 -0.32652,-0.41873 -0.43523,-0.702 -0.10875,-0.28329 -0.31416,-0.54079 -0.55821,-0.7276 -0.244035,-0.18672 -0.526645,-0.30274 -0.788115,-0.30274 -0.26148,0 -0.4994,-0.1104 -0.67173,-0.28856 -0.17229,-0.17815 -0.27912,-0.42397 -0.27912,-0.69441 0,-0.40555 -0.0941,-0.7364 -0.250713,-0.98302 -0.15672,-0.24667 -0.376385,-0.40881 -0.626333,-0.47874 -0.249947,-0.0699 -0.530085,-0.0478 -0.809875,0.0767 -0.27979,0.1245 -0.558921,0.3511 -0.805151,0.68781 -0.28964,0.3961 -0.509965,1.0252 -0.659435,1.75695 -0.149397,0.7317 -0.227611,1.56591 -0.234641,2.37377 -0.0073,0.8079 0.0573,1.58936 0.194893,2.21395 0.06884,0.31231 0.155622,0.58542 0.261134,0.80325 0.105457,0.2178 0.229497,0.38021 0.371827,0.47115 0.234934,0.15013 0.56044,0.50292 0.895028,0.94992 0.334587,0.44702 0.678274,0.98825 0.95085,1.5166 0.433362,0.84006 0.650097,1.34062 0.649969,1.70208 -5.5e-5,0.18071 -0.05419,0.32659 -0.162762,0.46266 -0.108569,0.13603 -0.271258,0.26256 -0.488195,0.40395 -0.272888,0.17796 -0.636494,0.30955 -1.001931,0.37848 -0.365438,0.0688 -0.732687,0.0752 -1.014235,0.002 -0.563095,-0.14684 -1.484286,-0.38162 -2.0474,-0.52134 -0.168987,-0.0419 -0.318036,-0.0467 -0.446562,-0.0146 -0.128525,0.0326 -0.236179,0.10198 -0.323583,0.20815 -0.174846,0.21232 -0.267011,0.57157 -0.273419,1.07384 -0.0055,0.41839 -0.104541,0.8921 -0.25923,1.31891 -0.154706,0.42682 -0.364961,0.8068 -0.594165,1.03597 -0.229203,0.22922 -0.437407,0.53416 -0.588489,0.84112 -0.151045,0.30698 -0.24504,0.61599 -0.24504,0.85243 0,0.23649 -0.211353,0.45679 -0.55158,0.62159 -0.340244,0.16477 -0.809344,0.27409 -1.325515,0.28764 -1.032359,0.0271 -3.105977,0.11168 -4.607583,0.18831 -0.750812,0.0381 -1.800638,0.011 -2.886605,-0.0634 -1.085985,-0.0741 -2.208111,-0.19493 -3.105153,-0.34534 -0.802918,-0.13456 -1.409386,-0.23407 -1.878047,-0.27528 -0.46866,-0.0412 -0.799677,-0.0244 -1.05303,0.0738 -0.253334,0.0981 -0.428674,0.27748 -0.585633,0.56106 -0.156903,0.28357 -0.295425,0.67139 -0.474958,1.18641 -0.18638,0.53464 -0.401926,0.98002 -0.620657,1.32081 -0.218731,0.34072 -0.440172,0.57644 -0.638618,0.69256 -0.198445,0.11607 -0.374024,0.11278 -0.499565,-0.0265 -0.125596,-0.13933 -0.201521,-0.41452 -0.201521,-0.84018 0,-0.26007 -0.114977,-0.71648 -0.299911,-1.24221 -0.184879,-0.52578 -0.439605,-1.12094 -0.719999,-1.65858 -0.280376,-0.53759 -0.536274,-1.23322 -0.721885,-1.92157 -0.185593,-0.6883 -0.3009,-1.36938 -0.301815,-1.87612 -0.0012,-0.5068 -0.231291,-1.30772 -0.601726,-2.18929 -0.370436,-0.88165 -0.88115,-1.84387 -1.441884,-2.67469 -0.560733,-0.83085 -1.095176,-1.74732 -1.504315,-2.55454 -0.40914,-0.80718 -0.692976,-1.50507 -0.753119,-1.89885 -0.121019,-0.79312 -0.412014,-1.50312 -0.67269,-1.85723 -0.130357,-0.17704 -0.253243,-0.26453 -0.343431,-0.22991 -0.09026,0.0346 -0.147566,0.19189 -0.147566,0.50617 0,0.10985 -0.0606,0.2141 -0.170269,0.3094 -0.109667,0.0952 -0.268585,0.18143 -0.46454,0.25353 -0.391912,0.14427 -0.932799,0.23373 -1.529875,0.23373 -0.595245,0 -1.272475,0.12376 -1.884674,0.32261 -0.61218,0.1989 -1.159329,0.47295 -1.492964,0.77487 -0.282609,0.25577 -0.505918,0.44275 -0.701068,0.54686 -0.19515,0.10417 -0.362013,0.12486 -0.533619,0.0493 -0.17155,-0.0758 -0.347165,-0.24797 -0.559159,-0.53174 -0.211975,-0.28378 -0.460494,-0.67866 -0.776755,-1.19873 -0.421241,-0.6927 -0.781387,-1.60078 -1.081408,-2.67942 -0.300021,-1.07859 -0.539551,-2.32756 -0.720933,-3.70121 -0.181437,-1.37359 -0.304598,-2.87177 -0.369941,-4.44956 -0.06536,-1.57782 -0.07268,-3.23533 -0.02453,-4.92641 0.04815,-1.69113 0.152327,-3.41636 0.311262,-5.12986 0.158918,-1.71351 0.372285,-3.41569 0.639588,-5.0608 0.267304,-1.64507 0.588233,-3.23248 0.96125,-4.71827 0.373017,-1.48579 0.798286,-2.8696 1.274416,-4.1052 0.240336,-0.62362 0.493999,-1.51131 0.739864,-2.54316 0.245864,-1.03184 0.484039,-2.20824 0.693506,-3.40794 0.209468,-1.19964 0.390209,-2.42257 0.521316,-3.54981 0.131088,-1.12721 0.21247,-2.15824 0.223272,-2.97269 0.0073,-0.5219 0.08715,-1.02758 0.224242,-1.49203 0.136947,-0.46445 0.330596,-0.88774 0.565768,-1.246 0.235191,-0.35831 0.511283,-0.65182 0.812713,-0.85533 0.301431,-0.2035 0.628347,-0.31694 0.964088,-0.31694 0.273528,0 0.526203,0.11644 0.737978,0.29994 0.211774,0.18355 0.382775,0.43476 0.491985,0.70201 0.109301,0.26725 0.157086,0.55126 0.123033,0.80227 -0.03424,0.25109 -0.150679,0.46868 -0.368989,0.60363 -0.3061,0.18922 -0.500499,0.47187 -0.5847,0.83925 -0.08422,0.36734 -0.05859,0.81919 0.0747,1.34724 0.133286,0.52806 0.374463,1.13198 0.720951,1.80333 0.346469,0.6713 0.798652,1.41016 1.353893,2.20727 0.777048,1.11554 1.613214,2.20227 2.453262,3.20448 0.840084,1.00224 1.684086,1.91981 2.475049,2.69836 0.790963,0.77849 1.529307,1.41749 2.159045,1.86193 0.62972,0.44446 1.150779,0.69446 1.507153,0.69446 0.183469,0 0.392442,-0.0782 0.619705,-0.22613 0.227282,-0.14793 0.473201,-0.36553 0.728513,-0.64431 0.510641,-0.55746 1.061268,-1.3595 1.589486,-2.33689 0.476716,-0.88207 1.052994,-1.76448 1.597982,-2.47599 0.544988,-0.71155 1.058705,-1.2523 1.408763,-1.44946 0.518112,-0.29185 0.950979,-0.56249 1.31605,-0.8326 0.365089,-0.27006 0.662382,-0.53967 0.909217,-0.82878 0.246853,-0.28909 0.443065,-0.59728 0.606468,-0.94609 0.163312,-0.34883 0.293961,-0.73811 0.408718,-1.1874 0.119372,-0.46736 0.518624,-1.24518 1.065334,-2.12215 0.546709,-0.877 1.240893,-1.85313 1.950895,-2.7163 1.420005,-1.72629 3.761842,-4.79757 5.203634,-6.82527 0.946218,-1.33077 1.575481,-2.13237 1.933851,-2.44574 0.17924,-0.15672 0.290958,-0.19125 0.34061,-0.10875 0.04962,0.0824 0.03698,0.28184 -0.03112,0.59321 -0.103992,0.47454 -0.06298,1.36488 0.08696,2.41639 0.149947,1.05157 0.40914,2.2643 0.740816,3.38522 0.267359,0.90367 0.489825,1.61144 0.700116,2.16853 0.210291,0.55701 0.408572,0.96289 0.626333,1.26207 0.217779,0.29922 0.455734,0.4925 0.745539,0.62256 0.289823,0.12999 0.631331,0.19726 1.057754,0.24697 0.578511,0.0674 1.060115,0.0756 1.475,-0.002 0.41487,-0.0776 0.76312,-0.24061 1.07478,-0.5166 0.311685,-0.276 0.586405,-0.66512 0.855305,-1.19305 0.2689,-0.52796 0.53186,-1.19503 0.81839,-2.02847 0.23339,-0.67895 0.39649,-1.24668 0.48631,-1.71627 0.0899,-0.46959 0.10655,-0.84113 0.0472,-1.12777 -0.0591,-0.28667 -0.1941,-0.48867 -0.40778,-0.61877 -0.21368,-0.13017 -0.50632,-0.18824 -0.87989,-0.18824 -0.20291,0 -0.41725,-0.0656 -0.63863,-0.18737 -0.22137,-0.12176 -0.449725,-0.29951 -0.679305,-0.52511 -0.4592,-0.45114 -0.92427,-1.09162 -1.354845,-1.84963 -0.430579,-0.75801 -0.826701,-1.63392 -1.146697,-2.55449 -0.319977,-0.92059 -0.564193,-1.88625 -0.691602,-2.82514 -0.13475,-0.99329 -0.379425,-2.14096 -0.665129,-3.19029 -0.285685,-1.04933 -0.612455,-2.00033 -0.911102,-2.59902 -0.307876,-0.61714 -0.553356,-1.52196 -0.731351,-2.56393 -0.177958,-1.04198 -0.288193,-2.22104 -0.326403,-3.38619 -0.03826,-1.1651 -0.0037,-2.31626 0.106922,-3.30287 0.111498,-0.98659 0.300423,-1.80873 0.571444,-2.31514 0.194307,-0.36306 0.524336,-0.69276 0.899769,-0.9319 0.375416,-0.23922 0.796236,-0.38792 1.171285,-0.38792 0.318512,0 0.813116,0.12248 1.442817,0.34813 0.629722,0.22566 1.394482,0.55398 2.253667,0.96603 1.71834,0.82397 3.81391,1.98191 5.95959,3.31612 0.43581,0.27099 0.77675,0.47445 1.07289,0.60931 0.29614,0.13493 0.5477,0.20079 0.80325,0.19865 0.25555,-0.002 0.51571,-0.0729 0.82974,-0.21286 0.31405,-0.13987 0.681725,-0.34866 1.153325,-0.62725 0.61695,-0.36448 1.47131,-0.66046 2.45327,-0.86569 0.98198,-0.2053 2.09156,-0.31982 3.21964,-0.31982 1.16019,0 2.17759,-0.0908 3.04175,-0.26492 0.86418,-0.17411 1.57486,-0.43137 2.1212,-0.76634 0.27317,-0.16752 0.505769,-0.35493 0.695399,-0.56013 0.18962,-0.2052 0.3366,-0.4286 0.43995,-0.66983 0.10326,-0.24125 0.16258,-0.50021 0.17686,-0.77579 0.0146,-0.27563 -0.0165,-0.56783 -0.0937,-0.87611 -0.0987,-0.39343 -0.16624,-0.6944 -0.18545,-0.91868 -0.0192,-0.22428 0.011,-0.37203 0.10308,-0.457 0.0928,-0.0849 0.24962,-0.10765 0.48724,-0.0833 0.23765,0.0245 0.55577,0.0965 0.97072,0.20055 0.49647,0.12449 1.03618,0.16953 1.50622,0.14189 0.47005,-0.0276 0.87042,-0.1278 1.08708,-0.29422 0.21668,-0.16642 1.1045,-0.41544 2.36057,-0.68313 1.25609,-0.26768 2.88043,-0.55407 4.56975,-0.7938 3.37859,-0.47937 7.97682,-1.32084 10.21805,-1.87046 1.12063,-0.27481 2.67872,-0.58391 4.28686,-0.86002 1.60814,-0.27606 3.26634,-0.51914 4.58583,-0.66321 1.69588,-0.18519 2.81753,-0.29041 3.69174,-0.25736 z"
       id="path974"
       inkscape:connector-curvature="0" />
    <text
       id="text1480"
       y="138.51793"
       x="94.746986"
       style="font-style:normal;font-variant:normal;font-weight:bold;font-stretch:normal;font-size:30.90565681px;line-height:1.25;font-family:'Comic Sans MS';-inkscape-font-specification:'Comic Sans MS Bold';letter-spacing:0px;word-spacing:0px;fill:#1b5e20;fill-opacity:1;stroke:none;stroke-width:0.39338171;stroke-miterlimit:4;stroke-dasharray:none;filter:url(#filter1486)"
       xml:space="preserve"><tspan
         id="tspan1478"
         style="font-style:normal;font-variant:normal;font-weight:bold;font-stretch:normal;font-family:'Cormorant Garamond';-inkscape-font-specification:'Cormorant Garamond Bold';fill:#1b5e20;stroke:none;stroke-width:0.39338171;stroke-miterlimit:4;stroke-dasharray:none"
         y="138.51793"
         x="94.746986"
         sodipodi:role="line">Idul Fitri</tspan></text>
    <text
       xml:space="preserve"
       style="font-style:normal;font-variant:normal;font-weight:bold;font-stretch:normal;font-size:30.90565681px;line-height:1.25;font-family:'Comic Sans MS';-inkscape-font-specification:'Comic Sans MS Bold';letter-spacing:0px;word-spacing:0px;fill:#ffee58;fill-opacity:1;stroke:none;stroke-width:0.39338171;stroke-miterlimit:4;stroke-dasharray:none"
       x="96.334488"
       y="137.98877"
       id="text1376"><tspan
         sodipodi:role="line"
         x="96.334488"
         y="137.98877"
         style="font-style:normal;font-variant:normal;font-weight:bold;font-stretch:normal;font-family:'Cormorant Garamond';-inkscape-font-specification:'Cormorant Garamond Bold';fill:#ffee58;stroke:none;stroke-width:0.39338171;stroke-miterlimit:4;stroke-dasharray:none"
         id="tspan1378">Idul Fitri</tspan></text>
    <text
       xml:space="preserve"
       style="font-style:normal;font-variant:normal;font-weight:bold;font-stretch:normal;font-size:22.26375961px;line-height:1.25;font-family:'Comic Sans MS';-inkscape-font-specification:'Comic Sans MS Bold';letter-spacing:0px;word-spacing:0px;fill:#1b5e20;fill-opacity:1;stroke:#ff8f00;stroke-width:0;stroke-miterlimit:4;stroke-dasharray:none;filter:url(#filter1652)"
       x="54.130688"
       y="104.75042"
       id="text1638"><tspan
         sodipodi:role="line"
         x="54.130688"
         y="104.75042"
         style="font-style:normal;font-variant:normal;font-weight:bold;font-stretch:normal;font-family:'Dancing Script';-inkscape-font-specification:'Dancing Script Bold';fill:#1b5e20;stroke:#ff8f00;stroke-width:0;stroke-miterlimit:4;stroke-dasharray:none;"
         id="tspan1636">Selamat</tspan></text>
    <path
       inkscape:transform-center-y="2.7866616"
       inkscape:transform-center-x="-2.3393412"
       d="M 80.49912,93.800118 23.554284,119.15359 -18.155225,72.830489 13.011717,18.847762 73.983456,31.807706 Z"
       inkscape:randomized="0"
       inkscape:rounded="0"
       inkscape:flatsided="true"
       sodipodi:arg2="1.1519173"
       sodipodi:arg1="0.52359878"
       sodipodi:r2="42.897621"
       sodipodi:r1="53.024368"
       sodipodi:cy="67.287933"
       sodipodi:cx="34.578671"
       sodipodi:sides="5"
       id="path1751"
       style="opacity:0.68300003;fill:none;fill-opacity:1;stroke:#ffee58;stroke-width:0.70615101;stroke-linecap:round;stroke-linejoin:round;stroke-miterlimit:4;stroke-dasharray:none;stroke-dashoffset:0;stroke-opacity:1;paint-order:markers fill stroke"
       sodipodi:type="star"
       transform="rotate(-20.208129,4.8108241,132.2198)" />
    <text
       id="text1384"
       y="103.95667"
       x="55.189022"
       style="font-style:normal;font-variant:normal;font-weight:bold;font-stretch:normal;font-size:22.26375961px;line-height:1.25;font-family:'Comic Sans MS';-inkscape-font-specification:'Comic Sans MS Bold';letter-spacing:0px;word-spacing:0px;fill:#ffee58;fill-opacity:1;stroke:#ff8f00;stroke-width:0;stroke-miterlimit:4;stroke-dasharray:none"
       xml:space="preserve"><tspan
         id="tspan1382"
         style="font-style:normal;font-variant:normal;font-weight:bold;font-stretch:normal;font-family:'Dancing Script';-inkscape-font-specification:'Dancing Script Bold';fill:#ffee58;stroke:#ff8f00;stroke-width:0;stroke-miterlimit:4;stroke-dasharray:none"
         y="103.95667"
         x="55.189022"
         sodipodi:role="line">Selamat</tspan></text>
    <text
       xml:space="preserve"
       style="font-style:normal;font-variant:normal;font-weight:bold;font-stretch:normal;font-size:7.14191389px;line-height:1.25;font-family:'Comic Sans MS';-inkscape-font-specification:'Comic Sans MS Bold';letter-spacing:0px;word-spacing:0px;fill:#1b5e20;fill-opacity:1;stroke:#1b5e20;stroke-width:0.1785478;paint-order:markers fill stroke;filter:url(#filter1632)"
       x="153.63174"
       y="175.52516"
       id="text1610"
       transform="matrix(1.7040461,0,0,1.7040461,-108.2643,-119.68003)"><tspan
         sodipodi:role="line"
         x="153.63174"
         y="175.52516"
         style="font-style:normal;font-variant:normal;font-weight:bold;font-stretch:normal;font-family:'Cormorant Garamond';-inkscape-font-specification:'Cormorant Garamond Bold';fill:#1b5e20;stroke:#1b5e20;stroke-width:0.1785478;paint-order:markers fill stroke"
         id="tspan1608">* isi sendiri</tspan></text>
    <text
       id="text1388"
       y="179.19263"
       x="153.95476"
       style="font-style:normal;font-variant:normal;font-weight:bold;font-stretch:normal;font-size:12.1701498px;line-height:1.25;font-family:'Comic Sans MS';-inkscape-font-specification:'Comic Sans MS Bold';letter-spacing:0px;word-spacing:0px;fill:#f1f8e9;fill-opacity:1;stroke:none;stroke-width:0.30425367;paint-order:markers fill stroke"
       xml:space="preserve"><tspan
         id="tspan1386"
         style="font-style:normal;font-variant:normal;font-weight:bold;font-stretch:normal;font-family:'Cormorant Garamond';-inkscape-font-specification:'Cormorant Garamond Bold';fill:#f1f8e9;stroke-width:0.30425367;paint-order:markers fill stroke"
         y="179.19263"
         x="153.95476"
         sodipodi:role="line">* isi sendiri</tspan></text>
    <g
       id="g1425"
       transform="matrix(0.80854342,0,0,0.80854342,275.97072,173.86252)"
       style="opacity:0.597;stroke-width:1.35780442;stroke-miterlimit:4;stroke-dasharray:none">
      <path
         sodipodi:type="star"
         style="opacity:1;fill:#ffab00;fill-opacity:0;stroke:#ffe57f;stroke-width:1.97427177;stroke-linecap:round;stroke-linejoin:round;stroke-miterlimit:4;stroke-dasharray:none;stroke-dashoffset:0;stroke-opacity:1;paint-order:markers fill stroke"
         id="path1396"
         sodipodi:sides="6"
         sodipodi:cx="-91.51712"
         sodipodi:cy="131.33086"
         sodipodi:r1="69.792366"
         sodipodi:r2="60.441963"
         sodipodi:arg1="0.44801673"
         sodipodi:arg2="0.97161551"
         inkscape:flatsided="true"
         inkscape:rounded="0"
         inkscape:randomized="0"
         d="m -28.612704,161.56343 -57.634388,39.36054 -62.904418,-30.23258 -5.27003,-69.59311 57.634391,-39.360535 62.904417,30.232577 z"
         transform="matrix(0.67800564,-0.11535905,0.11535905,0.67800564,-44.618199,31.730467)" />
      <path
         transform="matrix(0.52949058,-0.43890668,0.43890668,0.52949058,-100.70166,21.624929)"
         d="m -28.612704,161.56343 -57.634388,39.36054 -62.904418,-30.23258 -5.27003,-69.59311 57.634391,-39.360535 62.904417,30.232577 z"
         inkscape:randomized="0"
         inkscape:rounded="0"
         inkscape:flatsided="true"
         sodipodi:arg2="0.97161551"
         sodipodi:arg1="0.44801673"
         sodipodi:r2="60.441963"
         sodipodi:r1="69.792366"
         sodipodi:cy="131.33086"
         sodipodi:cx="-91.51712"
         sodipodi:sides="6"
         id="path1398"
         style="opacity:1;fill:#ffab00;fill-opacity:0;stroke:#ffe57f;stroke-width:1.97427177;stroke-linecap:round;stroke-linejoin:round;stroke-miterlimit:4;stroke-dasharray:none;stroke-dashoffset:0;stroke-opacity:1;paint-order:markers fill stroke"
         sodipodi:type="star" />
      <path
         d="m -89.951712,166.88359 a 35.638878,35.638878 0 0 1 -36.576538,-34.6305 35.638878,35.638878 0 0 1 34.585199,-36.619381 35.638878,35.638878 0 0 1 36.662161,34.539841 35.638878,35.638878 0 0 1 -34.494431,36.70489"
         sodipodi:open="true"
         sodipodi:end="1.5391413"
         sodipodi:start="1.5440928"
         sodipodi:ry="35.638878"
         sodipodi:rx="35.638878"
         sodipodi:cy="131.25742"
         sodipodi:cx="-90.903282"
         sodipodi:type="arc"
         id="path1400"
         style="opacity:1;fill:#ffab00;fill-opacity:0;stroke:#ffe57f;stroke-width:1.35780442;stroke-linecap:round;stroke-linejoin:round;stroke-miterlimit:4;stroke-dasharray:none;stroke-dashoffset:0;stroke-opacity:1;paint-order:markers fill stroke" />
      <path
         style="opacity:1;fill:none;fill-opacity:0;stroke:none;stroke-width:1.35780442;stroke-linecap:round;stroke-linejoin:round;stroke-miterlimit:4;stroke-dasharray:none;stroke-dashoffset:0;stroke-opacity:1;paint-order:markers fill stroke"
         id="path1402"
         sodipodi:type="arc"
         sodipodi:cx="-90.903275"
         sodipodi:cy="131.25742"
         sodipodi:rx="27.973036"
         sodipodi:ry="27.973036"
         sodipodi:start="1.5440928"
         sodipodi:end="1.5391413"
         sodipodi:open="true"
         d="m -90.156385,159.22048 a 27.973036,27.973036 0 0 1 -28.709005,-27.18156 27.973036,27.973036 0 0 1 27.145998,-28.74263 27.973036,27.973036 0 0 1 28.776214,27.1104 27.973036,27.973036 0 0 1 -27.074757,28.80975" />
      <text
         transform="matrix(1.0114381,0,0,1.0114381,1.0399186,-1.5017938)"
         id="text1406"
         style="font-style:normal;font-variant:normal;font-weight:bold;font-stretch:normal;font-size:10.58333302px;line-height:1.25;font-family:DS_Aqua-1;-inkscape-font-specification:'DS_Aqua-1 Bold';letter-spacing:0px;word-spacing:0px;fill:#ffd740;fill-opacity:1;stroke:none;stroke-width:1.34244931;stroke-miterlimit:4;stroke-dasharray:none"
         xml:space="preserve"><textPath
           id="textPath1408"
           xlink:href="#path1402"><tspan
   rotate="0 0 0 0 0 0 0 0 0 0 0 0 0 0 0 0 0 0 0 0 0 0 0 0 0 0.29999989 0 0 0 0 0 0 0 0 0 0"
   id="tspan1404"
   style="font-style:normal;font-variant:normal;font-weight:bold;font-stretch:normal;font-family:DS_Aqua-1;-inkscape-font-specification:'DS_Aqua-1 Bold';fill:#ffd740;stroke-width:1.34244931;stroke-miterlimit:4;stroke-dasharray:none">hayo ini tulisannya apa wahaha, lol</tspan></textPath></text>
      <path
         style="opacity:1;fill:#ffab00;fill-opacity:0;stroke:#ffe57f;stroke-width:1.35780442;stroke-linecap:round;stroke-linejoin:round;stroke-miterlimit:4;stroke-dasharray:none;stroke-dashoffset:0;stroke-opacity:1;paint-order:markers fill stroke"
         id="path1411"
         sodipodi:type="arc"
         sodipodi:cx="-90.903275"
         sodipodi:cy="131.25742"
         sodipodi:rx="26.290289"
         sodipodi:ry="26.290289"
         sodipodi:start="1.5440928"
         sodipodi:end="1.5391413"
         sodipodi:open="true"
         d="m -90.201315,157.53833 a 26.290289,26.290289 0 0 1 -26.981985,-25.54642 26.290289,26.290289 0 0 1 25.513003,-27.01359 26.290289,26.290289 0 0 1 27.04515,25.47954 26.290289,26.290289 0 0 1 -25.446047,27.07667" />
    </g>
    <g
       transform="matrix(0.58458346,0,0,0.58458346,312.77059,98.072069)"
       id="g1443">
      <path
         transform="matrix(0.67800564,-0.11535905,0.11535905,0.67800564,-44.618199,31.730467)"
         d="m -28.612704,161.56343 -57.634388,39.36054 -62.904418,-30.23258 -5.27003,-69.59311 57.634391,-39.360535 62.904417,30.232577 z"
         inkscape:randomized="0"
         inkscape:rounded="0"
         inkscape:flatsided="true"
         sodipodi:arg2="0.97161551"
         sodipodi:arg1="0.44801673"
         sodipodi:r2="60.441963"
         sodipodi:r1="69.792366"
         sodipodi:cy="131.33086"
         sodipodi:cx="-91.51712"
         sodipodi:sides="6"
         id="path1427"
         style="opacity:1;fill:#ffab00;fill-opacity:0;stroke:#ffe57f;stroke-width:0.79374999;stroke-linecap:round;stroke-linejoin:round;stroke-miterlimit:4;stroke-dasharray:none;stroke-dashoffset:0;stroke-opacity:1;paint-order:markers fill stroke"
         sodipodi:type="star" />
      <path
         sodipodi:type="star"
         style="opacity:1;fill:#ffab00;fill-opacity:0;stroke:#ffe57f;stroke-width:0.79374999;stroke-linecap:round;stroke-linejoin:round;stroke-miterlimit:4;stroke-dasharray:none;stroke-dashoffset:0;stroke-opacity:1;paint-order:markers fill stroke"
         id="path1429"
         sodipodi:sides="6"
         sodipodi:cx="-91.51712"
         sodipodi:cy="131.33086"
         sodipodi:r1="69.792366"
         sodipodi:r2="60.441963"
         sodipodi:arg1="0.44801673"
         sodipodi:arg2="0.97161551"
         inkscape:flatsided="true"
         inkscape:rounded="0"
         inkscape:randomized="0"
         d="m -28.612704,161.56343 -57.634388,39.36054 -62.904418,-30.23258 -5.27003,-69.59311 57.634391,-39.360535 62.904417,30.232577 z"
         transform="matrix(0.52949058,-0.43890668,0.43890668,0.52949058,-100.70166,21.624929)" />
      <path
         style="opacity:1;fill:#ffab00;fill-opacity:0;stroke:#ffe57f;stroke-width:0.76808542;stroke-linecap:round;stroke-linejoin:round;stroke-miterlimit:4;stroke-dasharray:none;stroke-dashoffset:0;stroke-opacity:1;paint-order:markers fill stroke"
         id="path1431"
         sodipodi:type="arc"
         sodipodi:cx="-90.903282"
         sodipodi:cy="131.25742"
         sodipodi:rx="35.638878"
         sodipodi:ry="35.638878"
         sodipodi:start="1.5440928"
         sodipodi:end="1.5391413"
         sodipodi:open="true"
         d="m -89.951712,166.88359 a 35.638878,35.638878 0 0 1 -36.576538,-34.6305 35.638878,35.638878 0 0 1 34.585199,-36.619381 35.638878,35.638878 0 0 1 36.662161,34.539841 35.638878,35.638878 0 0 1 -34.494431,36.70489" />
      <path
         d="m -90.156385,159.22048 a 27.973036,27.973036 0 0 1 -28.709005,-27.18156 27.973036,27.973036 0 0 1 27.145998,-28.74263 27.973036,27.973036 0 0 1 28.776214,27.1104 27.973036,27.973036 0 0 1 -27.074757,28.80975"
         sodipodi:open="true"
         sodipodi:end="1.5391413"
         sodipodi:start="1.5440928"
         sodipodi:ry="27.973036"
         sodipodi:rx="27.973036"
         sodipodi:cy="131.25742"
         sodipodi:cx="-90.903275"
         sodipodi:type="arc"
         id="path1433"
         style="opacity:1;fill:none;fill-opacity:0;stroke:none;stroke-width:0.60287195;stroke-linecap:round;stroke-linejoin:round;stroke-miterlimit:4;stroke-dasharray:none;stroke-dashoffset:0;stroke-opacity:1;paint-order:markers fill stroke" />
      <text
         xml:space="preserve"
         style="font-style:normal;font-variant:normal;font-weight:bold;font-stretch:normal;font-size:10.58333302px;line-height:1.25;font-family:DS_Aqua-1;-inkscape-font-specification:'DS_Aqua-1 Bold';letter-spacing:0px;word-spacing:0px;fill:#ffd740;fill-opacity:1;stroke:none;stroke-width:0.26458332"
         id="text1439"
         transform="matrix(1.0114381,0,0,1.0114381,1.0399186,-1.5017938)"><textPath
           xlink:href="#path1402"
           id="textPath1437"><tspan
   style="font-style:normal;font-variant:normal;font-weight:bold;font-stretch:normal;font-family:DS_Aqua-1;-inkscape-font-specification:'DS_Aqua-1 Bold';fill:#ffd740;stroke-width:0.26458332"
   id="tspan1435"
   rotate="0 0 0 0 0 0 0 0 0 0 0 0 0 0 0 0 0 0 0 0 0 0 0 0 0 0.29999989 0 0 0 0 0 0 0 0 0 0">hayo ini tulisannya apa wahaha, lol</tspan></textPath></text>
      <path
         d="m -90.201315,157.53833 a 26.290289,26.290289 0 0 1 -26.981985,-25.54642 26.290289,26.290289 0 0 1 25.513003,-27.01359 26.290289,26.290289 0 0 1 27.04515,25.47954 26.290289,26.290289 0 0 1 -25.446047,27.07667"
         sodipodi:open="true"
         sodipodi:end="1.5391413"
         sodipodi:start="1.5440928"
         sodipodi:ry="26.290289"
         sodipodi:rx="26.290289"
         sodipodi:cy="131.25742"
         sodipodi:cx="-90.903275"
         sodipodi:type="arc"
         id="path1441"
         style="opacity:1;fill:#ffab00;fill-opacity:0;stroke:#ffe57f;stroke-width:0.56660563;stroke-linecap:round;stroke-linejoin:round;stroke-miterlimit:4;stroke-dasharray:none;stroke-dashoffset:0;stroke-opacity:1;paint-order:markers fill stroke" />
    </g>
    <text
       xml:space="preserve"
       style="font-style:normal;font-variant:normal;font-weight:bold;font-stretch:normal;font-size:19.85944748px;line-height:1.25;font-family:'Comic Sans MS';-inkscape-font-specification:'Comic Sans MS Bold';letter-spacing:0px;word-spacing:0px;fill:#1b5e20;fill-opacity:1;stroke:none;stroke-width:0.25278035;stroke-miterlimit:4;stroke-dasharray:none;filter:url(#filter1474);"
       x="124.88911"
       y="115.04031"
       id="text1468"><tspan
         sodipodi:role="line"
         x="124.88911"
         y="115.04031"
         style="font-style:normal;font-variant:normal;font-weight:bold;font-stretch:normal;font-family:'Cormorant Garamond';-inkscape-font-specification:'Cormorant Garamond Bold';fill:#1b5e20;stroke:none;stroke-width:0.25278035;stroke-miterlimit:4;stroke-dasharray:none;"
         id="tspan1466">Hari Raya</tspan></text>
    <text
       id="text1458"
       y="113.98198"
       x="125.94745"
       style="font-style:normal;font-variant:normal;font-weight:bold;font-stretch:normal;font-size:19.85944748px;line-height:1.25;font-family:'Comic Sans MS';-inkscape-font-specification:'Comic Sans MS Bold';letter-spacing:0px;word-spacing:0px;fill:#ffee58;fill-opacity:1;stroke:none;stroke-width:0.25278035;stroke-miterlimit:4;stroke-dasharray:none"
       xml:space="preserve"><tspan
         id="tspan1456"
         style="font-style:normal;font-variant:normal;font-weight:bold;font-stretch:normal;font-family:'Cormorant Garamond';-inkscape-font-specification:'Cormorant Garamond Bold';fill:#ffee58;stroke:none;stroke-width:0.25278035;stroke-miterlimit:4;stroke-dasharray:none"
         y="113.98198"
         x="125.94745"
         sodipodi:role="line">Hari Raya</tspan></text>
    <path
       inkscape:connector-curvature="0"
       id="path1490"
       d="m 102.09696,166.83435 c 2.40543,-0.53454 80.18086,0 80.18086,0"
       style="opacity:0.92000002;fill:#1b5e20;fill-opacity:1;stroke:#1b5e20;stroke-width:1.74624999;stroke-linecap:round;stroke-linejoin:round;stroke-miterlimit:4;stroke-dasharray:none;stroke-dashoffset:0;stroke-opacity:1;paint-order:markers fill stroke;filter:url(#filter1604)" />
    <path
       style="opacity:0.92000002;fill:#f1f8e9;fill-opacity:1;stroke:#ffee58;stroke-width:0.79374999;stroke-linecap:round;stroke-linejoin:round;stroke-miterlimit:4;stroke-dasharray:none;stroke-dashoffset:0;stroke-opacity:1;paint-order:markers fill stroke"
       d="m 102.09696,166.30518 c 2.40543,-0.53454 80.18086,0 80.18086,0"
       id="path1460"
       inkscape:connector-curvature="0" />
    <text
       xml:space="preserve"
       style="font-style:normal;font-variant:normal;font-weight:bold;font-stretch:normal;font-size:30.90565681px;line-height:1.25;font-family:'Comic Sans MS';-inkscape-font-specification:'Comic Sans MS Bold';letter-spacing:0px;word-spacing:0px;fill:#1b5e20;fill-opacity:1;stroke:#1b5e20;stroke-width:0.39338171;stroke-miterlimit:4;stroke-dasharray:none;filter:url(#filter1576)"
       x="183.40829"
       y="166.4422"
       id="text1494"><tspan
         sodipodi:role="line"
         x="183.40829"
         y="166.4422"
         style="font-style:normal;font-variant:normal;font-weight:bold;font-stretch:normal;font-family:'Cormorant Garamond';-inkscape-font-specification:'Cormorant Garamond Bold';fill:#1b5e20;stroke:#1b5e20;stroke-width:0.39338171;stroke-miterlimit:4;stroke-dasharray:none"
         id="tspan1492">H</tspan></text>
    <text
       id="text1464"
       y="165.78479"
       x="184.26616"
       style="font-style:normal;font-variant:normal;font-weight:bold;font-stretch:normal;font-size:30.90565681px;line-height:1.25;font-family:'Comic Sans MS';-inkscape-font-specification:'Comic Sans MS Bold';letter-spacing:0px;word-spacing:0px;fill:#ffee58;fill-opacity:1;stroke:none;stroke-width:0.39338171;stroke-miterlimit:4;stroke-dasharray:none"
       xml:space="preserve"><tspan
         id="tspan1462"
         style="font-style:normal;font-variant:normal;font-weight:bold;font-stretch:normal;font-family:'Cormorant Garamond';-inkscape-font-specification:'Cormorant Garamond Bold';fill:#ffee58;stroke:none;stroke-width:0.39338171;stroke-miterlimit:4;stroke-dasharray:none"
         y="165.78479"
         x="184.26616"
         sodipodi:role="line">H</tspan></text>
    <text
       id="text1658"
       y="235.35544"
       x="64.584488"
       style="font-style:normal;font-variant:normal;font-weight:bold;font-stretch:normal;font-size:30.90565681px;line-height:1.25;font-family:'Comic Sans MS';-inkscape-font-specification:'Comic Sans MS Bold';letter-spacing:0px;word-spacing:0px;fill:#ffee58;fill-opacity:1;stroke:none;stroke-width:0.39338171;stroke-miterlimit:4;stroke-dasharray:none"
       xml:space="preserve"><tspan
         id="tspan1656"
         style="font-style:normal;font-variant:normal;font-weight:bold;font-stretch:normal;font-family:'Cormorant Garamond';-inkscape-font-specification:'Cormorant Garamond Bold';fill:#ffee58;stroke:none;stroke-width:0.39338171;stroke-miterlimit:4;stroke-dasharray:none"
         y="262.2084"
         x="64.584488"
         sodipodi:role="line" /></text>
    <path
       style="opacity:0.60399996;fill:none;fill-opacity:1;stroke:none;stroke-width:1.29592276;stroke-linecap:round;stroke-linejoin:round;stroke-miterlimit:4;stroke-dasharray:none;stroke-dashoffset:0;stroke-opacity:1;paint-order:markers fill stroke"
       id="path1738"
       sodipodi:type="arc"
       sodipodi:cx="207.87404"
       sodipodi:cy="284.02072"
       sodipodi:rx="53.242355"
       sodipodi:ry="53.242355"
       sodipodi:start="1.5440928"
       sodipodi:end="1.5391413"
       sodipodi:open="true"
       d="m 209.29563,337.24409 a 53.242355,53.242355 0 0 1 -54.64316,-51.7359 53.242355,53.242355 0 0 1 51.66822,-54.70716 53.242355,53.242355 0 0 1 54.77108,51.60046 53.242355,53.242355 0 0 1 -51.53262,54.83491" />
    <path
       inkscape:transform-center-y="1.4115704"
       inkscape:transform-center-x="2.8076507"
       d="m 27.694246,292.51832 -46.93115,20.89509 -34.374939,-38.17723 25.68627,-44.48993 50.249927,10.68095 z"
       inkscape:randomized="0"
       inkscape:rounded="0"
       inkscape:flatsided="true"
       sodipodi:arg2="1.1519173"
       sodipodi:arg1="0.52359878"
       sodipodi:r2="35.354122"
       sodipodi:r1="43.700092"
       sodipodi:cy="270.66826"
       sodipodi:cx="-10.151144"
       sodipodi:sides="5"
       id="path1747"
       style="opacity:0.522;fill:none;fill-opacity:1;stroke:#ffee58;stroke-width:0.58197516;stroke-linecap:round;stroke-linejoin:round;stroke-miterlimit:4;stroke-dasharray:none;stroke-dashoffset:0;stroke-opacity:1;paint-order:markers fill stroke"
       sodipodi:type="star" />
    <path
       sodipodi:type="star"
       style="opacity:0.522;fill:none;fill-opacity:1;stroke:#ffee58;stroke-width:0.70615101;stroke-linecap:round;stroke-linejoin:round;stroke-miterlimit:4;stroke-dasharray:none;stroke-dashoffset:0;stroke-opacity:1;paint-order:markers fill stroke"
       id="path1749"
       sodipodi:sides="5"
       sodipodi:cx="-17.279663"
       sodipodi:cy="283.18793"
       sodipodi:r1="53.024368"
       sodipodi:r2="42.897621"
       sodipodi:arg1="0.52359878"
       sodipodi:arg2="1.1519173"
       inkscape:flatsided="true"
       inkscape:rounded="0"
       inkscape:randomized="0"
       d="m 28.640787,309.70011 -56.944836,25.35348 -41.709509,-46.32311 31.166942,-53.98272 60.971738,12.95994 z"
       inkscape:transform-center-x="-3.4951117"
       inkscape:transform-center-y="0.70675265"
       transform="matrix(0.58276285,0.58276285,-0.58276285,0.58276285,164.9502,115.70679)" />
    <path
       inkscape:transform-center-y="0.79333491"
       inkscape:transform-center-x="1.5779776"
       d="M 34.885776,174.69821 8.5091604,186.44184 -10.810514,164.98517 3.6258864,139.98059 31.867747,145.98358 Z"
       inkscape:randomized="0"
       inkscape:rounded="0"
       inkscape:flatsided="true"
       sodipodi:arg2="1.1519173"
       sodipodi:arg1="0.52359878"
       sodipodi:r2="19.870003"
       sodipodi:r1="24.560671"
       sodipodi:cy="162.41788"
       sodipodi:cx="13.615611"
       sodipodi:sides="5"
       id="path1753"
       style="opacity:0.68300003;fill:none;fill-opacity:1;stroke:#ffee58;stroke-width:0.32708624;stroke-linecap:round;stroke-linejoin:round;stroke-miterlimit:4;stroke-dasharray:none;stroke-dashoffset:0;stroke-opacity:1;paint-order:markers fill stroke"
       sodipodi:type="star" />
    <path
       sodipodi:type="star"
       style="opacity:0.68300003;fill:none;fill-opacity:1;stroke:#ffee58;stroke-width:0.17284897;stroke-linecap:round;stroke-linejoin:round;stroke-miterlimit:4;stroke-dasharray:none;stroke-dashoffset:0;stroke-opacity:1;paint-order:markers fill stroke"
       id="path1755"
       sodipodi:sides="5"
       sodipodi:cx="0.89784209"
       sodipodi:cy="186.5455"
       sodipodi:r1="12.979105"
       sodipodi:r2="10.500318"
       sodipodi:arg1="0.52359878"
       sodipodi:arg2="1.1519173"
       inkscape:flatsided="true"
       inkscape:rounded="0"
       inkscape:randomized="0"
       d="m 12.138077,193.03505 -13.9387426,6.20593 -10.2094964,-11.33879 7.6289266,-13.21369 14.9244324,3.17229 z"
       inkscape:transform-center-x="0.83388283"
       inkscape:transform-center-y="0.41923473" />
    <path
       style="opacity:1;fill:#558b2f;fill-opacity:1;stroke:none;stroke-width:2.00000001;stroke-linecap:round;stroke-linejoin:round;stroke-miterlimit:4;stroke-dasharray:none;stroke-dashoffset:0;stroke-opacity:0.92156863;paint-order:markers fill stroke"
       d="M -156 -156 L -156 956 L 956 956 L 956 -156 L -156 -156 z M 0 0 L 800 0 L 800 800 L 0 800 L 0 0 z "
       transform="matrix(0.26458333,0,0,0.26458333,0,85.333316)"
       id="path1761" />
  </g>
</svg>
