<?xml version="1.0" encoding="UTF-8" standalone="no"?>
<!-- Created with Inkscape (http://www.inkscape.org/) -->

<svg
   xmlns:dc="http://purl.org/dc/elements/1.1/"
   xmlns:cc="http://creativecommons.org/ns#"
   xmlns:rdf="http://www.w3.org/1999/02/22-rdf-syntax-ns#"
   xmlns:svg="http://www.w3.org/2000/svg"
   xmlns="http://www.w3.org/2000/svg"
   xmlns:xlink="http://www.w3.org/1999/xlink"
   xmlns:sodipodi="http://sodipodi.sourceforge.net/DTD/sodipodi-0.dtd"
   xmlns:inkscape="http://www.inkscape.org/namespaces/inkscape"
   width="800"
   height="800"
   viewBox="0 0 211.66666 211.66667"
   version="1.1"
   id="svg8"
   inkscape:version="0.92.3 (2405546, 2018-03-11)"
   sodipodi:docname="duks.svg"
   inkscape:export-filename="C:\Users\Zulf\Pictures\NGIKSCAPE\random 2020\duks.png"
   inkscape:export-xdpi="96"
   inkscape:export-ydpi="96">
  <defs
     id="defs2">
    <linearGradient
       inkscape:collect="always"
       id="linearGradient4559">
      <stop
         style="stop-color:#006064;stop-opacity:1"
         offset="0"
         id="stop4555" />
      <stop
         style="stop-color:#cfd8dc;stop-opacity:0.153"
         offset="1"
         id="stop4557" />
    </linearGradient>
    <linearGradient
       inkscape:collect="always"
       xlink:href="#linearGradient4559"
       id="linearGradient4561"
       x1="113.77084"
       y1="203.26189"
       x2="116.98363"
       y2="239.54761"
       gradientUnits="userSpaceOnUse"
       gradientTransform="matrix(1.2498732,0,0,1.2326036,-28.277359,-57.73089)" />
  </defs>
  <sodipodi:namedview
     id="base"
     pagecolor="#ffffff"
     bordercolor="#666666"
     borderopacity="1.0"
     inkscape:pageopacity="0.0"
     inkscape:pageshadow="2"
     inkscape:zoom="0.35"
     inkscape:cx="-375.52855"
     inkscape:cy="523.77956"
     inkscape:document-units="px"
     inkscape:current-layer="layer1"
     showgrid="false"
     units="px"
     inkscape:snap-global="true"
     inkscape:snap-page="true"
     inkscape:window-width="1366"
     inkscape:window-height="745"
     inkscape:window-x="-8"
     inkscape:window-y="-8"
     inkscape:window-maximized="1"
     showguides="false" />
  <metadata
     id="metadata5">
    <rdf:RDF>
      <cc:Work
         rdf:about="">
        <dc:format>image/svg+xml</dc:format>
        <dc:type
           rdf:resource="http://purl.org/dc/dcmitype/StillImage" />
        <dc:title />
      </cc:Work>
    </rdf:RDF>
  </metadata>
  <g
     inkscape:groupmode="layer"
     id="layer2"
     inkscape:label="Layer 2">
    <rect
       style="opacity:1;fill:#cfd8dc;fill-opacity:1;stroke:none;stroke-width:1.58749998;stroke-linecap:round;stroke-linejoin:round;stroke-miterlimit:4;stroke-dasharray:none;stroke-dashoffset:0;stroke-opacity:1;paint-order:markers fill stroke"
       id="rect4551"
       width="211.66666"
       height="211.66666"
       x="0"
       y="0"
       ry="0" />
  </g>
  <g
     inkscape:label="Layer 1"
     inkscape:groupmode="layer"
     id="layer1"
     transform="translate(0,-85.333316)">
    <g
       id="g4527"
       transform="matrix(1.4144057,0,0,1.3371817,-5.3211465,5.6104009)">
      <path
         sodipodi:nodetypes="cssccccscccc"
         inkscape:connector-curvature="0"
         id="path4520"
         d="m 74.083332,160.55058 c 0,0 -0.08871,-16.60783 2.355754,-20.43782 7.958431,-12.46926 15.649173,-8.21402 22.450637,2.13817 4.127797,6.28273 7.964367,47.20156 8.498907,49.87426 0.53454,2.67269 34.26422,4.38145 46.02408,14.53769 10.25398,6.99905 20.7778,16.43368 27.2022,25.32901 l -38.18346,7.51828 c 0,0 -13.073,3.2341 -20.02201,3.50137 -6.94901,0.26727 -20.57975,2.13815 -25.925141,-0.80181 -13.127973,-6.56663 -19.747703,-17.34393 -20.436847,-32.62474 0,-4.00905 0.124362,-41.14166 0.124362,-41.14166 z"
         style="opacity:1;fill:#fff8e1;fill-opacity:1;stroke:#000000;stroke-width:1.58749998;stroke-linecap:round;stroke-linejoin:round;stroke-miterlimit:4;stroke-dasharray:none;stroke-dashoffset:0;stroke-opacity:1;paint-order:markers fill stroke" />
      <path
         inkscape:connector-curvature="0"
         id="path4518"
         d="m 74.083332,160.55058 c 0,0 -3.401785,0 -7.181548,4.15773 -3.779761,4.15774 -6.80357,8.69346 -6.80357,8.69346 0,0 2.645834,2.26785 8.315476,0.75595 5.669642,-1.51191 16.252976,-7.9375 16.252976,-7.9375 l -2.080382,-4.45862 c 0,0 0.534538,-4.27631 -0.53454,-5.34539 -1.069078,-1.06908 -4.009044,-1.87089 -5.61266,-1.87089 -1.603618,0 -2.355752,6.00526 -2.355752,6.00526 z"
         style="opacity:1;fill:#ffc107;fill-opacity:1;stroke:#000000;stroke-width:1.58749998;stroke-linecap:round;stroke-linejoin:round;stroke-miterlimit:4;stroke-dasharray:none;stroke-dashoffset:0;stroke-opacity:1;paint-order:markers fill stroke" />
      <path
         d="m 90.956898,152.80686 a 2.109215,3.4076865 0 0 1 -2.164708,-3.31127 2.109215,3.4076865 0 0 1 2.046855,-3.50144 2.109215,3.4076865 0 0 1 2.169776,3.3026 2.109215,3.4076865 0 0 1 -2.041484,3.50962"
         sodipodi:open="true"
         sodipodi:end="1.5391413"
         sodipodi:start="1.5440928"
         sodipodi:ry="3.4076865"
         sodipodi:rx="2.109215"
         sodipodi:cy="149.40039"
         sodipodi:cx="90.900581"
         sodipodi:type="arc"
         id="path4522"
         style="opacity:1;fill:#000000;fill-opacity:1;stroke:#000000;stroke-width:1.30100965;stroke-linecap:round;stroke-linejoin:round;stroke-miterlimit:4;stroke-dasharray:none;stroke-dashoffset:0;stroke-opacity:1;paint-order:markers fill stroke" />
    </g>
    <path
       style="opacity:1;fill:url(#linearGradient4561);fill-opacity:1;stroke:none;stroke-width:1.97041821;stroke-linecap:round;stroke-linejoin:round;stroke-miterlimit:4;stroke-dasharray:none;stroke-dashoffset:0;stroke-opacity:1;paint-order:markers fill stroke"
       d="m 102.34741,193.04339 -2.598322,21.66412 2.125892,26.556 c 0,0 4.48801,-4.8919 5.43287,-5.59073 0.94484,-0.69885 2.59831,-1.86359 4.25179,-0.69885 1.65348,1.16473 0,5.59074 3.54316,3.26126 3.54317,-2.32948 4.25181,-5.82368 6.37771,-5.82368 2.12589,0 10.15708,3.26127 10.8657,6.05663 0.70864,2.79537 4.25181,4.89189 4.25181,3.26127 0,-1.63064 3.54316,-15.14159 3.54316,-15.14159 0,0 2.36212,3.49421 2.1259,2.56243 -0.23621,-0.9318 -6.85012,-32.61264 -6.85012,-32.61264 0,0 -12.51918,-11.88032 -13.70024,-12.57916 -1.18105,-0.69885 -5.66906,-0.46589 -8.03117,-0.23295 -2.36211,0.23295 -11.33814,9.31789 -11.33814,9.31789 z"
       id="path4553"
       inkscape:connector-curvature="0"
       sodipodi:nodetypes="ccccscscscccccc" />
    <path
       sodipodi:nodetypes="cccccccc"
       inkscape:connector-curvature="0"
       id="path4543"
       d="M 307.44328,391.04518 105.7666,133.92936 c -12.792099,46.4113 20.89408,190.83258 94.96614,229.86005 l 41.73521,-19.59272 -2.04547,21.87761 c 0,0 60.59429,72.43615 64.9402,73.81192 4.34591,1.37578 26.85525,-5.40287 26.85525,-5.40287 z"
       style="opacity:0.182;fill:#212121;fill-opacity:1;stroke:none;stroke-width:2.30861378;stroke-linecap:round;stroke-linejoin:round;stroke-miterlimit:4;stroke-dasharray:none;stroke-dashoffset:0;stroke-opacity:1;paint-order:markers fill stroke" />
    <g
       id="g4548"
       transform="matrix(1.5500678,0,0,1.4258016,-43.731065,-76.99785)">
      <path
         sodipodi:nodetypes="cccccccc"
         inkscape:connector-curvature="0"
         id="path4529"
         d="M 280.36363,324.53201 119.00591,115.93631 c -10.23472,37.65306 16.71696,154.82072 75.98062,186.48335 l 33.39156,-15.8954 -1.63654,17.74911 c 0,0 48.48035,58.76678 51.95743,59.88293 3.47708,1.11616 21.48638,-4.3833 21.48638,-4.3833 z"
         style="opacity:1;fill:#bdbdbd;fill-opacity:1;stroke:#000000;stroke-width:1.85997272;stroke-linecap:round;stroke-linejoin:round;stroke-miterlimit:4;stroke-dasharray:none;stroke-dashoffset:0;stroke-opacity:1;paint-order:markers fill stroke" />
      <path
         inkscape:connector-curvature="0"
         id="path4533"
         d="m 228.37809,286.52426 c 0,0 -18.05766,5.0324 -26.53881,-1.24154 -8.48115,-6.27395 -9.07142,-10.96131 -11.33928,-15.49702 -2.26786,-4.53572 -4.58101,-7.44746 -16.25298,-12.8512 -11.67197,-5.40373 -14.74107,-13.22916 -14.36309,-18.8988 0.37797,-5.66965 2.64583,-12.85119 -7.18155,-22.3006 -9.82738,-9.4494 -16.25298,-17.00893 -16.25298,-21.16667 0,-4.15773 2.26786,-22.67857 2.26786,-22.67857 l -10.96131,-12.09524 c 0,0 -3.77976,-21.92261 -4.91369,-26.08035 -1.13393,-4.15774 -3.83635,-17.77796 -3.83635,-17.77796 l 123.27683,159.14105 z"
         style="opacity:1;fill:#212121;fill-opacity:1;stroke:#000000;stroke-width:1.58749998;stroke-linecap:round;stroke-linejoin:round;stroke-miterlimit:4;stroke-dasharray:none;stroke-dashoffset:0;stroke-opacity:1;paint-order:markers fill stroke" />
      <path
         d="m 115.00741,137.3738 -3.73937,-9.64327 -10.15954,0.0209 9.64327,-3.73937 -0.0209,-10.15955 3.73937,9.64328 10.15955,-0.0209 -9.64328,3.73937 z"
         inkscape:randomized="0"
         inkscape:rounded="0"
         inkscape:flatsided="false"
         sodipodi:arg2="2.2182353"
         sodipodi:arg1="1.3909429"
         sodipodi:r2="2.6545432"
         sodipodi:r1="11.953429"
         sodipodi:cy="125.61318"
         sodipodi:cx="112.86912"
         sodipodi:sides="4"
         id="path4535"
         style="opacity:1;fill:#fafafa;fill-opacity:1;stroke:#000000;stroke-width:1.12260461;stroke-linecap:round;stroke-linejoin:round;stroke-miterlimit:4;stroke-dasharray:none;stroke-dashoffset:0;stroke-opacity:1;paint-order:markers fill stroke"
         sodipodi:type="star" />
    </g>
    <path
       style="opacity:0.94599998;fill:#b2dfdb;fill-opacity:1;stroke:#000000;stroke-width:1.97041821;stroke-linecap:round;stroke-linejoin:round;stroke-miterlimit:4;stroke-dasharray:none;stroke-dashoffset:0;stroke-opacity:1;paint-order:markers fill stroke"
       d="m 130.23079,176.74213 c -0.83513,3.12967 -4.00201,11.8656 -3.83722,14.12284 0.54481,7.46237 9.88879,9.72849 9.3491,-0.94533 z"
       id="path4531"
       inkscape:connector-curvature="0"
       sodipodi:nodetypes="cscc" />
    <path
       inkscape:connector-curvature="0"
       id="path4579"
       style="font-style:normal;font-variant:normal;font-weight:bold;font-stretch:normal;font-size:medium;line-height:1.25;font-family:'Eras Demi ITC';-inkscape-font-specification:'Eras Demi ITC Bold';letter-spacing:0px;word-spacing:0px;fill:#000000;fill-opacity:1;stroke:none;stroke-width:0.71747065"
       d="m 4.5492348,112.19616 q -0.1121047,-2.12999 -0.294275,-3.47525 2.7465671,1.24717 4.9886627,1.24717 0.8968385,0 1.6675585,-0.26625 0.784734,-0.28026 1.149074,-0.77072 0.378354,-0.50447 0.378354,-1.12105 0,-0.47645 -0.168157,-0.8548 -0.252236,-0.51848 -0.840786,-1.07901 -0.81276,-0.77072 -2.9007114,-2.53637 -0.99493,-0.8548 -1.3732836,-1.21914 Q 6.3148851,101.322 5.866466,100.69141 5.4180469,100.0468 5.2218635,99.416214 5.0256802,98.785625 5.0256802,98.070957 q 0,-1.317231 0.728681,-2.466305 0.7426942,-1.163087 2.2000564,-1.80769 1.4713752,-0.658616 3.6994574,-0.658616 2.003873,0 4.512218,0.490459 0.07006,1.457362 0.280262,3.335117 -2.186044,-0.840786 -4.035772,-0.840786 -1.373284,0 -2.256109,0.63059 -0.8688122,0.616576 -0.8688122,1.443349 0,0.224209 0.056052,0.476445 0.056052,0.238223 0.1681572,0.476445 0.1121048,0.22421 0.3923667,0.602564 0.2942753,0.364341 0.8407863,0.868811 0.560524,0.49046 0.952891,0.79875 l 1.94782,1.56946 q 0.658616,0.54651 1.1771,1.065 0.518485,0.51848 0.882826,0.99493 0.378353,0.47644 0.58855,0.91085 0.210196,0.43441 0.308288,0.89684 0.112105,0.44842 0.112105,0.95289 0,1.1771 -0.546511,2.22808 -0.546511,1.03697 -1.569467,1.7096 -1.022956,0.67263 -2.242096,0.92486 -1.219139,0.26625 -2.5784101,0.26625 -0.8968383,0 -2.0879516,-0.15414 -1.1911133,-0.15414 -3.1389335,-0.58855 z" />
    <path
       inkscape:connector-curvature="0"
       id="path4581"
       style="font-style:normal;font-variant:normal;font-weight:bold;font-stretch:normal;font-size:medium;line-height:1.25;font-family:'Eras Demi ITC';-inkscape-font-specification:'Eras Demi ITC Bold';letter-spacing:0px;word-spacing:0px;fill:#000000;fill-opacity:1;stroke:none;stroke-width:0.71747065"
       d="m 32.253129,109.42157 q -0.182171,0.82677 -0.518485,2.97077 -1.513415,0.3223 -2.550384,0.43441 -1.036969,0.1121 -2.087951,0.1121 -1.835716,0 -3.293078,-0.36434 -1.443349,-0.36434 -2.536371,-1.33124 -1.093022,-0.98092 -1.611506,-2.39624 -0.518485,-1.41532 -0.518485,-2.97078 0,-1.72361 0.602563,-3.33512 0.602564,-1.62551 1.681572,-2.64847 1.093022,-1.03697 2.480318,-1.457363 1.387297,-0.434406 2.900712,-0.434406 1.429335,0 2.71854,0.364341 1.289205,0.350327 2.158018,1.163087 0.882825,0.812761 1.345257,1.961831 0.476445,1.13506 0.476445,2.53637 0,0.65862 -0.140131,1.35927 l -10.2716,0.014 q -0.02803,0.51848 -0.02803,0.82677 0,0.93888 0.322302,1.72361 0.322301,0.78473 0.938877,1.33124 0.616577,0.54652 1.471376,0.81276 0.854798,0.25224 1.681571,0.25224 0.966904,0 2.087952,-0.2102 1.135061,-0.21019 2.690515,-0.71466 z m -9.052462,-5.6613 6.55813,0.014 q 0,-0.67263 -0.04204,-0.99493 -0.04204,-0.3223 -0.196184,-0.72868 -0.14013,-0.4204 -0.392366,-0.72868 -0.252236,-0.32231 -0.58855,-0.5325 -0.336315,-0.2102 -0.784734,-0.3223 -0.434406,-0.11211 -0.938877,-0.11211 -0.58855,0 -1.149074,0.18217 -0.546511,0.18217 -1.008943,0.5325 -0.462433,0.35033 -0.756708,0.78473 -0.280262,0.43441 -0.420393,0.84079 -0.140131,0.39237 -0.280262,1.06499 z" />
    <path
       inkscape:connector-curvature="0"
       id="path4583"
       style="font-style:normal;font-variant:normal;font-weight:bold;font-stretch:normal;font-size:medium;line-height:1.25;font-family:'Eras Demi ITC';-inkscape-font-specification:'Eras Demi ITC Bold';letter-spacing:0px;word-spacing:0px;fill:#000000;fill-opacity:1;stroke:none;stroke-width:0.71747065"
       d="m 35.630286,112.60254 q 0.210197,-2.36821 0.504472,-8.50595 0.308288,-6.151751 0.378353,-10.621929 1.457362,0.02803 2.073939,0.02803 0.826772,0 2.017886,-0.02803 l -0.336315,5.11478 -0.490458,11.406659 -0.05605,2.60644 q -1.149074,-0.028 -1.947821,-0.028 -0.266249,0 -2.144004,0.028 z" />
    <path
       style="font-style:normal;font-variant:normal;font-weight:bold;font-stretch:normal;font-size:medium;line-height:1.25;font-family:'Eras Demi ITC';-inkscape-font-specification:'Eras Demi ITC Bold';letter-spacing:0px;word-spacing:0px;fill:#000000;fill-opacity:1;stroke:none;stroke-width:2.7117002"
       d="M 198.20898 80.347656 L 197.79688 88.234375 C 197.51441 93.848435 197.14456 98.7921 196.68555 103.06445 C 199.58085 102.9939 202.10594 102.95898 204.25977 102.95898 C 206.51952 102.95898 208.99038 102.9939 211.67383 103.06445 C 211.77975 94.272617 212.11475 85.764007 212.67969 77.537109 C 213.1096 71.249626 213.22147 68.476867 213.32422 65.808594 L 198.20898 80.347656 z "
       id="path4637"
       transform="matrix(0.26458333,0,0,0.26458333,0,85.333316)" />
    <path
       style="font-style:normal;font-variant:normal;font-weight:bold;font-stretch:normal;font-size:medium;line-height:1.25;font-family:'Eras Demi ITC';-inkscape-font-specification:'Eras Demi ITC Bold';letter-spacing:0px;word-spacing:0px;fill:#000000;fill-opacity:1;stroke:none;stroke-width:2.7117002"
       d="M 182.18945 95.757812 L 173.72656 103.89844 C 175.51255 104.18163 177.47006 104.33594 179.63086 104.33594 C 180.90197 104.33594 182.27876 104.28356 183.76172 104.17773 C 185.24468 104.07181 187.23918 103.8065 189.74609 103.38281 C 190.73473 99.392942 191.60032 96.391505 192.3418 94.378906 C 190.22328 95.084998 188.52892 95.526495 187.25781 95.703125 C 186.02201 95.879755 184.83886 95.966797 183.70898 95.966797 C 183.12676 95.966797 182.72175 95.803893 182.18945 95.757812 z "
       id="path4635"
       transform="matrix(0.26458333,0,0,0.26458333,0,85.333316)" />
    <path
       style="font-style:normal;font-variant:normal;font-weight:bold;font-stretch:normal;font-size:medium;line-height:1.25;font-family:'Eras Demi ITC';-inkscape-font-specification:'Eras Demi ITC Bold';letter-spacing:0px;word-spacing:0px;fill:#fff8e1;fill-opacity:1;stroke:none;stroke-width:2.7117002"
       d="M 176.13086 93.392578 L 167.76758 101.97266 C 168.09092 102.13797 168.32306 102.39038 168.66797 102.53516 C 170.13888 103.15257 171.83538 103.59856 173.72656 103.89844 L 182.18945 95.757812 C 181.1077 95.664166 179.97714 95.615989 179.10156 95.332031 C 177.9329 94.952998 176.96046 94.280192 176.13086 93.392578 z "
       id="path4633"
       transform="matrix(0.26458333,0,0,0.26458333,0,85.333316)" />
    <path
       style="font-style:normal;font-variant:normal;font-weight:bold;font-stretch:normal;font-size:medium;line-height:1.25;font-family:'Eras Demi ITC';-inkscape-font-specification:'Eras Demi ITC Bold';letter-spacing:0px;word-spacing:0px;fill:#000000;fill-opacity:1;stroke:none;stroke-width:2.7117002"
       d="M 212.30273 56.275391 C 211.87458 55.305797 211.45342 54.329947 210.77344 53.597656 C 208.93739 51.620374 206.39487 50.189354 203.14648 49.306641 C 199.89809 48.388616 196.33121 47.929688 192.44727 47.929688 C 189.02233 47.929688 185.47483 48.160127 181.80273 48.619141 C 178.13064 49.078152 173.89376 49.872078 169.0918 51.001953 C 168.77401 53.085161 168.54357 54.638152 168.40234 55.662109 C 168.29642 56.686059 167.99627 58.469508 167.50195 61.011719 C 175.26984 57.93987 182.3668 56.404297 188.79297 56.404297 C 190.52309 56.404297 192.09547 56.597944 193.50781 56.986328 C 194.95546 57.339437 196.12119 57.993943 197.00391 58.947266 C 197.92193 59.900588 198.38086 61.064373 198.38086 62.441406 C 198.38086 63.147598 198.22207 63.836972 197.9043 64.507812 C 197.62183 65.178679 197.16095 65.831232 196.52539 66.466797 C 195.88984 67.067036 195.13076 67.560809 194.24805 67.949219 C 193.40064 68.337603 192.25429 68.744259 190.80664 69.167969 C 189.35899 69.556353 187.96477 69.891346 186.62305 70.173828 C 181.57392 71.268379 177.51326 72.364408 174.44141 73.458984 C 171.36956 74.518235 169.02068 75.629744 167.39648 76.794922 C 165.77229 77.924799 164.44778 79.107945 163.42383 80.34375 C 162.39988 81.579555 161.62338 82.938914 161.09375 84.421875 C 160.56412 85.904836 160.29883 87.405567 160.29883 88.923828 C 160.29883 91.571967 160.97077 94.201615 162.3125 96.814453 C 163.52347 99.112192 165.40976 100.76715 167.76758 101.97266 L 176.13086 93.392578 C 176.03307 93.287954 175.91143 93.219112 175.81836 93.107422 C 174.97095 92.012845 174.54688 90.725148 174.54688 89.242188 C 174.54687 88.324165 174.70566 87.476012 175.02344 86.699219 C 175.37652 85.887124 175.92453 85.128042 176.66602 84.421875 C 177.4075 83.680382 178.30793 83.027829 179.36719 82.462891 C 180.46175 81.862651 181.67976 81.332058 183.02148 80.873047 C 184.36321 80.414036 186.1447 79.885396 188.36914 79.285156 C 189.37928 78.996541 189.75287 78.875956 190.48633 78.660156 L 212.30273 56.275391 z "
       id="path4631"
       transform="matrix(0.26458333,0,0,0.26458333,0,85.333316)" />
    <path
       style="font-style:normal;font-variant:normal;font-weight:bold;font-stretch:normal;font-size:medium;line-height:1.25;font-family:'Eras Demi ITC';-inkscape-font-specification:'Eras Demi ITC Bold';letter-spacing:0px;word-spacing:0px;fill:#fff8e1;fill-opacity:1;stroke:none;stroke-width:2.7117002"
       d="M 212.30273 56.275391 L 190.48633 78.660156 C 191.36803 78.40074 192.54938 78.062394 193.03125 77.908203 C 193.91396 77.59042 194.70789 77.253474 195.41406 76.900391 C 196.12023 76.547307 197.1446 75.929596 198.48633 75.046875 L 198.20898 80.347656 L 213.32422 65.808594 C 213.35649 64.970556 213.52734 62.606028 213.52734 62.125 C 213.52734 59.79065 213.03065 57.923828 212.30273 56.275391 z "
       id="path4585"
       transform="matrix(0.26458333,0,0,0.26458333,0,85.333316)" />
    <path
       style="font-style:normal;font-variant:normal;font-weight:bold;font-stretch:normal;font-size:medium;line-height:1.25;font-family:'Eras Demi ITC';-inkscape-font-specification:'Eras Demi ITC Bold';letter-spacing:0px;word-spacing:0px;fill:#000000;fill-opacity:1;stroke:none;stroke-width:2.7117002"
       d="M 294.77148 90.460938 C 294.51882 94.804893 294.25862 99.049689 293.97852 103.06445 C 297.12098 102.9939 299.85713 102.95898 302.1875 102.95898 C 304.16478 102.95898 306.442 102.9939 309.01953 103.06445 C 309.05484 99.003955 309.24848 93.266366 309.60156 85.851562 C 309.82538 81.129167 309.99063 78.694858 310.17188 75.646484 L 294.77148 90.460938 z "
       id="path4665"
       transform="matrix(0.26458333,0,0,0.26458333,0,85.333316)" />
    <path
       style="font-style:normal;font-variant:normal;font-weight:bold;font-stretch:normal;font-size:medium;line-height:1.25;font-family:'Eras Demi ITC';-inkscape-font-specification:'Eras Demi ITC Bold';letter-spacing:0px;word-spacing:0px;fill:#000000;fill-opacity:1;stroke:none;stroke-width:2.7117002"
       d="M 274.61523 102.20703 L 273.79102 103.05273 C 274.10097 103.05963 274.27187 103.0567 274.59375 103.06445 L 274.61523 102.20703 z "
       id="path4663"
       transform="matrix(0.26458333,0,0,0.26458333,0,85.333316)" />
    <path
       style="font-style:normal;font-variant:normal;font-weight:bold;font-stretch:normal;font-size:medium;line-height:1.25;font-family:'Eras Demi ITC';-inkscape-font-specification:'Eras Demi ITC Bold';letter-spacing:0px;word-spacing:0px;fill:#000000;fill-opacity:1;stroke:none;stroke-width:2.7117002"
       d="M 310.73047 65.148438 C 310.76684 64.264412 310.87305 62.933387 310.87305 62.283203 C 310.87305 59.070126 310.09655 56.386241 308.54297 54.232422 C 306.98939 52.043289 304.85353 50.455438 302.13477 49.466797 C 299.41601 48.442847 296.52107 47.929688 293.44922 47.929688 C 291.64848 47.929688 289.89989 48.107852 288.20508 48.460938 C 286.54557 48.778715 285.04485 49.237644 283.70312 49.837891 C 282.3614 50.438138 281.14339 51.177833 280.04883 52.060547 C 278.95426 52.943261 278.07125 53.808842 277.40039 54.65625 C 276.76484 55.46835 276.05804 56.492711 275.28125 57.728516 C 274.57508 56.033697 273.92251 54.763424 273.32227 53.916016 C 272.72202 53.033302 271.98037 52.237422 271.09766 51.53125 C 270.25025 50.825078 269.20846 50.207362 267.97266 49.677734 C 266.77216 49.112796 265.43023 48.688719 263.94727 48.40625 C 262.4643 48.088472 260.92873 47.929688 259.33984 47.929688 C 257.22133 47.929688 255.15712 48.194979 253.14453 48.724609 C 251.16725 49.218929 249.43609 49.908299 247.95312 50.791016 C 246.47016 51.673729 245.25216 52.643867 244.29883 53.703125 C 243.3808 54.727075 242.35644 56.069006 241.22656 57.728516 L 241.65039 49.201172 C 239.14348 49.271799 236.81398 49.306641 234.66016 49.306641 C 232.7888 49.306641 230.35279 49.271799 227.35156 49.201172 C 227.35156 55.238945 227.06884 64.225844 226.50391 76.160156 C 225.97428 88.094443 225.46112 97.061984 224.9668 103.06445 C 228.2858 102.9939 230.8806 102.95898 232.75195 102.95898 C 234.41146 102.95898 236.86684 102.9939 240.11523 103.06445 C 240.11523 98.439017 240.29145 92.207629 240.64453 84.369141 C 241.03293 76.495301 241.65064 71.199209 242.49805 68.480469 C 243.38076 65.761703 244.75755 63.589033 246.62891 61.964844 C 248.50026 60.34063 250.67293 59.529297 253.14453 59.529297 C 254.48626 59.529297 255.66746 59.759739 256.69141 60.21875 C 257.71536 60.677761 258.59836 61.400023 259.33984 62.388672 C 260.11664 63.341995 260.6298 64.366361 260.87695 65.460938 C 261.12411 66.520188 261.24609 67.827272 261.24609 69.380859 C 261.24609 72.31148 261.0176 77.977433 260.55859 86.380859 C 260.09958 94.784311 259.74716 100.34569 259.5 103.06445 C 262.74839 102.9939 265.34318 102.95898 267.28516 102.95898 C 269.01383 102.95898 271.27895 102.99683 273.79102 103.05273 L 274.61523 102.20703 L 274.96484 88.341797 C 275.14139 83.08082 275.36988 78.843962 275.65234 75.630859 C 275.93481 72.382481 276.37632 69.874818 276.97656 68.109375 C 277.57681 66.308657 278.42496 64.738217 279.51953 63.396484 C 280.64941 62.054752 281.84999 61.082661 283.12109 60.482422 C 284.42751 59.882183 285.874 59.582031 287.46289 59.582031 C 288.98116 59.582031 290.34052 59.864749 291.54102 60.429688 C 292.77682 60.9593 293.78376 61.877162 294.56055 63.183594 C 295.37264 64.454699 295.7793 66.344652 295.7793 68.851562 C 295.7793 70.970063 295.6902 73.56487 295.51367 76.636719 L 295.28516 80.998047 L 310.73047 65.148438 z "
       id="path4661"
       transform="matrix(0.26458333,0,0,0.26458333,0,85.333316)" />
    <path
       style="font-style:normal;font-variant:normal;font-weight:bold;font-stretch:normal;font-size:medium;line-height:1.25;font-family:'Eras Demi ITC';-inkscape-font-specification:'Eras Demi ITC Bold';letter-spacing:0px;word-spacing:0px;fill:#fff8e1;fill-opacity:1;stroke:none;stroke-width:2.7117002"
       d="M 310.73047 65.148438 L 295.28516 80.998047 L 294.87891 88.765625 C 294.84542 89.355908 294.80547 89.876611 294.77148 90.460938 L 310.17188 75.646484 C 310.27657 73.885709 310.41146 70.954217 310.50195 69.751953 C 310.65429 67.72798 310.67203 66.568775 310.73047 65.148438 z "
       id="path4587"
       transform="matrix(0.26458333,0,0,0.26458333,0,85.333316)" />
    <path
       style="font-style:normal;font-variant:normal;font-weight:bold;font-stretch:normal;font-size:medium;line-height:1.25;font-family:'Eras Demi ITC';-inkscape-font-specification:'Eras Demi ITC Bold';letter-spacing:0px;word-spacing:0px;fill:#000000;fill-opacity:1;stroke:none;stroke-width:2.7117002"
       d="M 326.07812 60.345703 C 326.02261 60.63862 326.02833 60.695278 325.9668 61.011719 C 333.73469 57.93987 340.83165 56.404297 347.25781 56.404297 C 348.98793 56.404297 350.56031 56.597944 351.97266 56.986328 C 353.42031 57.339437 354.58603 57.993943 355.46875 58.947266 C 356.38677 59.900588 356.8457 61.064373 356.8457 62.441406 C 356.8457 63.147598 356.68692 63.836972 356.36914 64.507812 C 356.08667 65.178679 355.62774 65.831232 354.99219 66.466797 C 354.35663 67.067036 353.5956 67.560809 352.71289 67.949219 C 351.86548 68.337603 350.71914 68.744259 349.27148 69.167969 C 347.82383 69.556353 346.42962 69.891346 345.08789 70.173828 C 340.03876 71.268379 335.9781 72.364408 332.90625 73.458984 C 329.8344 74.518235 327.48552 75.629744 325.86133 76.794922 C 324.23713 77.924799 322.91262 79.107945 321.88867 80.34375 C 320.86472 81.579555 320.08822 82.938914 319.55859 84.421875 C 319.02896 85.904836 318.76367 87.405567 318.76367 88.923828 C 318.76367 91.571967 319.43562 94.201615 320.77734 96.814453 C 322.15438 99.427291 324.27282 101.33465 327.13281 102.53516 C 329.99281 103.73563 333.64682 104.33594 338.0957 104.33594 C 339.36681 104.33594 340.7436 104.28356 342.22656 104.17773 C 343.70953 104.07181 345.70598 103.8065 348.21289 103.38281 C 349.20153 99.392942 350.06516 96.391505 350.80664 94.378906 C 348.68812 95.084998 346.99376 95.526495 345.72266 95.703125 C 344.48686 95.879755 343.30371 95.966797 342.17383 95.966797 C 340.4084 95.966797 338.87283 95.755716 337.56641 95.332031 C 336.25999 94.908321 335.16592 94.166672 334.2832 93.107422 C 333.4358 92.012845 333.01172 90.725148 333.01172 89.242188 C 333.01172 88.324165 333.17051 87.476012 333.48828 86.699219 C 333.84137 85.887124 334.38938 85.128042 335.13086 84.421875 C 335.87234 83.680382 336.77277 83.027829 337.83203 82.462891 C 338.9266 81.862651 340.1446 81.332058 341.48633 80.873047 C 342.82806 80.414036 344.6115 79.885396 346.83594 79.285156 C 349.06038 78.649591 350.61338 78.19066 351.49609 77.908203 C 352.37881 77.59042 353.17273 77.253474 353.87891 76.900391 C 354.58508 76.547307 355.60944 75.929596 356.95117 75.046875 L 356.26172 88.234375 C 355.97925 93.848435 355.6094 98.7921 355.15039 103.06445 C 358.0457 102.9939 360.57079 102.95898 362.72461 102.95898 C 364.98436 102.95898 367.45522 102.9939 370.13867 103.06445 C 370.2446 94.272617 370.57959 85.764007 371.14453 77.537109 C 371.70947 69.274886 371.99219 64.137598 371.99219 62.125 C 371.99219 58.417611 371.07433 55.574939 369.23828 53.597656 C 367.40223 51.620374 364.85972 50.189354 361.61133 49.306641 C 358.36294 48.388616 354.79801 47.929688 350.91406 47.929688 C 347.48913 47.929688 343.93967 48.160127 340.26758 48.619141 C 339.551 48.708713 338.54672 48.968865 337.78711 49.083984 L 326.07812 60.345703 z "
       id="path4656"
       transform="matrix(0.26458333,0,0,0.26458333,0,85.333316)" />
    <path
       style="font-style:normal;font-variant:normal;font-weight:bold;font-stretch:normal;font-size:medium;line-height:1.25;font-family:'Eras Demi ITC';-inkscape-font-specification:'Eras Demi ITC Bold';letter-spacing:0px;word-spacing:0px;fill:#fff8e1;fill-opacity:1;stroke:none;stroke-width:2.7117002"
       d="M 326.07812 60.345703 L 337.78711 49.083984 C 334.65414 49.55879 331.42154 50.092565 327.55664 51.001953 C 327.23886 53.085161 327.00842 54.638152 326.86719 55.662109 C 326.77445 56.558603 326.46859 58.285393 326.07812 60.345703 z "
       id="path4589"
       transform="matrix(0.26458333,0,0,0.26458333,0,85.333316)" />
    <path
       inkscape:connector-curvature="0"
       id="path4591"
       style="font-style:normal;font-variant:normal;font-weight:bold;font-stretch:normal;font-size:medium;line-height:1.25;font-family:'Eras Demi ITC';-inkscape-font-specification:'Eras Demi ITC Bold';letter-spacing:0px;word-spacing:0px;fill:#000000;fill-opacity:1;stroke:none;stroke-width:0.71747065"
       d="m 110.16595,109.6738 q -0.16815,0.77072 -0.53249,2.85867 -1.1771,0.26625 -1.84973,0.33632 -0.67263,0.0701 -1.26118,0.0701 -1.03697,0 -1.86374,-0.19618 -0.81276,-0.19618 -1.34526,-0.68664 -0.5325,-0.50447 -0.72868,-1.16309 -0.18217,-0.67263 -0.18217,-1.3873 0,-0.18217 0.014,-0.49045 0.014,-0.30829 0.11211,-1.98986 l 0.3223,-5.82945 h -2.01789 q 0.0701,-0.84079 0.12612,-2.70453 h 2.11598 q 0.0841,-0.81276 0.16815,-2.76058 l 1.65355,-0.322302 q 0.51848,-0.09809 2.00387,-0.462432 -0.0981,1.891768 -0.1121,3.545314 h 3.55932 q -0.0981,1.89177 -0.0981,2.70453 h -3.57334 q -0.29427,5.70333 -0.29427,6.60017 0,0.86881 0.18217,1.34525 0.19618,0.47645 0.61657,0.68665 0.4204,0.21019 0.89684,0.21019 0.35033,0 0.72868,-0.056 0.39237,-0.056 1.35927,-0.30829 z" />
    <path
       style="font-style:normal;font-variant:normal;font-weight:bold;font-stretch:normal;font-size:medium;line-height:1.25;font-family:'Eras Demi ITC';-inkscape-font-specification:'Eras Demi ITC Bold';letter-spacing:0px;word-spacing:0px;fill:#000000;fill-opacity:1;stroke:none;stroke-width:2.7117002"
       d="M 89.091797 185.30859 C 90.235393 185.38447 91.581324 185.56641 92.580078 185.56641 C 96.00501 185.56641 99.25237 185.23141 102.32422 184.56055 C 105.39607 183.92498 108.2213 182.75927 110.79883 181.06445 C 113.37636 179.36966 115.35343 177.21635 116.73047 174.60352 C 118.1075 171.95535 118.79687 169.14756 118.79688 166.18164 C 118.79688 164.91054 118.65552 163.70996 118.37305 162.58008 C 118.12589 161.4149 117.73666 160.28598 117.20703 159.19141 C 117.11905 159.00958 116.93756 158.80389 116.83789 158.61914 L 89.091797 185.30859 z "
       id="path4651"
       transform="matrix(0.26458333,0,0,0.26458333,0,85.333316)" />
    <path
       style="font-style:normal;font-variant:normal;font-weight:bold;font-stretch:normal;font-size:medium;line-height:1.25;font-family:'Eras Demi ITC';-inkscape-font-specification:'Eras Demi ITC Bold';letter-spacing:0px;word-spacing:0px;fill:#000000;fill-opacity:1;stroke:none;stroke-width:2.7117002"
       d="M 99.605469 171.91797 C 98.840616 172.46306 97.951243 172.94557 96.869141 173.33203 C 94.927166 174.0029 92.826156 174.33789 90.566406 174.33789 C 84.91703 174.33789 78.631421 172.76748 71.710938 169.625 C 72.169951 173.01463 72.541752 177.39286 72.824219 182.75977 C 77.732114 183.85434 81.68627 184.59599 84.6875 184.98438 C 85.462135 185.08463 85.99937 185.06039 86.724609 185.13477 L 99.605469 171.91797 z "
       id="path4649"
       transform="matrix(0.26458333,0,0,0.26458333,0,85.333316)" />
    <path
       style="font-style:normal;font-variant:normal;font-weight:bold;font-stretch:normal;font-size:medium;line-height:1.25;font-family:'Eras Demi ITC';-inkscape-font-specification:'Eras Demi ITC Bold';letter-spacing:0px;word-spacing:0px;fill:#000000;fill-opacity:1;stroke:none;stroke-width:2.7117002"
       d="M 115.13477 155.98242 C 115.07173 155.90105 115.04743 155.82991 114.98242 155.74805 C 114.0644 154.54757 112.9529 153.29471 111.64648 151.98828 C 110.34007 150.68187 108.85677 149.33992 107.19727 147.96289 L 99.835938 142.03125 C 98.847296 141.25446 97.646719 140.24752 96.234375 139.01172 C 94.857342 137.74061 93.798121 136.64654 93.056641 135.72852 C 92.350469 134.77519 91.854735 134.01611 91.572266 133.45117 C 91.289791 132.85093 91.078728 132.25066 90.9375 131.65039 C 90.796272 131.01485 90.726562 130.41455 90.726562 129.84961 C 90.726563 127.76641 91.820633 125.94812 94.009766 124.39453 C 96.234209 122.80564 99.076869 122.01172 102.53711 122.01172 C 107.19784 122.01172 112.28092 123.07093 117.78906 125.18945 C 117.25944 120.45809 116.90702 116.25607 116.73047 112.58398 C 110.41023 111.34818 104.72491 110.73047 99.675781 110.73047 C 94.061714 110.73047 89.400761 111.55924 85.693359 113.21875 C 82.021266 114.84294 79.250261 117.12016 77.378906 120.05078 C 75.54286 122.94608 74.625 126.05404 74.625 129.37305 C 74.625 131.17379 74.872868 132.86814 75.367188 134.45703 C 75.861507 136.04592 76.67286 137.65315 77.802734 139.27734 C 78.932612 140.86623 80.557268 142.66709 82.675781 144.67969 C 83.629114 145.59771 85.358324 147.13328 87.865234 149.28711 C 93.126216 153.73599 96.780228 156.93108 98.828125 158.87305 C 100.31109 160.28538 101.3703 161.64477 102.00586 162.95117 C 102.42956 163.90452 102.64258 164.98116 102.64258 166.18164 C 102.64258 167.60641 102.19241 168.89875 101.39062 170.08594 L 115.13477 155.98242 z "
       id="path4647"
       transform="matrix(0.26458333,0,0,0.26458333,0,85.333316)" />
    <path
       style="font-style:normal;font-variant:normal;font-weight:bold;font-stretch:normal;font-size:medium;line-height:1.25;font-family:'Eras Demi ITC';-inkscape-font-specification:'Eras Demi ITC Bold';letter-spacing:0px;word-spacing:0px;fill:#fff8e1;fill-opacity:1;stroke:none;stroke-width:2.7117002"
       d="M 115.13477 155.98242 L 101.39062 170.08594 C 101.31813 170.19328 101.29194 170.31452 101.21289 170.41992 C 100.79727 170.97941 100.2382 171.46704 99.605469 171.91797 L 86.724609 185.13477 C 87.567336 185.22119 88.315767 185.25711 89.091797 185.30859 L 116.83789 158.61914 C 116.37846 157.76757 115.8426 156.89611 115.13477 155.98242 z "
       id="path4594"
       transform="matrix(0.26458333,0,0,0.26458333,0,85.333316)" />
    <path
       style="font-style:normal;font-variant:normal;font-weight:bold;font-stretch:normal;font-size:medium;line-height:1.25;font-family:'Eras Demi ITC';-inkscape-font-specification:'Eras Demi ITC Bold';letter-spacing:0px;word-spacing:0px;fill:#000000;fill-opacity:1;stroke:none;stroke-width:2.7117002"
       d="M 131.27344 144.73438 L 130.87109 153.8418 L 130.02344 167.50586 L 130.02344 168.61914 C 130.02344 172.96209 130.87159 176.29855 132.56641 178.62891 C 134.29653 180.95929 136.62603 182.70592 139.55664 183.87109 C 142.48725 185.00097 145.9302 185.56641 149.88477 185.56641 C 151.93266 185.56641 153.85746 185.39019 155.6582 185.03711 C 157.49425 184.71933 159.11891 184.3127 160.53125 183.81836 C 161.94359 183.28875 163.24873 182.60133 164.44922 181.75391 C 165.64971 180.87121 166.6218 179.98819 167.36328 179.10547 C 168.10476 178.18745 168.97034 176.98687 169.95898 175.50391 L 169.85156 184.29492 C 172.49971 184.22437 174.86601 184.18945 176.94922 184.18945 C 178.60872 184.18945 180.99245 184.22437 184.09961 184.29492 C 184.20552 178.43371 184.34688 173.05047 184.52344 168.14258 C 184.69998 163.19936 185.01755 156.94861 185.47656 149.39258 C 185.93557 141.80125 186.37708 135.48079 186.80078 130.43164 C 184.18795 130.50219 181.83907 130.53711 179.75586 130.53711 C 177.91981 130.53711 175.25532 130.50219 171.75977 130.43164 C 171.65384 136.32818 171.45825 142.13743 171.17578 147.85742 C 170.96393 152.58879 170.73544 155.92522 170.48828 157.86719 C 170.1705 160.62125 169.71158 162.77454 169.11133 164.32812 C 168.29923 166.48193 167.29229 168.19371 166.0918 169.46484 C 164.92661 170.73595 163.51497 171.72547 161.85547 172.43164 C 160.01942 173.20843 158.0772 173.59766 156.0293 173.59766 C 153.87547 173.59766 151.84416 173.15616 149.9375 172.27344 C 148.06615 171.39072 146.74359 170.11847 145.9668 168.45898 C 145.22532 166.76417 144.85352 164.64575 144.85352 162.10352 C 144.85352 161.5386 144.87095 160.62074 144.90625 159.34961 C 144.97685 158.0432 145.06595 156.45533 145.17188 154.58398 L 146.91992 130.43164 C 146.61123 130.43926 146.42968 130.43657 146.13086 130.44336 L 131.27344 144.73438 z "
       id="path4644"
       transform="matrix(0.26458333,0,0,0.26458333,0,85.333316)" />
    <path
       style="font-style:normal;font-variant:normal;font-weight:bold;font-stretch:normal;font-size:medium;line-height:1.25;font-family:'Eras Demi ITC';-inkscape-font-specification:'Eras Demi ITC Bold';letter-spacing:0px;word-spacing:0px;fill:#000000;fill-opacity:1;stroke:none;stroke-width:2.7117002"
       d="M 139.93555 130.5332 C 139.84407 130.53334 139.69917 130.53711 139.60938 130.53711 C 137.70271 130.53711 135.07307 130.50219 131.71875 130.43164 C 131.71875 132.58547 131.70132 134.38632 131.66602 135.83398 L 131.51953 139.16992 L 139.93555 130.5332 z "
       id="path4642"
       transform="matrix(0.26458333,0,0,0.26458333,0,85.333316)" />
    <path
       style="font-style:normal;font-variant:normal;font-weight:bold;font-stretch:normal;font-size:medium;line-height:1.25;font-family:'Eras Demi ITC';-inkscape-font-specification:'Eras Demi ITC Bold';letter-spacing:0px;word-spacing:0px;fill:#fff8e1;fill-opacity:1;stroke:none;stroke-width:2.7117002"
       d="M 139.93555 130.5332 L 131.51953 139.16992 L 131.27344 144.73438 L 146.13086 130.44336 C 143.78467 130.49669 141.67316 130.53054 139.93555 130.5332 z "
       id="path4596"
       transform="matrix(0.26458333,0,0,0.26458333,0,85.333316)" />
    <path
       style="font-style:normal;font-variant:normal;font-weight:bold;font-stretch:normal;font-size:medium;line-height:1.25;font-family:'Eras Demi ITC';-inkscape-font-specification:'Eras Demi ITC Bold';letter-spacing:0px;word-spacing:0px;fill:#000000;fill-opacity:1;stroke:none;stroke-width:2.7117002"
       d="M 238.07227 145 C 238.41916 145.42967 238.81354 145.81982 239.07422 146.32031 C 239.95693 148.01513 240.39844 150.25748 240.39844 153.04688 C 240.39844 155.51846 240.18738 160.58609 239.76367 168.24805 C 239.33997 175.87471 238.98559 181.22307 238.70312 184.29492 C 241.42189 184.22437 244.12319 184.18945 246.80664 184.18945 C 248.78392 184.18945 251.16765 184.22437 253.95703 184.29492 C 253.99233 180.65813 254.08143 177.23456 254.22266 174.02148 L 255.33398 150.875 C 255.43991 148.7918 255.49219 147.27366 255.49219 146.32031 C 255.49219 144.02526 255.21142 141.85454 254.64648 139.80664 C 254.08155 137.75874 252.91582 135.86879 251.15039 134.13867 C 250.85809 133.85222 250.45609 133.65876 250.13281 133.39844 L 238.07227 145 z "
       id="path4676"
       transform="matrix(0.26458333,0,0,0.26458333,0,85.333316)" />
    <path
       style="font-style:normal;font-variant:normal;font-weight:bold;font-stretch:normal;font-size:medium;line-height:1.25;font-family:'Eras Demi ITC';-inkscape-font-specification:'Eras Demi ITC Bold';letter-spacing:0px;word-spacing:0px;fill:#000000;fill-opacity:1;stroke:none;stroke-width:2.7117002"
       d="M 212.96094 169.15625 L 197.22656 184.29102 C 200.22106 184.22665 202.84207 184.18945 204.9668 184.18945 C 207.15593 184.18945 209.60936 184.22437 212.32812 184.29492 C 212.48623 177.97079 212.72417 173.57285 212.96094 169.15625 z "
       id="path4674"
       transform="matrix(0.26458333,0,0,0.26458333,0,85.333316)" />
    <path
       style="font-style:normal;font-variant:normal;font-weight:bold;font-stretch:normal;font-size:medium;line-height:1.25;font-family:'Eras Demi ITC';-inkscape-font-specification:'Eras Demi ITC Bold';letter-spacing:0px;word-spacing:0px;fill:#fff8e1;fill-opacity:1;stroke:none;stroke-width:2.7117002"
       d="M 213.12109 165.30859 L 197.04883 181.80273 C 196.9763 182.55911 196.93821 183.55538 196.86328 184.29492 C 197.00574 184.29176 197.08602 184.29404 197.22656 184.29102 L 212.96094 169.15625 C 213.02111 168.03373 213.05584 166.30789 213.12109 165.30859 z "
       id="path4672"
       transform="matrix(0.26458333,0,0,0.26458333,0,85.333316)" />
    <path
       style="font-style:normal;font-variant:normal;font-weight:bold;font-stretch:normal;font-size:medium;line-height:1.25;font-family:'Eras Demi ITC';-inkscape-font-specification:'Eras Demi ITC Bold';letter-spacing:0px;word-spacing:0px;fill:#000000;fill-opacity:1;stroke:none;stroke-width:2.7117002"
       d="M 246.33594 131.22656 C 245.61874 130.93715 244.96262 130.59473 244.1582 130.37891 C 241.29821 129.56681 238.29872 129.16016 235.15625 129.16016 C 233.17897 129.16016 231.27159 129.32089 229.43555 129.63867 C 227.63481 129.95643 225.99273 130.37857 224.50977 130.9082 C 223.06211 131.43784 221.68532 132.14465 220.37891 133.02734 C 219.1078 133.91007 218.04858 134.81049 217.20117 135.72852 C 216.38907 136.64654 215.43636 137.88196 214.3418 139.43555 L 214.92383 130.43164 C 212.3463 130.50219 209.91029 130.53711 207.61523 130.53711 C 205.67326 130.53711 203.07847 130.50219 199.83008 130.43164 C 199.75946 138.34078 199.43994 147.29284 198.875 157.28516 C 198.39424 166.35551 197.76234 174.36163 197.04883 181.80273 L 213.12109 165.30859 C 213.14312 164.97126 213.15317 164.33306 213.17578 164.00977 C 213.56418 158.32508 214.16447 154.247 214.97656 151.77539 C 215.75335 149.44503 216.84742 147.48537 218.25977 145.89648 C 219.60149 144.3429 221.1913 143.1617 223.02734 142.34961 C 224.86339 141.53751 226.84047 141.13086 228.95898 141.13086 C 231.11281 141.13086 233.10731 141.57236 234.94336 142.45508 C 235.04819 142.50452 235.11507 142.58472 235.2168 142.63672 L 246.33594 131.22656 z "
       id="path4670"
       transform="matrix(0.26458333,0,0,0.26458333,0,85.333316)" />
    <path
       style="font-style:normal;font-variant:normal;font-weight:bold;font-stretch:normal;font-size:medium;line-height:1.25;font-family:'Eras Demi ITC';-inkscape-font-specification:'Eras Demi ITC Bold';letter-spacing:0px;word-spacing:0px;fill:#fff8e1;fill-opacity:1;stroke:none;stroke-width:2.7117002"
       d="M 246.33594 131.22656 L 235.2168 142.63672 C 236.39477 143.23881 237.31029 144.05619 238.07227 145 L 250.13281 133.39844 C 249.04606 132.52332 247.77273 131.80635 246.33594 131.22656 z "
       id="path4598"
       transform="matrix(0.26458333,0,0,0.26458333,0,85.333316)" />
    <path
       inkscape:connector-curvature="0"
       id="path4600"
       style="font-style:normal;font-variant:normal;font-weight:bold;font-stretch:normal;font-size:medium;line-height:1.25;font-family:'Eras Demi ITC';-inkscape-font-specification:'Eras Demi ITC Bold';letter-spacing:0px;word-spacing:0px;fill:#000000;fill-opacity:1;stroke:none;stroke-width:0.71747065"
       d="m 71.649012,122.9684 q 0.196183,-1.00894 0.238222,-1.41532 0.05605,-0.40638 0.182171,-1.23315 1.905781,-0.44842 3.363143,-0.63059 1.457362,-0.18217 2.816633,-0.18217 1.541441,0 2.830646,0.36434 1.289205,0.35033 2.017886,1.13506 0.728681,0.78473 0.728681,2.25611 0,0.79874 -0.22421,4.07781 -0.224209,3.26505 -0.266249,6.75431 -1.064995,-0.028 -1.961833,-0.028 -0.854799,0 -2.003873,0.028 0.18217,-1.69558 0.294275,-3.92366 l 0.18217,-3.48927 q -0.532498,0.35033 -0.81276,0.49046 -0.280262,0.14013 -0.630589,0.26625 -0.350328,0.11211 -1.233153,0.36434 -0.882825,0.23822 -1.415323,0.42039 -0.532497,0.18218 -0.966903,0.4204 -0.420393,0.22421 -0.714668,0.51848 -0.294275,0.28026 -0.434406,0.60257 -0.126118,0.30828 -0.126118,0.67262 0,0.58855 0.336314,1.02296 0.350328,0.42039 0.868812,0.58855 0.518485,0.16816 1.21914,0.16816 0.448419,0 0.938877,-0.0701 0.504472,-0.0701 1.345258,-0.35033 -0.294275,0.79875 -0.686642,2.38223 -0.99493,0.16816 -1.58348,0.2102 -0.58855,0.042 -1.093022,0.042 -1.76565,0 -2.900711,-0.47645 -1.135061,-0.47644 -1.681572,-1.51341 -0.532497,-1.03697 -0.532497,-2.08795 0,-0.60257 0.210196,-1.19112 0.210196,-0.58855 0.616576,-1.07901 0.40638,-0.49045 1.050983,-0.93887 0.644602,-0.46244 1.863742,-0.88283 1.219139,-0.4344 3.223012,-0.86881 0.532498,-0.11211 1.107035,-0.26625 0.574537,-0.16816 0.910851,-0.3223 0.350328,-0.15414 0.602563,-0.39237 0.252236,-0.25223 0.364341,-0.51848 0.126118,-0.26625 0.126118,-0.54651 0,-0.54651 -0.364341,-0.92487 -0.350327,-0.37835 -0.924864,-0.51848 -0.560524,-0.15415 -1.247166,-0.15415 -2.550384,0 -5.633265,1.21914 z" />
    <path
       inkscape:connector-curvature="0"
       id="path4602"
       style="font-style:normal;font-variant:normal;font-weight:bold;font-stretch:normal;font-size:medium;line-height:1.25;font-family:'Eras Demi ITC';-inkscape-font-specification:'Eras Demi ITC Bold';letter-spacing:0px;word-spacing:0px;fill:#000000;fill-opacity:1;stroke:none;stroke-width:0.71747065"
       d="m 95.569372,131.16607 q -0.168157,0.77072 -0.532498,2.85867 -1.1771,0.26625 -1.849729,0.33631 -0.672628,0.0701 -1.261179,0.0701 -1.036969,0 -1.863742,-0.19619 -0.812759,-0.19618 -1.345257,-0.68664 -0.532498,-0.50447 -0.728681,-1.16309 -0.18217,-0.67262 -0.18217,-1.38729 0,-0.18217 0.01401,-0.49046 0.01401,-0.30829 0.112105,-1.98986 l 0.322301,-5.82945 h -2.017886 q 0.07006,-0.84078 0.126118,-2.70453 h 2.115977 q 0.08408,-0.81276 0.168158,-2.76058 l 1.653545,-0.3223 q 0.518485,-0.0981 2.003873,-0.46243 -0.09809,1.89177 -0.112105,3.54531 h 3.559327 q -0.09809,1.89177 -0.09809,2.70453 H 92.08011 q -0.294276,5.70333 -0.294276,6.60017 0,0.86881 0.182171,1.34526 0.196183,0.47644 0.616576,0.68664 0.420393,0.2102 0.896838,0.2102 0.350328,0 0.728681,-0.0561 0.392367,-0.056 1.359271,-0.30828 z" />
    <path
       inkscape:connector-curvature="0"
       id="path4604"
       style="font-style:normal;font-variant:normal;font-weight:bold;font-stretch:normal;font-size:medium;line-height:1.25;font-family:'Eras Demi ITC';-inkscape-font-specification:'Eras Demi ITC Bold';letter-spacing:0px;word-spacing:0px;fill:#000000;fill-opacity:1;stroke:none;stroke-width:0.71747065"
       d="m 98.554156,122.9684 q 0.196183,-1.00894 0.238222,-1.41532 0.05605,-0.40638 0.18217,-1.23315 1.905782,-0.44842 3.363142,-0.63059 1.45736,-0.18217 2.81663,-0.18217 1.54145,0 2.83065,0.36434 1.28921,0.35033 2.01789,1.13506 0.72868,0.78473 0.72868,2.25611 0,0.79874 -0.22421,4.07781 -0.22421,3.26505 -0.26625,6.75431 -1.065,-0.028 -1.96183,-0.028 -0.8548,0 -2.00388,0.028 0.18217,-1.69558 0.29428,-3.92366 l 0.18217,-3.48927 q -0.5325,0.35033 -0.81276,0.49046 -0.28026,0.14013 -0.63059,0.26625 -0.35033,0.11211 -1.23315,0.36434 -0.88283,0.23822 -1.41533,0.42039 -0.53249,0.18218 -0.9669,0.4204 -0.42039,0.22421 -0.71467,0.51848 -0.29427,0.28026 -0.4344,0.60257 -0.12612,0.30828 -0.12612,0.67262 0,0.58855 0.33631,1.02296 0.35033,0.42039 0.86881,0.58855 0.51849,0.16816 1.21914,0.16816 0.44842,0 0.93888,-0.0701 0.50447,-0.0701 1.34526,-0.35033 -0.29428,0.79875 -0.68664,2.38223 -0.99493,0.16816 -1.58348,0.2102 -0.58855,0.042 -1.09303,0.042 -1.765645,0 -2.900706,-0.47645 -1.135061,-0.47644 -1.681572,-1.51341 -0.532498,-1.03697 -0.532498,-2.08795 0,-0.60257 0.210197,-1.19112 0.210196,-0.58855 0.616576,-1.07901 0.40638,-0.49045 1.050982,-0.93887 0.644603,-0.46244 1.863741,-0.88283 1.21914,-0.4344 3.22301,-0.86881 0.5325,-0.11211 1.10704,-0.26625 0.57454,-0.16816 0.91085,-0.3223 0.35033,-0.15414 0.60256,-0.39237 0.25224,-0.25223 0.36434,-0.51848 0.12612,-0.26625 0.12612,-0.54651 0,-0.54651 -0.36434,-0.92487 -0.35033,-0.37835 -0.92486,-0.51848 -0.56053,-0.15415 -1.24717,-0.15415 -2.55038,0 -5.633264,1.21914 z" />
    <path
       inkscape:connector-curvature="0"
       id="path4606"
       style="font-style:normal;font-variant:normal;font-weight:bold;font-stretch:normal;font-size:medium;line-height:1.25;font-family:'Eras Demi ITC';-inkscape-font-specification:'Eras Demi ITC Bold';letter-spacing:0px;word-spacing:0px;fill:#000000;fill-opacity:1;stroke:none;stroke-width:0.71747065"
       d="m 113.63225,134.0948 q 0.3223,-3.18097 0.5325,-7.14668 0.22421,-3.9657 0.25223,-7.10464 1.28921,0.028 2.05993,0.028 0.91085,0 1.93381,-0.028 l -0.15415,2.38223 q 0.43441,-0.61658 0.75671,-0.98092 0.33631,-0.36434 0.84079,-0.71467 0.51848,-0.35032 1.09302,-0.56052 0.58855,-0.2102 1.30322,-0.33631 0.72868,-0.12612 1.51341,-0.12612 1.24717,0 2.38223,0.3223 1.14907,0.30829 1.84973,0.99493 0.70065,0.68664 0.92486,1.4994 0.22421,0.81276 0.22421,1.72361 0,0.37836 -0.042,1.20513 l -0.29427,6.12372 q -0.0561,1.27519 -0.0701,2.71854 -1.10703,-0.028 -1.89177,-0.028 -1.06499,0 -2.144,0.028 0.1121,-1.21914 0.28026,-4.24597 0.16816,-3.04084 0.16816,-4.02175 0,-1.10704 -0.35033,-1.77967 -0.35033,-0.67263 -1.09302,-1.02295 -0.72868,-0.35033 -1.58348,-0.35033 -0.84079,0 -1.56947,0.3223 -0.72868,0.3223 -1.26118,0.93888 -0.56052,0.63059 -0.86881,1.55545 -0.3223,0.98092 -0.47644,3.23703 -0.14014,2.00387 -0.22421,5.36701 -1.07901,-0.028 -1.94783,-0.028 -0.88282,0 -2.144,0.028 z" />
    <text
       xml:space="preserve"
       style="font-style:normal;font-variant:normal;font-weight:bold;font-stretch:normal;font-size:8.29165745px;line-height:1.25;font-family:'Comic Sans MS';-inkscape-font-specification:'Comic Sans MS Bold';letter-spacing:0px;word-spacing:0px;fill:#000000;fill-opacity:1;stroke:none;stroke-width:0.20729144"
       x="3.8424242"
       y="266.47781"
       id="text4680"><tspan
         sodipodi:role="line"
         x="3.8424242"
         y="266.47781"
         style="stroke-width:0.20729144"
         id="tspan4686">pilih sunat modern</tspan><tspan
         sodipodi:role="line"
         x="3.8424242"
         y="276.84241"
         style="stroke-width:0.20729144"
         id="tspan4690">atau </tspan><tspan
         sodipodi:role="line"
         x="3.8424242"
         y="287.20697"
         style="stroke-width:0.20729144"
         id="tspan4692">ngikut nasib bebek ini ?</tspan></text>
  </g>
</svg>
